<?xml version="1.0" encoding="UTF-8"?>
<svg xmlns="http://www.w3.org/2000/svg" xmlns:xlink="http://www.w3.org/1999/xlink" viewBox="0 0 250 250">
  <defs>
    <style>
      .cls-1 {
        opacity: .02;
      }

      .cls-2 {
        fill: none;
      }

      .cls-2, .cls-3, .cls-4, .cls-5 {
        stroke-width: 0px;
      }

      .cls-6 {
        clip-path: url(#clippath);
      }

      .cls-3 {
        fill: #f49a1a;
      }

      .cls-4 {
        fill: #fff;
      }

      .cls-5 {
        fill: #eef0f6;
      }
    </style>
    <clipPath id="clippath">
      <rect class="cls-2" x="-2356.45" y="-1054.75" width="1874.3" height="879.25"/>
    </clipPath>
  </defs>
  <g id="Capa_10" data-name="Capa 10">
    <g class="cls-6">
      <g class="cls-1">
        <path class="cls-4" d="M4.01,229.22c1.31,0,2.5.53,3.36,1.39.86.86,1.39,2.05,1.39,3.36,0,2.63-2.13,4.76-4.76,4.76s-4.76-2.13-4.76-4.76,2.13-4.76,4.76-4.76Z"/>
        <path class="cls-4" d="M33.6,228.47c1.52,0,2.9.62,3.9,1.62s1.62,2.38,1.62,3.9c0,3.05-2.47,5.52-5.52,5.52s-5.52-2.47-5.52-5.52,2.47-5.52,5.52-5.52Z"/>
        <path class="cls-4" d="M4.42,220.78c1.52,0,2.89.61,3.88,1.61.99.99,1.61,2.37,1.61,3.88s-.6,2.85-1.57,3.84c-1,1.02-2.39,1.65-3.92,1.65s-2.89-.61-3.88-1.61c-.99-.99-1.61-2.37-1.61-3.88s.63-2.92,1.65-3.92c.99-.97,2.35-1.57,3.84-1.57Z"/>
        <path class="cls-4" d="M63.2,227.71c1.73,0,3.3.7,4.44,1.84,1.14,1.14,1.84,2.7,1.84,4.44,0,3.46-2.81,6.27-6.27,6.27s-6.27-2.81-6.27-6.27,2.81-6.27,6.27-6.27Z"/>
        <path class="cls-4" d="M34.02,220.07c1.71,0,3.26.69,4.39,1.82,1.12,1.12,1.82,2.67,1.82,4.39s-.68,3.22-1.77,4.34c-1.13,1.15-2.69,1.86-4.43,1.86s-3.26-.69-4.39-1.82c-1.12-1.12-1.82-2.67-1.82-4.39s.71-3.3,1.86-4.43c1.12-1.1,2.65-1.77,4.34-1.77Z"/>
        <path class="cls-4" d="M5.79,210.57c1.69,0,3.23.69,4.34,1.8s1.8,2.64,1.8,4.34-.67,3.19-1.75,4.29c-1.11,1.14-2.66,1.84-4.38,1.84s-3.23-.69-4.34-1.8c-1.11-1.11-1.8-2.64-1.8-4.34s.7-3.27,1.84-4.38c1.11-1.08,2.62-1.75,4.29-1.75Z"/>
        <path class="cls-4" d="M92.79,226.95c1.94,0,3.7.79,4.97,2.06,1.27,1.27,2.06,3.03,2.06,4.97,0,3.88-3.15,7.03-7.03,7.03s-7.03-3.15-7.03-7.03,3.15-7.03,7.03-7.03Z"/>
        <path class="cls-4" d="M63.61,219.35c1.91,0,3.64.77,4.89,2.03,1.25,1.25,2.03,2.98,2.03,4.89s-.75,3.59-1.98,4.84c-1.26,1.28-3,2.07-4.94,2.07s-3.64-.77-4.89-2.03c-1.25-1.25-2.03-2.98-2.03-4.89s.79-3.68,2.07-4.94c1.25-1.22,2.96-1.98,4.84-1.98Z"/>
        <path class="cls-4" d="M35.39,209.9c1.88,0,3.58.76,4.81,1.99,1.23,1.23,1.99,2.93,1.99,4.81s-.74,3.53-1.94,4.76c-1.23,1.26-2.95,2.04-4.86,2.04s-3.58-.76-4.81-1.99c-1.23-1.23-1.99-2.93-1.99-4.81s.78-3.62,2.04-4.86c1.23-1.2,2.91-1.94,4.76-1.94Z"/>
        <path class="cls-4" d="M8.1,198.68c1.85,0,3.52.75,4.73,1.96,1.21,1.21,1.96,2.88,1.96,4.73s-.73,3.47-1.91,4.68c-1.21,1.24-2.9,2.01-4.78,2.01s-3.52-.75-4.73-1.96c-1.21-1.21-1.96-2.88-1.96-4.73s.77-3.56,2.01-4.78c1.21-1.18,2.86-1.91,4.68-1.91Z"/>
        <path class="cls-4" d="M122.39,226.2c2.15,0,4.1.87,5.51,2.28,1.41,1.41,2.28,3.36,2.28,5.51,0,4.3-3.49,7.79-7.79,7.79s-7.79-3.49-7.79-7.79,3.49-7.79,7.79-7.79Z"/>
        <path class="cls-4" d="M93.21,218.64c2.11,0,4.01.85,5.39,2.23,1.38,1.38,2.23,3.29,2.23,5.39s-.83,3.96-2.18,5.34c-1.38,1.41-3.31,2.29-5.45,2.29s-4.01-.85-5.39-2.23c-1.38-1.38-2.23-3.29-2.23-5.39s.88-4.06,2.29-5.45c1.38-1.35,3.26-2.18,5.34-2.18Z"/>
        <path class="cls-4" d="M64.98,209.24c2.06,0,3.93.84,5.28,2.19,1.35,1.35,2.19,3.22,2.19,5.28s-.81,3.88-2.13,5.23c-1.36,1.38-3.24,2.24-5.33,2.24s-3.93-.84-5.28-2.19c-1.35-1.35-2.19-3.22-2.19-5.28s.86-3.98,2.24-5.33c1.35-1.32,3.19-2.13,5.23-2.13Z"/>
        <path class="cls-4" d="M37.69,198.06c2.02,0,3.85.82,5.17,2.14s2.14,3.15,2.14,5.17-.8,3.8-2.09,5.12c-1.33,1.35-3.18,2.19-5.22,2.19s-3.85-.82-5.17-2.14-2.14-3.15-2.14-5.17.84-3.89,2.19-5.22c1.32-1.29,3.12-2.09,5.12-2.09Z"/>
        <path class="cls-4" d="M11.34,185.18c1.97,0,3.76.8,5.06,2.09s2.09,3.08,2.09,5.06-.78,3.72-2.04,5c-1.3,1.32-3.11,2.15-5.11,2.15s-3.76-.8-5.06-2.09c-1.29-1.29-2.09-3.08-2.09-5.06s.82-3.81,2.15-5.11c1.29-1.26,3.06-2.04,5-2.04Z"/>
        <path class="cls-4" d="M151.98,225.44c2.36,0,4.49.96,6.04,2.5,1.55,1.55,2.5,3.68,2.5,6.04,0,4.72-3.82,8.54-8.54,8.54s-8.54-3.82-8.54-8.54,3.82-8.54,8.54-8.54Z"/>
        <path class="cls-4" d="M122.8,217.93c2.3,0,4.39.93,5.9,2.44,1.51,1.51,2.44,3.59,2.44,5.9s-.91,4.33-2.38,5.84c-1.51,1.54-3.62,2.5-5.96,2.5s-4.39-.93-5.9-2.44c-1.51-1.51-2.44-3.59-2.44-5.9s.96-4.44,2.5-5.96c1.5-1.47,3.56-2.38,5.84-2.38Z"/>
        <path class="cls-4" d="M94.58,208.57c2.25,0,4.28.91,5.75,2.38,1.47,1.47,2.38,3.51,2.38,5.75s-.89,4.23-2.33,5.69c-1.48,1.51-3.53,2.44-5.81,2.44s-4.28-.91-5.75-2.38c-1.47-1.47-2.38-3.51-2.38-5.75s.93-4.33,2.44-5.81c1.47-1.44,3.48-2.33,5.69-2.33Z"/>
        <path class="cls-4" d="M67.29,197.43c2.19,0,4.17.89,5.61,2.32,1.44,1.44,2.32,3.42,2.32,5.61s-.86,4.12-2.27,5.55c-1.44,1.47-3.45,2.38-5.66,2.38s-4.17-.89-5.61-2.32c-1.44-1.44-2.32-3.42-2.32-5.61s.91-4.22,2.38-5.66c1.43-1.4,3.39-2.27,5.55-2.27Z"/>
        <path class="cls-4" d="M40.94,184.61c2.13,0,4.07.86,5.46,2.26,1.4,1.4,2.26,3.33,2.26,5.46s-.84,4.02-2.21,5.41c-1.4,1.43-3.36,2.32-5.52,2.32s-4.07-.87-5.46-2.26c-1.4-1.4-2.26-3.33-2.26-5.46s.89-4.12,2.32-5.52c1.39-1.37,3.3-2.21,5.41-2.21Z"/>
        <path class="cls-4" d="M15.51,170.16c2.08,0,3.96.84,5.32,2.2s2.2,3.24,2.2,5.32-.82,3.91-2.15,5.27c-1.37,1.39-3.27,2.26-5.37,2.26s-3.96-.84-5.32-2.2c-1.36-1.36-2.2-3.24-2.2-5.32s.86-4.01,2.26-5.37c1.36-1.33,3.22-2.15,5.27-2.15Z"/>
        <path class="cls-4" d="M181.58,224.68c2.57,0,4.89,1.04,6.58,2.72,1.68,1.68,2.72,4.01,2.72,6.58,0,5.14-4.16,9.3-9.3,9.3s-9.3-4.16-9.3-9.3,4.16-9.3,9.3-9.3Z"/>
        <path class="cls-4" d="M152.4,217.22c2.5,0,4.76,1.01,6.4,2.65,1.64,1.64,2.65,3.9,2.65,6.4s-.99,4.7-2.59,6.34c-1.64,1.68-3.93,2.72-6.46,2.72s-4.76-1.01-6.4-2.65c-1.64-1.64-2.65-3.9-2.65-6.4s1.04-4.82,2.72-6.46c1.63-1.6,3.87-2.59,6.34-2.59Z"/>
        <path class="cls-4" d="M124.17,207.9c2.43,0,4.63.99,6.22,2.58,1.59,1.59,2.58,3.79,2.58,6.22s-.96,4.57-2.52,6.16c-1.6,1.63-3.82,2.64-6.29,2.64s-4.63-.99-6.22-2.58c-1.59-1.59-2.58-3.79-2.58-6.22s1.01-4.69,2.64-6.29c1.59-1.56,3.76-2.52,6.16-2.52Z"/>
        <path class="cls-4" d="M96.88,196.81c2.36,0,4.5.96,6.05,2.51,1.55,1.55,2.51,3.69,2.51,6.05s-.93,4.44-2.44,5.99c-1.55,1.58-3.72,2.57-6.11,2.57s-4.5-.96-6.05-2.51c-1.55-1.55-2.51-3.69-2.51-6.05s.98-4.56,2.57-6.11c1.54-1.51,3.66-2.44,5.99-2.44Z"/>
        <path class="cls-4" d="M70.53,184.03c2.29,0,4.37.93,5.87,2.43,1.5,1.5,2.43,3.58,2.43,5.87s-.91,4.32-2.37,5.81c-1.51,1.54-3.61,2.49-5.93,2.49s-4.37-.93-5.87-2.43c-1.5-1.5-2.43-3.58-2.43-5.87s.95-4.42,2.49-5.93c1.5-1.47,3.55-2.37,5.81-2.37Z"/>
        <path class="cls-4" d="M45.1,169.63c2.22,0,4.24.9,5.7,2.36,1.46,1.46,2.36,3.47,2.36,5.7s-.88,4.19-2.3,5.64c-1.46,1.49-3.5,2.42-5.75,2.42s-4.24-.9-5.7-2.36c-1.46-1.46-2.36-3.47-2.36-5.7s.93-4.29,2.42-5.75c1.45-1.42,3.44-2.3,5.64-2.3Z"/>
        <path class="cls-4" d="M20.59,153.7c2.16,0,4.11.87,5.52,2.29,1.41,1.41,2.29,3.37,2.29,5.52s-.85,4.06-2.23,5.47c-1.42,1.45-3.39,2.34-5.58,2.34s-4.11-.87-5.52-2.29c-1.41-1.41-2.29-3.37-2.29-5.52s.9-4.16,2.34-5.58c1.41-1.38,3.34-2.23,5.47-2.23Z"/>
        <path class="cls-4" d="M-3.02,136.32c2.09,0,3.98.85,5.35,2.21,1.37,1.37,2.21,3.26,2.21,5.35s-.82,3.93-2.16,5.29c-1.37,1.4-3.28,2.27-5.4,2.27s-3.98-.85-5.35-2.21c-1.37-1.37-2.21-3.26-2.21-5.35s.87-4.03,2.27-5.4c1.36-1.34,3.23-2.16,5.29-2.16Z"/>
        <path class="cls-4" d="M211.17,223.93c2.78,0,5.29,1.13,7.11,2.95,1.82,1.82,2.95,4.33,2.95,7.11,0,5.55-4.5,10.06-10.06,10.06s-10.06-4.5-10.06-10.06,4.5-10.06,10.06-10.06Z"/>
        <path class="cls-4" d="M181.99,216.51c2.7,0,5.14,1.09,6.9,2.86,1.77,1.77,2.86,4.21,2.86,6.9s-1.06,5.07-2.79,6.83c-1.77,1.81-4.24,2.93-6.97,2.93s-5.14-1.09-6.9-2.86c-1.77-1.77-2.86-4.21-2.86-6.9s1.12-5.2,2.93-6.97c1.76-1.73,4.17-2.79,6.83-2.79Z"/>
        <path class="cls-4" d="M153.77,207.23c2.61,0,4.98,1.06,6.7,2.77,1.71,1.71,2.77,4.08,2.77,6.7s-1.03,4.92-2.71,6.63c-1.72,1.75-4.11,2.84-6.76,2.84s-4.98-1.06-6.7-2.77c-1.71-1.71-2.77-4.08-2.77-6.7s1.09-5.04,2.84-6.76c1.71-1.67,4.05-2.71,6.63-2.71Z"/>
        <path class="cls-4" d="M126.48,196.19c2.53,0,4.83,1.03,6.49,2.69,1.66,1.66,2.69,3.95,2.69,6.49s-1,4.77-2.62,6.42c-1.67,1.7-3.99,2.75-6.55,2.75s-4.83-1.03-6.49-2.69-2.69-3.95-2.69-6.49,1.05-4.89,2.75-6.55c1.66-1.62,3.92-2.62,6.42-2.62Z"/>
        <path class="cls-4" d="M100.13,183.45c2.45,0,4.67.99,6.28,2.6,1.61,1.61,2.6,3.83,2.6,6.28s-.97,4.62-2.54,6.22c-1.61,1.64-3.86,2.67-6.34,2.67s-4.67-.99-6.28-2.6c-1.61-1.61-2.6-3.83-2.6-6.28s1.02-4.73,2.67-6.34c1.6-1.57,3.8-2.54,6.22-2.54Z"/>
        <path class="cls-4" d="M74.7,169.1c2.37,0,4.52.96,6.07,2.52,1.55,1.55,2.52,3.7,2.52,6.07s-.94,4.46-2.46,6.01c-1.56,1.59-3.73,2.58-6.13,2.58s-4.52-.96-6.07-2.52c-1.55-1.55-2.52-3.7-2.52-6.07s.99-4.58,2.58-6.13c1.55-1.52,3.67-2.46,6.01-2.46Z"/>
        <path class="cls-4" d="M50.18,153.21c2.29,0,4.37.93,5.87,2.43,1.5,1.5,2.43,3.58,2.43,5.87s-.9,4.31-2.37,5.81c-1.51,1.54-3.6,2.49-5.93,2.49s-4.37-.93-5.87-2.43c-1.5-1.5-2.43-3.58-2.43-5.87s.95-4.42,2.49-5.93c1.5-1.47,3.55-2.37,5.81-2.37Z"/>
        <path class="cls-4" d="M26.57,135.87c2.21,0,4.21.9,5.66,2.34,1.45,1.45,2.34,3.45,2.34,5.66s-.87,4.16-2.29,5.6c-1.45,1.48-3.48,2.4-5.72,2.4s-4.21-.9-5.66-2.34-2.34-3.45-2.34-5.66.92-4.26,2.4-5.72c1.44-1.42,3.42-2.29,5.6-2.29Z"/>
        <path class="cls-4" d="M3.86,117.16c2.13,0,4.06.86,5.45,2.26s2.26,3.32,2.26,5.45-.84,4.01-2.2,5.4c-1.4,1.43-3.35,2.31-5.51,2.31s-4.06-.86-5.45-2.26c-1.4-1.4-2.26-3.32-2.26-5.45s.89-4.11,2.31-5.51c1.39-1.36,3.3-2.2,5.4-2.2Z"/>
        <path class="cls-4" d="M251.58,233.98c0,5.97-4.84,10.81-10.81,10.81s-10.81-4.84-10.81-10.81,4.84-10.81,10.81-10.81c2.99,0,5.69,1.21,7.65,3.17,1.96,1.96,3.17,4.66,3.17,7.65Z"/>
        <path class="cls-4" d="M222.06,226.27c0,2.85-1.14,5.44-2.99,7.33-1.9,1.94-4.55,3.14-7.48,3.14s-5.51-1.17-7.41-3.07-3.07-4.51-3.07-7.41,1.2-5.58,3.14-7.48c1.89-1.85,4.48-2.99,7.33-2.99s5.51,1.17,7.41,3.07c1.9,1.9,3.07,4.51,3.07,7.41Z"/>
        <path class="cls-4" d="M193.5,216.7c0,2.76-1.11,5.27-2.9,7.1-1.84,1.88-4.4,3.04-7.24,3.04s-5.33-1.13-7.17-2.97c-1.83-1.83-2.97-4.37-2.97-7.17s1.16-5.4,3.04-7.24c1.83-1.79,4.33-2.9,7.1-2.9s5.33,1.13,7.17,2.97c1.83,1.83,2.97,4.37,2.97,7.17Z"/>
        <path class="cls-4" d="M165.87,205.37c0,2.67-1.07,5.09-2.8,6.86-1.78,1.81-4.26,2.94-7,2.94s-5.16-1.1-6.93-2.87c-1.77-1.77-2.87-4.22-2.87-6.93s1.13-5.22,2.94-7c1.77-1.73,4.19-2.8,6.86-2.8s5.16,1.1,6.93,2.87c1.77,1.77,2.87,4.22,2.87,6.93Z"/>
        <path class="cls-4" d="M139.18,192.33c0,2.58-1.03,4.92-2.7,6.62-1.72,1.75-4.11,2.84-6.76,2.84s-4.98-1.06-6.69-2.77c-1.71-1.71-2.77-4.08-2.77-6.69s1.09-5.04,2.84-6.76c1.71-1.67,4.04-2.7,6.62-2.7s4.98,1.06,6.69,2.77c1.71,1.71,2.77,4.08,2.77,6.69Z"/>
        <path class="cls-4" d="M113.42,177.69c0,2.49-.99,4.74-2.61,6.39-1.66,1.69-3.96,2.74-6.52,2.74s-4.8-1.02-6.45-2.67c-1.65-1.65-2.67-3.93-2.67-6.45s1.05-4.86,2.74-6.52c1.65-1.61,3.9-2.61,6.39-2.61s4.8,1.02,6.45,2.67c1.65,1.65,2.67,3.93,2.67,6.45Z"/>
        <path class="cls-4" d="M88.56,161.51c0,2.39-.96,4.56-2.51,6.15-1.59,1.63-3.82,2.64-6.27,2.64s-4.62-.98-6.21-2.57c-1.59-1.59-2.57-3.79-2.57-6.21s1.01-4.68,2.64-6.27c1.58-1.55,3.76-2.51,6.15-2.51s4.62.98,6.21,2.57c1.59,1.59,2.57,3.79,2.57,6.21Z"/>
        <path class="cls-4" d="M64.62,143.88c0,2.3-.92,4.39-2.41,5.91-1.53,1.56-3.67,2.53-6.03,2.53s-4.44-.95-5.97-2.47c-1.53-1.53-2.47-3.64-2.47-5.97s.97-4.5,2.53-6.03c1.52-1.49,3.61-2.41,5.91-2.41s4.44.95,5.97,2.47c1.53,1.53,2.47,3.64,2.47,5.97Z"/>
        <path class="cls-4" d="M41.56,124.87c0,2.21-.88,4.21-2.32,5.68-1.47,1.5-3.52,2.43-5.79,2.43s-4.27-.91-5.73-2.38c-1.47-1.47-2.38-3.49-2.38-5.73s.93-4.32,2.43-5.79c1.46-1.43,3.47-2.32,5.68-2.32s4.27.91,5.73,2.38,2.38,3.49,2.38,5.73Z"/>
        <path class="cls-4" d="M19.4,104.57c0,2.12-.85,4.04-2.22,5.44-1.41,1.44-3.38,2.33-5.55,2.33s-4.09-.87-5.5-2.28-2.28-3.35-2.28-5.5.89-4.14,2.33-5.55c1.4-1.37,3.32-2.22,5.44-2.22s4.09.87,5.5,2.28,2.28,3.35,2.28,5.5Z"/>
      </g>
    </g>
  </g>
  <g id="Capa_13" data-name="Capa 13">
    <g>
      <rect class="cls-5" x="36.2" y="36.2" width="177.6" height="177.6" rx="11.9" ry="11.9"/>
      <rect class="cls-3" x="53.47" y="53.47" width="160.33" height="160.33" rx="12.56" ry="12.56"/>
      <g>
        <path class="cls-4" d="M132.16,84.17c.92.38,1.57,1.07,2.21,1.82,7.3,8.49,14.61,16.97,21.94,25.43.95,1.1,1.38,2.26.8,3.62-.6,1.4-1.81,1.81-3.23,1.81-1.61,0-3.22.05-4.83-.02-.96-.04-1.19.32-1.18,1.22.05,3.31,0,6.63.03,9.94,0,.8-.23,1.26-.94,1.69-6.34,3.86-9.49,9.53-9.3,16.95.08,3.17,1.05,6.14,2.78,8.82.48.74.47,1.1-.39,1.5-3.04,1.41-5.69,3.39-7.87,5.94-.6.7-.97.69-1.56,0-2.19-2.55-4.84-4.51-7.87-5.95-.76-.36-.91-.65-.44-1.42,5.78-9.54,2.48-21.25-7.42-26.35-.63-.32-.89-.72-.88-1.42.03-3.25-.01-6.5.03-9.75.01-.87-.25-1.21-1.15-1.17-1.35.06-2.7.02-4.05.01-1.39,0-2.56-.45-3.14-1.81-.57-1.32-.19-2.47.74-3.55,7.49-8.66,14.96-17.34,22.43-26.02.5-.58,1.1-.98,1.77-1.3h1.54Z"/>
        <path class="cls-4" d="M81.95,177.05c.55-3,1.52-5.85,3.25-8.39,2.42-3.57,5.66-6.11,9.69-7.65.66-.25,1.2-.21,1.8.2,1.88,1.28,3.97,2.15,6.2,2.55.97.18,1.15.6,1.15,1.48-.03,4.86-.01,9.72-.02,14.58,0,1.12.38,2.02,1.35,2.6,1.89,1.12,4.12-.17,4.14-2.45.03-3.99.01-7.98.01-11.97,0-1,.03-2-.01-2.99-.03-.73.18-1.11.96-1.26,2.33-.45,4.49-1.36,6.45-2.71.53-.37,1-.29,1.54-.09,6.25,2.37,10.38,6.74,12.41,13.09.16.49.28.99.41,1.49,0,.03.04.05.14.18.15-.51.28-.95.41-1.39,1.92-6.36,5.97-10.75,12.12-13.25.84-.34,1.52-.34,2.32.21,1.9,1.31,4.04,2.13,6.31,2.53.82.14,1.06.48,1.06,1.27-.02,4.96,0,9.91-.01,14.87,0,1.14.48,1.98,1.45,2.54.93.54,1.87.45,2.74-.11.99-.63,1.31-1.61,1.31-2.74,0-4.79.02-9.59-.02-14.38,0-.97.24-1.42,1.25-1.62,2.07-.4,3.99-1.25,5.73-2.44.6-.41,1.13-.44,1.8-.2,7.9,2.8,13.32,10.82,12.99,19.25-.06,1.54-1.1,2.64-2.65,2.81-.38.04-.77.02-1.16.02-22.81,0-45.63,0-68.44,0-7.75,0-15.51-.02-23.26.01-1.58,0-2.75-.52-3.43-1.99v-4.06Z"/>
        <path class="cls-4" d="M106.68,158.77c-7.26,0-13.13-5.81-13.16-13.01-.03-7.2,5.92-13.16,13.15-13.17,7.15,0,13.15,6,13.12,13.11-.04,7.25-5.87,13.07-13.1,13.07Z"/>
        <path class="cls-4" d="M156.08,158.77c-7.23,0-13.09-5.85-13.11-13.07-.02-7.17,5.98-13.13,13.21-13.1,7.12.02,13.1,5.91,13.04,13.06-.07,8.05-6.56,13.22-13.14,13.12Z"/>
      </g>
    </g>
  </g>
</svg>