<?xml version="1.0" encoding="UTF-8"?>
<svg xmlns="http://www.w3.org/2000/svg" xmlns:xlink="http://www.w3.org/1999/xlink" viewBox="0 0 250 250">
  <defs>
    <style>
      .cls-1 {
        opacity: .02;
      }

      .cls-2 {
        fill: none;
      }

      .cls-2, .cls-3, .cls-4 {
        stroke-width: 0px;
      }

      .cls-5 {
        clip-path: url(#clippath);
      }

      .cls-3 {
        fill: #f49a1a;
      }

      .cls-4 {
        fill: #fff;
      }
    </style>
    <clipPath id="clippath">
      <rect class="cls-2" x="-1276.45" y="-1054.75" width="1874.3" height="879.25"/>
    </clipPath>
  </defs>
  <g id="Capa_10" data-name="Capa 10">
    <g class="cls-5">
      <g class="cls-1">
        <path class="cls-4" d="M19.19,233.98c0,.17-.07.32-.18.42-.11.11-.26.18-.42.18s-.32-.07-.42-.18c-.11-.11-.18-.26-.18-.42s.07-.32.18-.42.26-.18.42-.18.32.07.42.18.18.26.18.42Z"/>
        <path class="cls-4" d="M48.86,233.98c0,.19-.08.36-.2.48-.12.12-.29.2-.48.2s-.36-.08-.48-.2c-.12-.12-.2-.29-.2-.48s.08-.36.2-.48c.12-.12.29-.2.48-.2s.36.08.48.2c.12.12.2.29.2.48Z"/>
        <path class="cls-4" d="M19,225.42c.24,0,.45.1.6.25.15.15.25.37.25.6s-.1.45-.25.6-.37.25-.6.25-.45-.1-.6-.25c-.15-.15-.25-.37-.25-.6s.1-.45.25-.6.37-.25.6-.25Z"/>
        <path class="cls-4" d="M78.53,233.98c0,.21-.08.39-.22.53s-.32.22-.53.22-.39-.08-.53-.22-.22-.32-.22-.53.08-.39.22-.53c.14-.14.32-.22.53-.22s.39.08.53.22c.14.14.22.32.22.53Z"/>
        <path class="cls-4" d="M48.6,225.34c.26,0,.49.1.65.27s.27.4.27.65-.1.49-.27.65c-.17.17-.4.27-.65.27s-.49-.1-.65-.27-.27-.4-.27-.65.1-.49.27-.65c.17-.17.4-.27.65-.27Z"/>
        <path class="cls-4" d="M20.37,215.61c.3,0,.58.12.78.32s.32.47.32.78-.12.58-.32.78c-.2.2-.47.32-.78.32s-.58-.12-.78-.32-.32-.47-.32-.78.12-.58.32-.78c.2-.2.47-.32.78-.32Z"/>
        <path class="cls-4" d="M108.2,233.98c0,.23-.09.43-.24.58s-.36.24-.58.24-.43-.09-.58-.24-.24-.36-.24-.58.09-.43.24-.58c.15-.15.36-.24.58-.24s.43.09.58.24c.15.15.24.36.24.58Z"/>
        <path class="cls-4" d="M78.19,225.27c.28,0,.52.11.71.29s.29.43.29.71-.11.52-.29.71c-.18.18-.43.29-.71.29s-.52-.11-.71-.29c-.18-.18-.29-.43-.29-.71s.11-.52.29-.71.43-.29.71-.29Z"/>
        <path class="cls-4" d="M49.97,215.53c.32,0,.62.13.83.34.21.21.34.5.34.83s-.13.62-.34.83-.5.34-.83.34-.62-.13-.83-.34c-.21-.21-.34-.5-.34-.83s.13-.62.34-.83.5-.34.83-.34Z"/>
        <path class="cls-4" d="M22.68,204.02c.37,0,.71.15.95.39.24.24.39.58.39.95s-.15.71-.39.95c-.24.24-.58.39-.95.39s-.71-.15-.95-.39-.39-.58-.39-.95.15-.71.39-.95.58-.39.95-.39Z"/>
        <path class="cls-4" d="M137.87,233.98c0,.25-.1.47-.26.64-.16.16-.39.26-.64.26s-.47-.1-.64-.26c-.16-.16-.26-.39-.26-.64s.1-.47.26-.64.39-.26.64-.26.47.1.64.26.26.39.26.64Z"/>
        <path class="cls-4" d="M107.79,225.2c.3,0,.56.12.76.31s.31.46.31.76-.12.56-.31.76-.46.31-.76.31-.56-.12-.76-.31c-.19-.19-.31-.46-.31-.76s.12-.56.31-.76c.19-.19.46-.31.76-.31Z"/>
        <path class="cls-4" d="M79.56,215.46c.34,0,.65.14.88.36s.36.53.36.88-.14.65-.36.88-.53.36-.88.36-.65-.14-.88-.36-.36-.53-.36-.88.14-.65.36-.88.53-.36.88-.36Z"/>
        <path class="cls-4" d="M52.27,203.96c.39,0,.74.16,1,.41s.41.61.41,1-.16.74-.41,1c-.26.26-.61.41-1,.41s-.74-.16-1-.41-.41-.61-.41-1,.16-.74.41-1c.26-.26.61-.41,1-.41Z"/>
        <path class="cls-4" d="M25.92,190.75c.44,0,.83.18,1.12.46s.46.68.46,1.12-.18.83-.46,1.12-.68.46-1.12.46-.83-.18-1.12-.46-.46-.68-.46-1.12.18-.83.46-1.12.68-.46,1.12-.46Z"/>
        <path class="cls-4" d="M.49,175.94c.48,0,.92.2,1.24.51s.51.75.51,1.24-.2.92-.51,1.24c-.32.32-.75.51-1.24.51s-.92-.2-1.24-.51c-.32-.32-.51-.75-.51-1.24s.2-.92.51-1.24c.32-.32.75-.51,1.24-.51Z"/>
        <path class="cls-4" d="M167.54,233.98c0,.54-.44.98-.98.98-.27,0-.51-.11-.69-.29-.18-.18-.29-.42-.29-.69s.11-.51.29-.69.42-.29.69-.29c.54,0,.98.44.98.98Z"/>
        <circle class="cls-4" cx="137.38" cy="226.27" r="1.14"/>
        <circle class="cls-4" cx="109.16" cy="216.7" r="1.31"/>
        <circle class="cls-4" cx="81.87" cy="205.37" r="1.48"/>
        <circle class="cls-4" cx="55.52" cy="192.33" r="1.65"/>
        <path class="cls-4" d="M31.9,177.69c0,1-.81,1.81-1.81,1.81s-1.81-.81-1.81-1.81.81-1.81,1.81-1.81,1.81.81,1.81,1.81Z"/>
        <path class="cls-4" d="M7.55,161.51c0,1.09-.89,1.98-1.98,1.98s-1.98-.89-1.98-1.98.89-1.98,1.98-1.98,1.98.89,1.98,1.98Z"/>
        <path class="cls-4" d="M197.89,233.98c0,.96-.78,1.73-1.73,1.73s-1.73-.78-1.73-1.73.78-1.73,1.73-1.73,1.73.78,1.73,1.73Z"/>
        <circle class="cls-4" cx="166.98" cy="226.27" r="1.88"/>
        <path class="cls-4" d="M140.77,216.7c0,1.12-.9,2.02-2.02,2.02s-2.02-.9-2.02-2.02.9-2.02,2.02-2.02,2.02.9,2.02,2.02Z"/>
        <circle class="cls-4" cx="111.46" cy="205.37" r="2.16"/>
        <path class="cls-4" d="M87.42,192.33c0,1.27-1.03,2.31-2.31,2.31s-2.31-1.03-2.31-2.31,1.03-2.31,2.31-2.31,2.31,1.03,2.31,2.31Z"/>
        <circle class="cls-4" cx="59.68" cy="177.69" r="2.45"/>
        <path class="cls-4" d="M37.76,161.51c0,1.43-1.16,2.6-2.6,2.6s-2.6-1.16-2.6-2.6,1.16-2.6,2.6-2.6,2.6,1.16,2.6,2.6Z"/>
        <path class="cls-4" d="M14.3,143.88c0,1.51-1.23,2.74-2.74,2.74s-2.74-1.23-2.74-2.74,1.23-2.74,2.74-2.74,2.74,1.23,2.74,2.74Z"/>
        <circle class="cls-4" cx="225.75" cy="233.98" r="2.49"/>
        <circle class="cls-4" cx="196.57" cy="226.27" r="2.61"/>
        <circle class="cls-4" cx="168.35" cy="216.7" r="2.73"/>
        <circle class="cls-4" cx="141.06" cy="205.37" r="2.85"/>
        <circle class="cls-4" cx="114.71" cy="192.33" r="2.97"/>
        <path class="cls-4" d="M92.37,177.69c0,1.71-1.38,3.09-3.09,3.09s-3.09-1.38-3.09-3.09,1.38-3.09,3.09-3.09,3.09,1.38,3.09,3.09Z"/>
        <path class="cls-4" d="M67.97,161.51c0,1.77-1.44,3.21-3.21,3.21s-3.21-1.44-3.21-3.21,1.44-3.21,3.21-3.21,3.21,1.44,3.21,3.21Z"/>
        <path class="cls-4" d="M44.48,143.88c0,1.84-1.49,3.33-3.33,3.33s-3.33-1.49-3.33-3.33,1.49-3.33,3.33-3.33,3.33,1.49,3.33,3.33Z"/>
        <path class="cls-4" d="M21.89,124.87c0,1.91-1.54,3.45-3.45,3.45s-3.45-1.55-3.45-3.45,1.54-3.45,3.45-3.45,3.45,1.54,3.45,3.45Z"/>
        <path class="cls-4" d="M.19,104.57c0,1.97-1.6,3.57-3.57,3.57s-3.57-1.6-3.57-3.57,1.6-3.57,3.57-3.57,3.57,1.6,3.57,3.57Z"/>
        <circle class="cls-4" cx="226.17" cy="226.27" r="3.34"/>
        <path class="cls-4" d="M201.38,216.7c0,1.9-1.54,3.44-3.44,3.44s-3.44-1.54-3.44-3.44,1.54-3.44,3.44-3.44,3.44,1.54,3.44,3.44Z"/>
        <circle class="cls-4" cx="170.65" cy="205.37" r="3.54"/>
        <circle class="cls-4" cx="144.3" cy="192.33" r="3.63"/>
        <path class="cls-4" d="M122.6,177.69c0,2.06-1.67,3.73-3.73,3.73s-3.73-1.67-3.73-3.73,1.67-3.73,3.73-3.73,3.73,1.67,3.73,3.73Z"/>
        <path class="cls-4" d="M98.18,161.51c0,2.11-1.71,3.83-3.83,3.83s-3.83-1.71-3.83-3.83,1.71-3.83,3.83-3.83,3.83,1.71,3.83,3.83Z"/>
        <path class="cls-4" d="M74.67,143.88c0,2.17-1.76,3.92-3.92,3.92s-3.92-1.76-3.92-3.92,1.76-3.92,3.92-3.92,3.92,1.76,3.92,3.92Z"/>
        <path class="cls-4" d="M52.05,124.87c0,2.22-1.8,4.02-4.02,4.02s-4.02-1.8-4.02-4.02,1.8-4.02,4.02-4.02,4.02,1.8,4.02,4.02Z"/>
        <circle class="cls-4" cx="26.21" cy="104.57" r="4.11"/>
        <path class="cls-4" d="M9.47,83.06c0,2.33-1.89,4.21-4.21,4.21s-4.21-1.89-4.21-4.21,1.89-4.21,4.21-4.21,4.21,1.89,4.21,4.21Z"/>
        <path class="cls-4" d="M231.68,216.7c0,2.29-1.86,4.15-4.15,4.15s-4.15-1.86-4.15-4.15,1.86-4.15,4.15-4.15,4.15,1.86,4.15,4.15Z"/>
        <path class="cls-4" d="M204.47,205.37c0,2.33-1.89,4.22-4.22,4.22s-4.22-1.89-4.22-4.22,1.89-4.22,4.22-4.22,4.22,1.89,4.22,4.22Z"/>
        <path class="cls-4" d="M178.19,192.33c0,2.37-1.92,4.29-4.29,4.29s-4.29-1.92-4.29-4.29,1.92-4.29,4.29-4.29,4.29,1.92,4.29,4.29Z"/>
        <path class="cls-4" d="M152.83,177.69c0,2.41-1.96,4.37-4.37,4.37s-4.37-1.96-4.37-4.37,1.96-4.37,4.37-4.37,4.37,1.96,4.37,4.37Z"/>
        <path class="cls-4" d="M128.39,161.51c0,2.45-1.99,4.44-4.44,4.44s-4.44-1.99-4.44-4.44,1.99-4.44,4.44-4.44,4.44,1.99,4.44,4.44Z"/>
        <path class="cls-4" d="M104.86,143.88c0,2.49-2.02,4.51-4.51,4.51s-4.51-2.02-4.51-4.51,2.02-4.51,4.51-4.51,4.51,2.02,4.51,4.51Z"/>
        <path class="cls-4" d="M82.22,124.87c0,2.53-2.05,4.59-4.59,4.59s-4.59-2.05-4.59-4.59,2.05-4.59,4.59-4.59,4.59,2.05,4.59,4.59Z"/>
        <path class="cls-4" d="M60.46,104.57c0,2.57-2.09,4.66-4.66,4.66s-4.66-2.09-4.66-4.66,2.09-4.66,4.66-4.66,4.66,2.09,4.66,4.66Z"/>
        <path class="cls-4" d="M39.59,83.06c0,2.61-2.12,4.73-4.73,4.73s-4.73-2.12-4.73-4.73,2.12-4.73,4.73-4.73,4.73,2.12,4.73,4.73Z"/>
        <path class="cls-4" d="M19.58,60.41c0,2.65-2.15,4.8-4.8,4.8s-4.8-2.15-4.8-4.8,2.15-4.8,4.8-4.8,4.8,2.15,4.8,4.8Z"/>
        <path class="cls-4" d="M.43,36.72c0,2.69-2.18,4.88-4.88,4.88s-4.88-2.18-4.88-4.88,2.18-4.88,4.88-4.88S.43,34.02.43,36.72Z"/>
        <path class="cls-4" d="M234.75,205.37c0,2.71-2.2,4.91-4.91,4.91s-4.91-2.2-4.91-4.91,2.2-4.91,4.91-4.91,4.91,2.2,4.91,4.91Z"/>
        <circle class="cls-4" cx="203.49" cy="192.33" r="4.96"/>
        <circle class="cls-4" cx="178.06" cy="177.69" r="5.01"/>
        <path class="cls-4" d="M158.6,161.51c0,2.79-2.26,5.05-5.05,5.05s-5.05-2.26-5.05-5.05,2.26-5.05,5.05-5.05,5.05,2.26,5.05,5.05Z"/>
        <path class="cls-4" d="M135.04,143.88c0,2.82-2.29,5.1-5.1,5.1s-5.1-2.29-5.1-5.1,2.29-5.1,5.1-5.1,5.1,2.29,5.1,5.1Z"/>
        <circle class="cls-4" cx="107.23" cy="124.87" r="5.15"/>
        <circle class="cls-4" cx="85.4" cy="104.57" r="5.2"/>
        <path class="cls-4" d="M69.7,83.06c0,2.9-2.35,5.25-5.25,5.25s-5.25-2.35-5.25-5.25,2.35-5.25,5.25-5.25,5.25,2.35,5.25,5.25Z"/>
        <path class="cls-4" d="M49.67,60.41c0,2.93-2.37,5.3-5.3,5.3s-5.3-2.37-5.3-5.3,2.37-5.3,5.3-5.3,5.3,2.37,5.3,5.3Z"/>
        <path class="cls-4" d="M30.5,36.72c0,2.96-2.4,5.35-5.35,5.35s-5.35-2.4-5.35-5.35,2.4-5.35,5.35-5.35,5.35,2.4,5.35,5.35Z"/>
        <path class="cls-4" d="M12.18,12.05c0,2.98-2.42,5.4-5.4,5.4S1.38,15.03,1.38,12.05s2.42-5.4,5.4-5.4,5.4,2.42,5.4,5.4Z"/>
        <circle class="cls-4" cx="233.09" cy="192.33" r="5.62"/>
        <path class="cls-4" d="M213.3,177.69c0,3.12-2.53,5.64-5.64,5.64s-5.64-2.53-5.64-5.64,2.53-5.64,5.64-5.64,5.64,2.53,5.64,5.64Z"/>
        <path class="cls-4" d="M188.81,161.51c0,3.13-2.54,5.67-5.67,5.67s-5.67-2.54-5.67-5.67,2.54-5.67,5.67-5.67,5.67,2.54,5.67,5.67Z"/>
        <path class="cls-4" d="M165.23,143.88c0,3.15-2.55,5.7-5.7,5.7s-5.7-2.55-5.7-5.7,2.55-5.7,5.7-5.7,5.7,2.55,5.7,5.7Z"/>
        <circle class="cls-4" cx="136.82" cy="124.87" r="5.72"/>
        <path class="cls-4" d="M120.74,104.57c0,3.17-2.57,5.75-5.75,5.75s-5.75-2.57-5.75-5.75,2.57-5.75,5.75-5.75,5.75,2.57,5.75,5.75Z"/>
        <path class="cls-4" d="M99.82,83.06c0,3.19-2.58,5.77-5.77,5.77s-5.77-2.58-5.77-5.77,2.58-5.77,5.77-5.77,5.77,2.58,5.77,5.77Z"/>
        <path class="cls-4" d="M79.76,60.41c0,3.2-2.6,5.8-5.8,5.8s-5.8-2.6-5.8-5.8,2.6-5.8,5.8-5.8,5.8,2.6,5.8,5.8Z"/>
        <path class="cls-4" d="M60.57,36.72c0,3.22-2.61,5.82-5.82,5.82s-5.82-2.61-5.82-5.82,2.61-5.82,5.82-5.82,5.82,2.61,5.82,5.82Z"/>
        <path class="cls-4" d="M42.22,12.05c0,3.23-2.62,5.85-5.85,5.85s-5.85-2.62-5.85-5.85,2.62-5.85,5.85-5.85,5.85,2.62,5.85,5.85Z"/>
        <path class="cls-4" d="M243.53,177.69c0,3.47-2.81,6.28-6.28,6.28s-6.28-2.81-6.28-6.28,2.81-6.28,6.28-6.28,6.28,2.81,6.28,6.28Z"/>
        <path class="cls-4" d="M219.02,161.51c0,3.47-2.81,6.28-6.28,6.28s-6.28-2.81-6.28-6.28,2.81-6.28,6.28-6.28,6.28,2.81,6.28,6.28Z"/>
        <circle class="cls-4" cx="189.13" cy="143.88" r="6.29"/>
        <circle class="cls-4" cx="166.42" cy="124.87" r="6.29"/>
        <path class="cls-4" d="M150.88,104.57c0,3.47-2.82,6.29-6.29,6.29s-6.29-2.82-6.29-6.29,2.82-6.29,6.29-6.29,6.29,2.82,6.29,6.29Z"/>
        <path class="cls-4" d="M129.93,83.06c0,3.48-2.82,6.29-6.29,6.29s-6.29-2.82-6.29-6.29,2.82-6.29,6.29-6.29,6.29,2.82,6.29,6.29Z"/>
        <path class="cls-4" d="M109.86,60.41c0,3.48-2.82,6.29-6.29,6.29s-6.29-2.82-6.29-6.29,2.82-6.29,6.29-6.29,6.29,2.82,6.29,6.29Z"/>
        <path class="cls-4" d="M90.64,36.72c0,3.48-2.82,6.3-6.3,6.3s-6.3-2.82-6.3-6.3,2.82-6.3,6.3-6.3,6.3,2.82,6.3,6.3Z"/>
        <circle class="cls-4" cx="65.97" cy="12.05" r="6.3"/>
        <circle class="cls-4" cx="242.33" cy="161.51" r="6.9"/>
        <circle class="cls-4" cx="218.72" cy="143.88" r="6.88" transform="translate(28.44 323.69) rotate(-76.72)"/>
        <circle class="cls-4" cx="196.01" cy="124.87" r="6.86"/>
        <circle class="cls-4" cx="174.18" cy="104.57" r="6.83" transform="translate(43.06 259.76) rotate(-80.78)"/>
        <circle class="cls-4" cx="153.24" cy="83.06" r="6.81" transform="translate(-13.85 132.68) rotate(-45)"/>
        <path class="cls-4" d="M139.95,60.41c0,3.75-3.04,6.79-6.79,6.79s-6.79-3.04-6.79-6.79,3.04-6.79,6.79-6.79,6.79,3.04,6.79,6.79Z"/>
        <path class="cls-4" d="M120.7,36.72c0,3.74-3.03,6.77-6.77,6.77s-6.77-3.03-6.77-6.77,3.03-6.77,6.77-6.77,6.77,3.03,6.77,6.77Z"/>
        <path class="cls-4" d="M102.31,12.05c0,3.73-3.02,6.75-6.75,6.75s-6.75-3.02-6.75-6.75,3.02-6.75,6.75-6.75,6.75,3.02,6.75,6.75Z"/>
        <circle class="cls-4" cx="248.32" cy="143.88" r="7.47"/>
        <circle class="cls-4" cx="225.61" cy="124.87" r="7.42"/>
        <circle class="cls-4" cx="203.78" cy="104.57" r="7.38" transform="translate(55.19 278.87) rotate(-76.72)"/>
        <circle class="cls-4" cx="182.83" cy="83.06" r="7.33" transform="translate(-5.18 153.61) rotate(-45)"/>
        <circle class="cls-4" cx="162.75" cy="60.41" r="7.29" transform="translate(66.56 204.93) rotate(-76.72)"/>
        <circle class="cls-4" cx="143.53" cy="36.72" r="7.24" transform="translate(74.82 167.97) rotate(-76.72)"/>
        <circle class="cls-4" cx="125.16" cy="12.05" r="7.2"/>
        <circle class="cls-4" cx="255.2" cy="124.87" r="7.99"/>
        <circle class="cls-4" cx="233.37" cy="104.57" r="7.92"/>
        <circle class="cls-4" cx="212.43" cy="83.06" r="7.85" transform="translate(3.49 174.53) rotate(-45)"/>
        <circle class="cls-4" cx="192.35" cy="60.41" r="7.78" transform="translate(101.9 240.6) rotate(-80.78)"/>
        <circle class="cls-4" cx="173.12" cy="36.72" r="7.72" transform="translate(97.61 196.77) rotate(-76.72)"/>
        <circle class="cls-4" cx="154.75" cy="12.05" r="7.65"/>
        <circle class="cls-4" cx="242.02" cy="83.06" r="8.37" transform="translate(12.15 195.46) rotate(-45)"/>
        <circle class="cls-4" cx="221.94" cy="60.41" r="8.28" transform="translate(112.15 262.54) rotate(-76.72)"/>
        <circle class="cls-4" cx="202.72" cy="36.72" r="8.19" transform="translate(120.41 225.58) rotate(-76.72)"/>
        <circle class="cls-4" cx="184.35" cy="12.05" r="8.1"/>
        <circle class="cls-4" cx="251.54" cy="60.41" r="8.78" transform="translate(151.61 299.02) rotate(-80.78)"/>
        <circle class="cls-4" cx="232.31" cy="36.72" r="8.66" transform="translate(143.21 254.38) rotate(-76.72)"/>
        <circle class="cls-4" cx="213.94" cy="12.05" r="8.55"/>
        <circle class="cls-4" cx="243.54" cy="12.05" r="8.99"/>
      </g>
    </g>
  </g>
  <g id="Capa_13" data-name="Capa 13">
    <g>
      <g>
        <path class="cls-3" d="M127.1,171.18c-12.21,0-24.42,0-36.63,0-4.47,0-5.14-.68-5.14-5.22,0-3.38-.06-6.77.01-10.15.16-6.83-2.79-11.9-8.56-15.4-6.92-4.2-11.04-10.34-12.62-18.22-.36-1.8-.54-3.62-.54-5.46.01-12.27,0-24.53,0-36.8,0-4.01,1.5-5.5,5.5-5.5,8.6,0,17.2,0,25.79,0,3.25,0,4.21,1.06,3.95,4.3-.57,7.14-6.98,13.08-14.18,13.1-2.52,0-5.04-.01-7.57,0-2.03.02-3.03.85-3.06,2.45-.03,1.67.85,2.55,2.9,2.56,1.49,0,2.02.53,1.98,2.03-.09,3.04-.04,6.08-.02,9.11.01,2.02,1,3.24,2.54,3.22,1.54-.01,2.46-1.2,2.48-3.28.02-3.04.01-6.08,0-9.11,0-.98.08-1.99,1.37-1.89,1.25.1,2.9-.98,3.54,1.23,1.86,6.38,6.36,9.68,12.79,10.2,4.19.34,7.92-1.18,10.78-4.35,1.08-1.19,1.69-1.35,2.9-.08,5.89,6.19,14.82,6.03,20.66-.32.89-.97,1.33-.8,2.13.04,6.23,6.48,14.74,6.45,21.04-.1.85-.88,1.25-.73,2.01.06,5.36,5.59,11.36,6.4,18.13,2.44,1.09-.64,1.42-.39,1.42.78-.01,7.62.09,15.25-.07,22.87-.07,3.33-1.57,6.17-4.26,8.3-4.9,3.88-7.38,8.93-7.33,15.21.03,4.76.02,9.52,0,14.27,0,2.59-.86,3.53-3.46,3.66-1.83.09-3.67.04-5.5.04-11.01,0-22.01,0-33.02,0Z"/>
        <path class="cls-3" d="M162.69,81.24c0-4.12-.02-8.24,0-12.36.04-5.41,3.77-9.23,8.96-9.24,5.23-.01,9.04,3.77,9.06,9.14.04,8.53.05,17.06,0,25.59-.03,4.63-2.99,8.04-7.51,8.9-4.04.76-8.17-1.46-9.77-5.29-.54-1.28-.79-2.63-.75-4.02,0-.11,0-.23,0-.34,0-4.12,0-8.24,0-12.36Z"/>
        <path class="cls-3" d="M139.62,81.57c0-4.18-.01-8.37,0-12.55.02-5.43,3.6-9.31,8.64-9.39,5.39-.08,9.28,3.53,9.36,9.05.12,8.6.13,17.2,0,25.79-.08,5.23-4.27,9.15-9.17,8.98-5.07-.18-8.77-4.09-8.82-9.33,0-.11,0-.23,0-.34,0-4.07,0-8.14,0-12.21Z"/>
        <path class="cls-3" d="M134.6,81.61c-.2,4.64.3,9.29-.26,13.91-.58,4.82-4.65,8.23-9.24,7.92-5-.35-8.52-4.03-8.54-9-.02-8.65-.03-17.31,0-25.96.02-4.77,3.57-8.61,8.1-8.84,5.26-.26,9.12,2.83,9.69,7.88.52,4.68.06,9.39.25,14.08Z"/>
        <path class="cls-3" d="M111.29,81.32c0,4.41.04,8.82-.01,13.23-.05,4.43-3.37,7.98-7.88,8.56-4.16.53-8.38-2.2-9.64-6.17-.42-1.32-.24-2.17,1.06-2.98,5.94-3.71,8.89-9.22,9.31-16.13.26-4.28-3.31-8.16-7.61-8.42-.11,0-.23-.01-.34-.02-3.2-.14-3.61-.73-2.65-3.82,1.33-4.3,5.51-6.88,10.05-6.2,4.47.67,7.66,4.28,7.72,8.72,0,.11,0,.23,0,.34,0,4.3,0,8.59,0,12.89Z"/>
        <path class="cls-3" d="M162.37,51.98c-1.09-.07-1.96-.56-2.52-1.51-.57-.97-.67-2.08.08-2.9,4.39-4.82,9.01-9.41,13.81-13.81,1.07-.98,2.52-.72,3.58.35,1.04,1.06,1.2,2.31.35,3.59-.28.42-.63.81-.99,1.18-3.83,3.85-7.68,7.68-11.52,11.53-.78.78-1.61,1.46-2.79,1.58Z"/>
        <path class="cls-3" d="M84.87,48.66c.05,2.48-2.18,3.92-4.07,2.95-.6-.3-1.13-.78-1.61-1.26-3.85-3.83-7.68-7.67-11.52-11.51-.82-.82-1.61-1.7-1.48-2.95.11-1.08.68-1.95,1.71-2.4,1.16-.5,2.27-.3,3.19.54,1.18,1.08,2.29,2.23,3.42,3.36,2.99,2.99,5.98,5.98,8.98,8.97.74.74,1.39,1.53,1.39,2.29Z"/>
        <path class="cls-3" d="M143.78,39.67c-2.21-.04-3.32-1.91-2.41-4.15,1.67-4.13,3.38-8.25,5.08-12.38.57-1.37,1.09-2.77,1.73-4.11.81-1.67,2.15-2.21,3.64-1.56,1.71.74,2.33,2.14,1.61,3.92-2.16,5.35-4.38,10.68-6.56,16.03-.57,1.39-1.46,2.31-3.08,2.25Z"/>
        <path class="cls-3" d="M119.31,23.21c0-2.92-.02-5.85,0-8.77.02-2.19.99-3.23,2.91-3.2,1.85.02,2.8,1.04,2.81,3.13.02,5.9.02,11.81,0,17.71,0,2.07-1.13,3.36-2.86,3.38-1.77.02-2.86-1.21-2.87-3.31-.02-2.98,0-5.96,0-8.94Z"/>
        <path class="cls-3" d="M93.22,17.09c1.38-.05,2.3.65,2.81,1.87,2.25,5.45,4.5,10.91,6.69,16.39.72,1.79.05,3.34-1.52,4.02-1.47.64-2.66.1-3.49-1.8-2.34-5.36-4.64-10.72-6.88-16.12-.98-2.36.17-4.32,2.39-4.36Z"/>
      </g>
      <g>
        <path class="cls-3" d="M84.94,180.12c4.66,0,9.31.02,13.97-.01,1.06,0,1.55.26,1.59,1.45.48,12.52,9.69,23.22,21.99,25.63,14.49,2.84,28.55-6.19,31.98-20.55.41-1.73.72-3.5.71-5.29,0-.9.38-1.24,1.26-1.24,9.57.01,19.15.01,28.72,0,.91,0,1.22.42,1.21,1.28-.02,1.91-.04,3.83,0,5.74.02.9-.39,1.33-1.18,1.62-2.53.94-5.03,1.96-7.56,2.89-.73.27-1.11.7-1.3,1.45-1.13,4.36-2.81,8.5-5.12,12.38-.45.75-.47,1.39-.1,2.19,1.13,2.4,2.15,4.85,3.27,7.26.37.79.28,1.33-.35,1.95-3.2,3.14-6.38,6.3-9.5,9.51-.75.77-1.38.79-2.29.37-2.4-1.12-4.85-2.14-7.26-3.26-.67-.31-1.19-.26-1.82.11-3.92,2.31-8.08,4.06-12.49,5.19-.8.21-1.25.62-1.54,1.39-.92,2.49-1.92,4.95-2.84,7.44-.3.83-.77,1.13-1.64,1.12-4.57-.03-9.14-.03-13.71,0-.83,0-1.26-.31-1.54-1.07-.94-2.53-1.95-5.03-2.89-7.56-.27-.73-.7-1.12-1.46-1.31-4.41-1.12-8.57-2.88-12.49-5.19-.68-.4-1.23-.41-1.94-.08-2.41,1.11-4.86,2.13-7.26,3.25-.87.41-1.48.35-2.18-.37-3.14-3.2-6.31-6.37-9.51-9.51-.68-.66-.75-1.23-.36-2.06,1.12-2.4,2.15-4.85,3.27-7.26.35-.76.31-1.37-.11-2.07-2.33-3.92-4.02-8.1-5.17-12.5-.18-.71-.54-1.11-1.22-1.36-2.49-.92-4.94-1.94-7.44-2.83-1.05-.37-1.4-.96-1.36-2.03.07-1.65.01-3.31.02-4.96,0-1.64.07-1.71,1.68-1.72,4.66,0,9.31,0,13.97,0Z"/>
        <path class="cls-3" d="M127.9,180.12c5.44,0,10.88.02,16.31-.02,1.14,0,1.6.25,1.51,1.55-.58,8.65-7.74,15.96-16.34,16.57-9.21.65-17.45-5.49-19.13-14.26-.15-.77-.16-1.56-.31-2.32-.25-1.19.26-1.54,1.39-1.53,5.52.03,11.05.01,16.57.01Z"/>
      </g>
    </g>
  </g>
</svg>