<?xml version="1.0" encoding="UTF-8"?>
<svg id="Capa_13" data-name="Capa 13" xmlns="http://www.w3.org/2000/svg" xmlns:xlink="http://www.w3.org/1999/xlink" viewBox="0 0 250 250">
  <defs>
    <style>
      .cls-1 {
        fill: #eef0f6;
        filter: url(#outer-glow-1);
        stroke: #fff;
        stroke-miterlimit: 10;
        stroke-width: 7.79px;
      }

      .cls-2 {
        fill: #f49a1a;
        stroke-width: 0px;
      }
    </style>
    <filter id="outer-glow-1" filterUnits="userSpaceOnUse">
      <feOffset dx="0" dy="0"/>
      <feGaussianBlur result="blur" stdDeviation="6.09"/>
      <feFlood flood-color="#000" flood-opacity=".2"/>
      <feComposite in2="blur" operator="in"/>
      <feComposite in="SourceGraphic"/>
    </filter>
  </defs>
  <circle class="cls-1" cx="125" cy="125" r="90.13"/>
  <g>
    <path class="cls-2" d="M115.84,166.31c-11.21,0-22.43,0-33.64,0-.31,0-.63,0-.94,0-1.49-.05-2.22-.8-2.22-2.3,0-7.56,0-15.12,0-22.68,0-1.37,0-2.75,0-4.12.01-1.38.72-2.13,2.1-2.24.34-.03.69-.01,1.03-.01,19.62,0,39.23,0,58.85,0,.25,0,.5.01.75,0,.62-.03.91.22.91.87-.01,4.97-.01,9.93,0,14.9,0,.5-.21.8-.62,1.06-1.1.68-1.61,1.7-1.61,2.99,0,1.09-.02,2.19,0,3.28.05,1.84,1.45,3.26,3.29,3.3,2.22.04,4.44.04,6.65,0,.83-.01,1.2.23,1.14,1.12-.07,1-.03,2-.01,3,.01.6-.24.87-.83.84-.31-.01-.62,0-.94,0-11.31,0-22.61,0-33.92,0ZM118.48,146.21c-5.74,0-11.49,0-17.23,0-1.19,0-1.29.1-1.3,1.27,0,2.09,0,4.18,0,6.27,0,1.24.15,1.38,1.42,1.38,11.43,0,22.85,0,34.28,0,1.28,0,1.48-.19,1.49-1.45,0-2,0-4,0-5.99,0-1.35-.14-1.49-1.52-1.49-5.71,0-11.43,0-17.14,0Z"/>
    <path class="cls-2" d="M86.91,117.4c0-4.59.02-9.18-.02-13.78,0-.8.24-1.16,1.03-1.33,2.3-.47,4.15-1.68,5.52-3.59.43-.59.65-.65,1.13-.02,4,5.2,11.23,5.17,15.26-.07.42-.55.63-.5,1.01.02,3.9,5.32,11.71,5.1,15.34-.03.34-.49.57-.54.96,0,3.87,5.35,11.73,5.18,15.4-.02.38-.54.6-.45.95.03,1.44,1.97,3.35,3.24,5.75,3.75.5.11,1.01.2.92.92-.09.7-.64.57-1.08.58-1.69.02-3.37,0-5.06.01-2.2.03-3.55,1.39-3.57,3.58-.01,1,0,2,0,3,0,1.25.49,2.26,1.55,2.92.52.33.69.72.69,1.31-.01,5.56-.02,11.12,0,16.68,0,.75-.24,1.06-1.03,1.05-2.47-.04-4.94-.03-7.4,0-.71,0-.95-.27-1.12-.93-.87-3.46-2.84-6.13-5.89-8.01-.6-.37-1.05-.41-1.67.05-4.26,3.11-9.89,3.1-14.17-.02-.58-.42-1-.43-1.58-.06-3.06,1.91-5.1,4.56-5.93,8.08-.16.68-.5.89-1.17.89-4.94-.02-9.87-.02-14.81,0-.78,0-1.02-.29-1.01-1.04.02-4.65.01-9.31.01-13.96ZM118.48,122.76c5.05.01,8.97-3.84,8.97-8.82,0-4.89-3.92-8.83-8.86-8.9-4.89-.07-9.05,3.99-9.06,8.84-.01,4.93,3.96,8.87,8.95,8.88Z"/>
    <path class="cls-2" d="M145.24,132.53c0-5.75,0-11.5,0-17.25,0-1.31.02-1.34,1.28-1.34,7.03,0,14.06,0,21.09,0,1.21,0,1.28.07,1.28,1.27,0,11.62,0,23.24.01,34.87,0,.88-.27,1.22-1.18,1.21-7.12-.03-14.25-.02-21.37,0-.84,0-1.14-.27-1.14-1.14.03-5.87.02-11.75.02-17.62ZM152.25,136.73c.09,1.48.93,2.85,2.52,3.66.74.38,1.1.78,1.05,1.63-.05.8.37,1.32,1.23,1.33.85,0,1.3-.53,1.27-1.31-.02-.83.31-1.19,1.04-1.51,1.91-.83,2.85-2.41,2.88-4.45.03-2.08-1.28-3.76-3.26-4.46-.77-.27-1.58-.31-2.39-.38-1.32-.11-2.19-1.09-2.11-2.3.08-1.23,1.01-2.08,2.32-2.11,1.46-.03,2.17.58,2.54,2.19.21.93.7,1.36,1.43,1.26.79-.11,1.24-.71,1.13-1.65-.19-1.64-.93-3.01-2.43-3.78-.79-.4-1.19-.83-1.14-1.76.05-.82-.52-1.28-1.31-1.25-.8.03-1.25.49-1.19,1.26.06.88-.35,1.24-1.11,1.56-1.94.82-2.95,2.66-2.81,4.85.12,1.89,1.4,3.45,3.35,4.08.78.25,1.6.24,2.4.37,1.12.17,1.86.92,1.93,1.96.09,1.27-.71,2.26-1.96,2.43-1.5.21-2.56-.6-2.83-2.17-.16-.89-.69-1.41-1.38-1.35-.72.07-1.16.65-1.16,1.87Z"/>
    <path class="cls-2" d="M118.47,91.84c-1.91,0-3.81-.02-5.72,0-.81.01-1.09-.31-1.06-1.12.21-4.74.39-9.48.59-14.22.06-1.33.12-1.38,1.4-1.38,3.31,0,6.62,0,9.93,0,.64,0,1.07.09,1.09.89.17,4.87.38,9.73.56,14.6.04,1.19,0,1.22-1.18,1.23-1.87,0-3.75,0-5.62,0Z"/>
    <path class="cls-2" d="M134.72,91.84c-1.84,0-3.68,0-5.52,0-1.23,0-1.3-.07-1.37-1.33-.08-1.49-.07-2.99-.16-4.49-.19-3.24-.26-6.48-.42-9.72-.05-.9.24-1.21,1.15-1.2,3.37.04,6.74.03,10.11,0,.75,0,1.07.27,1.16.99.57,4.92,1.15,9.84,1.76,14.75.1.8-.21.99-.9.98-1.93-.02-3.87,0-5.8,0Z"/>
    <path class="cls-2" d="M102.34,91.83c-1.94,0-3.87-.02-5.81,0-.78.01-1.05-.27-.95-1.07.62-4.89,1.24-9.78,1.8-14.67.09-.77.39-1,1.12-.99,3.4.02,6.81.02,10.21,0,.68,0,1.04.17,1.01.95-.21,4.99-.4,9.98-.58,14.97-.03.71-.45.8-1,.8-1.94,0-3.87,0-5.81,0Z"/>
    <path class="cls-2" d="M86.29,91.83c-1.81,0-3.62,0-5.43,0-1.07,0-1.15-.11-.74-1.05,1.6-3.73,3.17-7.47,4.82-11.18,1.32-2.99,3.49-4.74,6.94-4.49.68.05,1.37.02,2.06,0,.66-.02.95.15.85.92-.62,4.95-1.2,9.9-1.77,14.86-.08.71-.42.95-1.1.94-1.87-.02-3.75,0-5.62,0Z"/>
    <path class="cls-2" d="M150.66,91.83c-1.84,0-3.68,0-5.52,0-.67,0-1-.21-1.08-.94-.52-4.49-1.11-8.96-1.63-13.45-.26-2.32-.21-2.33,2.11-2.32.81,0,1.63-.04,2.43.08,2.81.4,4.27,2.36,5.31,4.75,1.39,3.2,2.76,6.42,4.13,9.63.04.09.07.17.11.26.91,2.12,1.11,1.99-1.37,2-1.5,0-2.99,0-4.49,0h0Z"/>
    <path class="cls-2" d="M157,106.42c4.16,0,8.31,0,12.47,0,1.39,0,1.56.18,1.56,1.57,0,.75-.01,1.5,0,2.25.01.79-.39,1.14-1.15,1.15-.19,0-.37,0-.56,0-8.15,0-16.31,0-24.46,0-1.64,0-1.84-.2-1.85-1.82,0-.59-.01-1.19,0-1.78.03-1.08.32-1.37,1.43-1.37,4.19,0,8.37,0,12.56,0Z"/>
    <path class="cls-2" d="M157.04,153.84c4.16,0,8.31,0,12.47,0,1.34,0,1.52.18,1.52,1.51,0,.78,0,1.56,0,2.34,0,.74-.39,1.08-1.1,1.11-.22,0-.44,0-.66,0-8.15,0-16.31,0-24.46,0-1.58,0-1.8-.22-1.81-1.77,0-.62-.01-1.25,0-1.87.03-1.03.33-1.32,1.37-1.32,4.22,0,8.44,0,12.65,0Z"/>
    <path class="cls-2" d="M85.95,94.41c1.94,0,3.87.01,5.81,0,.67,0,.8.23.61.85-.8,2.68-3.55,4.69-6.46,4.7-2.97,0-5.72-1.99-6.56-4.69-.23-.74.06-.86.7-.86,1.97.02,3.93,0,5.9,0Z"/>
    <path class="cls-2" d="M102.26,94.41c1.9,0,3.8.02,5.7,0,.73-.01.95.2.71.93-.86,2.62-3.5,4.58-6.31,4.62-2.93.05-5.7-1.82-6.61-4.47-.32-.93-.23-1.06.8-1.07,1.9,0,3.8,0,5.7,0Z"/>
    <path class="cls-2" d="M134.78,94.41c1.96,0,3.93.02,5.89,0,.7,0,.87.23.67.89-.79,2.67-3.6,4.68-6.57,4.66-2.89-.02-5.7-2.09-6.44-4.71-.18-.65.02-.84.65-.84,1.93.02,3.86,0,5.8,0Z"/>
    <path class="cls-2" d="M151.25,94.41c1.87,0,3.74,0,5.61,0,.99,0,1.08.15.73,1.1-.99,2.67-3.64,4.48-6.54,4.44-2.77-.03-5.4-1.91-6.32-4.49-.32-.89-.23-1.04.71-1.05,1.93-.01,3.87,0,5.8,0Z"/>
    <path class="cls-2" d="M118.56,94.41c1.93,0,3.87.02,5.8,0,.73-.01.85.26.65.91-.79,2.6-3.55,4.62-6.39,4.64-2.96.03-5.74-1.94-6.59-4.63-.21-.66-.06-.92.65-.91,1.96.02,3.93,0,5.89,0Z"/>
    <path class="cls-2" d="M157.1,166.3c-2.89,0-2.91,0-2.89-2.89.01-2.24-.33-2.04,2.04-2.06.97,0,1.93,0,2.9,0,.54,0,.8.23.8.78-.01,1.12-.01,2.25,0,3.37,0,.55-.25.8-.79.79-.69-.01-1.37,0-2.06,0Z"/>
  </g>
</svg>