<?xml version="1.0" encoding="UTF-8"?>
<svg id="Capa_13" data-name="Capa 13" xmlns="http://www.w3.org/2000/svg" viewBox="0 0 250 67.27">
  <defs>
    <style>
      .cls-1 {
        fill: #283381;
      }

      .cls-1, .cls-2, .cls-3 {
        stroke-width: 0px;
      }

      .cls-2 {
        fill: #1a1a1a;
      }

      .cls-3 {
        fill: #fff;
      }
    </style>
  </defs>
  <g>
    <g>
      <path class="cls-1" d="M20.23,55.38c-2.32,0-4.39-.57-6.22-1.72-1.83-1.14-3.27-2.7-4.34-4.67-1.07-1.97-1.6-4.18-1.6-6.63s.53-4.66,1.6-6.63c1.06-1.97,2.51-3.53,4.34-4.67,1.83-1.14,3.9-1.72,6.22-1.72s4.25.45,6.08,1.36c1.83.91,3.22,2.14,4.17,3.7l-2.72,3.34c-.51-.73-1.16-1.4-1.95-2-.79-.6-1.64-1.08-2.53-1.43-.89-.35-1.75-.52-2.57-.52-1.53,0-2.88.37-4.08,1.12-1.19.75-2.14,1.77-2.84,3.08-.7,1.3-1.05,2.77-1.05,4.39s.37,3.08,1.1,4.36c.73,1.29,1.7,2.31,2.91,3.08,1.21.76,2.54,1.14,4,1.14.86,0,1.69-.14,2.5-.43s1.6-.72,2.36-1.29c.76-.57,1.48-1.27,2.15-2.1l2.72,3.34c-1.02,1.43-2.47,2.61-4.36,3.53-1.89.92-3.85,1.38-5.89,1.38Z"/>
      <path class="cls-1" d="M45.16,55.38c-2.45,0-4.63-.56-6.56-1.69-1.92-1.13-3.44-2.67-4.55-4.62-1.11-1.96-1.67-4.19-1.67-6.7s.56-4.74,1.67-6.7c1.11-1.95,2.63-3.5,4.55-4.62,1.92-1.13,4.11-1.69,6.56-1.69s4.58.56,6.51,1.69c1.92,1.13,3.44,2.67,4.55,4.62,1.11,1.95,1.67,4.19,1.67,6.7s-.56,4.74-1.67,6.7c-1.11,1.95-2.63,3.5-4.55,4.62-1.92,1.13-4.09,1.69-6.51,1.69ZM45.16,50.9c1.49,0,2.83-.37,4.01-1.12,1.18-.75,2.1-1.76,2.77-3.05.67-1.29.98-2.74.95-4.36.03-1.65-.29-3.12-.95-4.41-.67-1.29-1.59-2.3-2.77-3.03-1.18-.73-2.51-1.1-4.01-1.1s-2.84.37-4.03,1.12c-1.19.75-2.12,1.76-2.79,3.05-.67,1.29-.99,2.74-.95,4.36-.03,1.62.29,3.08.95,4.36.67,1.29,1.6,2.3,2.79,3.05,1.19.75,2.53,1.12,4.03,1.12Z"/>
      <path class="cls-1" d="M98.44,34.07c-.62-1.56-1.54-2.72-2.77-3.48-1.22-.76-2.77-1.14-4.65-1.14-.86,0-1.73.14-2.62.43-.89.29-1.73.68-2.53,1.19-.79.51-1.5,1.09-2.12,1.74-.57.6-1.02,1.23-1.36,1.89-.3-.91-.7-1.72-1.19-2.39-.7-.95-1.59-1.67-2.67-2.15-1.08-.48-2.34-.72-3.77-.72-.99,0-1.95.18-2.88.52-.94.35-1.81.82-2.62,1.41-.81.59-1.49,1.26-2.05,2.03-.11.15-.21.31-.31.46v-3.99h-4.96v25.03h4.96v-15.07c0-.83.16-1.6.48-2.31.32-.72.76-1.34,1.33-1.86.57-.52,1.24-.94,2-1.24.76-.3,1.59-.45,2.48-.45,1.05,0,1.94.24,2.67.72.73.48,1.29,1.17,1.67,2.07.38.91.57,2.01.57,3.31v14.83h4.96v-14.97c0-.86.16-1.64.48-2.36.32-.72.76-1.34,1.33-1.88.57-.54,1.25-.96,2.03-1.26.78-.3,1.61-.45,2.5-.45,1.14,0,2.08.22,2.81.67.73.45,1.28,1.12,1.64,2.03.37.91.55,2.07.55,3.5v14.73h4.96v-15.02c0-2.32-.31-4.26-.93-5.82Z"/>
      <path class="cls-1" d="M127.36,41.46c.03-1.75-.23-3.36-.79-4.84-.56-1.48-1.35-2.76-2.38-3.84-1.03-1.08-2.25-1.93-3.65-2.55-1.4-.62-2.91-.93-4.53-.93-1.84,0-3.55.33-5.13.98-1.57.65-2.92,1.57-4.05,2.77-1.13,1.19-2.01,2.6-2.65,4.22-.64,1.62-.95,3.42-.95,5.39,0,2.48.56,4.67,1.69,6.58,1.13,1.91,2.69,3.41,4.67,4.51,1.99,1.1,4.27,1.64,6.84,1.64,1.18,0,2.38-.17,3.6-.5,1.22-.33,2.38-.79,3.48-1.36,1.1-.57,2.03-1.24,2.79-2l-2.48-3.48c-1.24,1.08-2.39,1.83-3.46,2.24-1.07.41-2.22.62-3.46.62-1.75,0-3.29-.35-4.62-1.05-1.33-.7-2.37-1.69-3.1-2.98-.55-.97-.9-2.08-1.03-3.31h19.15l.05-2.1ZM111.67,34.81c1.18-.65,2.62-.98,4.34-.98,1.08,0,2.08.24,3,.71.92.48,1.68,1.13,2.29,1.96.6.83.95,1.76,1.05,2.81v.33h-14c.15-.72.37-1.39.65-1.98.6-1.26,1.49-2.21,2.67-2.86Z"/>
    </g>
    <g>
      <path class="cls-2" d="M20.23,55.38c-2.32,0-4.39-.57-6.22-1.72-1.83-1.14-3.27-2.7-4.34-4.67-1.07-1.97-1.6-4.18-1.6-6.63s.53-4.66,1.6-6.63c1.06-1.97,2.51-3.53,4.34-4.67,1.83-1.14,3.9-1.72,6.22-1.72s4.25.45,6.08,1.36c1.83.91,3.22,2.14,4.17,3.7l-2.72,3.34c-.51-.73-1.16-1.4-1.95-2-.79-.6-1.64-1.08-2.53-1.43-.89-.35-1.75-.52-2.57-.52-1.53,0-2.88.37-4.08,1.12-1.19.75-2.14,1.77-2.84,3.08-.7,1.3-1.05,2.77-1.05,4.39s.37,3.08,1.1,4.36c.73,1.29,1.7,2.31,2.91,3.08,1.21.76,2.54,1.14,4,1.14.86,0,1.69-.14,2.5-.43s1.6-.72,2.36-1.29c.76-.57,1.48-1.27,2.15-2.1l2.72,3.34c-1.02,1.43-2.47,2.61-4.36,3.53-1.89.92-3.85,1.38-5.89,1.38Z"/>
      <path class="cls-2" d="M45.16,55.38c-2.45,0-4.63-.56-6.56-1.69-1.92-1.13-3.44-2.67-4.55-4.62-1.11-1.96-1.67-4.19-1.67-6.7s.56-4.74,1.67-6.7c1.11-1.95,2.63-3.5,4.55-4.62,1.92-1.13,4.11-1.69,6.56-1.69s4.58.56,6.51,1.69c1.92,1.13,3.44,2.67,4.55,4.62,1.11,1.95,1.67,4.19,1.67,6.7s-.56,4.74-1.67,6.7c-1.11,1.95-2.63,3.5-4.55,4.62-1.92,1.13-4.09,1.69-6.51,1.69ZM45.16,50.9c1.49,0,2.83-.37,4.01-1.12,1.18-.75,2.1-1.76,2.77-3.05.67-1.29.98-2.74.95-4.36.03-1.65-.29-3.12-.95-4.41-.67-1.29-1.59-2.3-2.77-3.03-1.18-.73-2.51-1.1-4.01-1.1s-2.84.37-4.03,1.12c-1.19.75-2.12,1.76-2.79,3.05-.67,1.29-.99,2.74-.95,4.36-.03,1.62.29,3.08.95,4.36.67,1.29,1.6,2.3,2.79,3.05,1.19.75,2.53,1.12,4.03,1.12Z"/>
      <path class="cls-2" d="M98.44,34.07c-.62-1.56-1.54-2.72-2.77-3.48-1.22-.76-2.77-1.14-4.65-1.14-.86,0-1.73.14-2.62.43-.89.29-1.73.68-2.53,1.19-.79.51-1.5,1.09-2.12,1.74-.57.6-1.02,1.23-1.36,1.89-.3-.91-.7-1.72-1.19-2.39-.7-.95-1.59-1.67-2.67-2.15-1.08-.48-2.34-.72-3.77-.72-.99,0-1.95.18-2.88.52-.94.35-1.81.82-2.62,1.41-.81.59-1.49,1.26-2.05,2.03-.11.15-.21.31-.31.46v-3.99h-4.96v25.03h4.96v-15.07c0-.83.16-1.6.48-2.31.32-.72.76-1.34,1.33-1.86.57-.52,1.24-.94,2-1.24.76-.3,1.59-.45,2.48-.45,1.05,0,1.94.24,2.67.72.73.48,1.29,1.17,1.67,2.07.38.91.57,2.01.57,3.31v14.83h4.96v-14.97c0-.86.16-1.64.48-2.36.32-.72.76-1.34,1.33-1.88.57-.54,1.25-.96,2.03-1.26.78-.3,1.61-.45,2.5-.45,1.14,0,2.08.22,2.81.67.73.45,1.28,1.12,1.64,2.03.37.91.55,2.07.55,3.5v14.73h4.96v-15.02c0-2.32-.31-4.26-.93-5.82Z"/>
      <path class="cls-2" d="M127.36,41.46c.03-1.75-.23-3.36-.79-4.84-.56-1.48-1.35-2.76-2.38-3.84-1.03-1.08-2.25-1.93-3.65-2.55-1.4-.62-2.91-.93-4.53-.93-1.84,0-3.55.33-5.13.98-1.57.65-2.92,1.57-4.05,2.77-1.13,1.19-2.01,2.6-2.65,4.22-.64,1.62-.95,3.42-.95,5.39,0,2.48.56,4.67,1.69,6.58,1.13,1.91,2.69,3.41,4.67,4.51,1.99,1.1,4.27,1.64,6.84,1.64,1.18,0,2.38-.17,3.6-.5,1.22-.33,2.38-.79,3.48-1.36,1.1-.57,2.03-1.24,2.79-2l-2.48-3.48c-1.24,1.08-2.39,1.83-3.46,2.24-1.07.41-2.22.62-3.46.62-1.75,0-3.29-.35-4.62-1.05-1.33-.7-2.37-1.69-3.1-2.98-.55-.97-.9-2.08-1.03-3.31h19.15l.05-2.1ZM111.67,34.81c1.18-.65,2.62-.98,4.34-.98,1.08,0,2.08.24,3,.71.92.48,1.68,1.13,2.29,1.96.6.83.95,1.76,1.05,2.81v.33h-14c.15-.72.37-1.39.65-1.98.6-1.26,1.49-2.21,2.67-2.86Z"/>
    </g>
  </g>
  <g>
    <g>
      <path class="cls-1" d="M188.86,54.91v-29.18l4.91-2.35v31.53h-4.91Z"/>
      <path class="cls-1" d="M217.42,29.87v3.82c-.51-.81-1.13-1.54-1.88-2.18-.81-.68-1.76-1.22-2.84-1.6-1.08-.38-2.27-.57-3.58-.57-2.19,0-4.17.56-5.94,1.67-1.76,1.11-3.16,2.65-4.2,4.6-1.03,1.95-1.55,4.19-1.55,6.7s.51,4.7,1.53,6.67c1.02,1.97,2.38,3.53,4.08,4.67,1.7,1.14,3.58,1.72,5.65,1.72,1.21,0,2.36-.19,3.46-.57,1.1-.38,2.1-.89,3-1.53.91-.64,1.65-1.36,2.24-2.17,0-.01.02-.02.02-.04v3.83h4.96v-25.03h-4.96ZM216.63,46.73c-.65,1.29-1.55,2.3-2.69,3.03-1.14.73-2.46,1.1-3.96,1.1s-2.76-.37-3.89-1.1c-1.13-.73-2.02-1.74-2.67-3.03-.65-1.29-.98-2.76-.98-4.41s.33-3.07.98-4.34c.65-1.27,1.54-2.27,2.67-3,1.13-.73,2.42-1.1,3.89-1.1s2.81.37,3.96,1.1c1.14.73,2.04,1.73,2.69,3,.65,1.27.98,2.72.98,4.34s-.33,3.12-.98,4.41Z"/>
      <polygon class="cls-1" points="241.88 29.87 236.06 29.87 236.06 23.49 231.15 23.49 231.15 29.87 225.95 29.87 225.95 34.64 231.15 34.64 231.15 54.91 236.06 54.91 236.06 34.64 241.88 34.64 241.88 29.87"/>
    </g>
    <g>
      <path class="cls-2" d="M188.86,54.91v-29.18l4.91-2.35v31.53h-4.91Z"/>
      <path class="cls-2" d="M217.42,29.87v3.82c-.51-.81-1.13-1.54-1.88-2.18-.81-.68-1.76-1.22-2.84-1.6-1.08-.38-2.27-.57-3.58-.57-2.19,0-4.17.56-5.94,1.67-1.76,1.11-3.16,2.65-4.2,4.6-1.03,1.95-1.55,4.19-1.55,6.7s.51,4.7,1.53,6.67c1.02,1.97,2.38,3.53,4.08,4.67,1.7,1.14,3.58,1.72,5.65,1.72,1.21,0,2.36-.19,3.46-.57,1.1-.38,2.1-.89,3-1.53.91-.64,1.65-1.36,2.24-2.17,0-.01.02-.02.02-.04v3.83h4.96v-25.03h-4.96ZM216.63,46.73c-.65,1.29-1.55,2.3-2.69,3.03-1.14.73-2.46,1.1-3.96,1.1s-2.76-.37-3.89-1.1c-1.13-.73-2.02-1.74-2.67-3.03-.65-1.29-.98-2.76-.98-4.41s.33-3.07.98-4.34c.65-1.27,1.54-2.27,2.67-3,1.13-.73,2.42-1.1,3.89-1.1s2.81.37,3.96,1.1c1.14.73,2.04,1.73,2.69,3,.65,1.27.98,2.72.98,4.34s-.33,3.12-.98,4.41Z"/>
      <polygon class="cls-2" points="241.88 29.87 236.06 29.87 236.06 23.49 231.15 23.49 231.15 29.87 225.95 29.87 225.95 34.64 231.15 34.64 231.15 54.91 236.06 54.91 236.06 34.64 241.88 34.64 241.88 29.87"/>
    </g>
  </g>
  <g>
    <path class="cls-3" d="M128.36,55.38h13.9S184.09,11.61,241.93,11.76c-15.38-.78-73.26-1.36-113.57,43.62Z"/>
    <polygon class="cls-3" points="129.8 27.42 144.45 38.32 153.17 32.72 143.9 25.71 129.8 25.71 129.8 27.42"/>
    <polygon class="cls-3" points="154.73 46.04 166.52 55.38 183.54 55.38 163.36 39.8 154.73 46.04"/>
  </g>
</svg>