<?xml version="1.0" encoding="UTF-8"?>
<svg id="Capa_13" data-name="Capa 13" xmlns="http://www.w3.org/2000/svg" xmlns:xlink="http://www.w3.org/1999/xlink" viewBox="0 0 250 250">
  <defs>
    <style>
      .cls-1 {
        fill: #eef0f6;
        filter: url(#outer-glow-1);
        stroke: #fff;
        stroke-miterlimit: 10;
        stroke-width: 7.79px;
      }

      .cls-2 {
        fill: #f49a1a;
        stroke-width: 0px;
      }
    </style>
    <filter id="outer-glow-1" filterUnits="userSpaceOnUse">
      <feOffset dx="0" dy="0"/>
      <feGaussianBlur result="blur" stdDeviation="6.09"/>
      <feFlood flood-color="#000" flood-opacity=".2"/>
      <feComposite in2="blur" operator="in"/>
      <feComposite in="SourceGraphic"/>
    </filter>
  </defs>
  <circle class="cls-1" cx="125" cy="125" r="90.13"/>
  <g>
    <path class="cls-2" d="M74.04,132.11v-3.45c.54-2.15,1.8-3.82,3.36-5.37,11.5-11.45,22.97-22.94,34.45-34.42,2.56-2.56,5.13-5.13,7.7-7.69,1.78-1.77,3.89-2.66,6.43-2.65,10.73.02,21.46,0,32.19.01.57,0,1.16,0,1.71.11,4.24.8,7.09,4.26,7.09,8.6,0,10.61-.03,21.22.03,31.83.02,2.92-.99,5.24-3.04,7.28-13.96,13.92-27.89,27.85-41.8,41.81-1.53,1.54-3.2,2.75-5.31,3.3h-3.45c-2.24-.59-3.94-1.96-5.55-3.58-10.09-10.15-20.21-20.27-30.36-30.36-1.58-1.57-2.87-3.25-3.45-5.42ZM120.48,127.69c5.56,0,11.12,0,16.69,0,.52,0,1.03-.02,1.52-.17,1.12-.35,1.87-1.35,1.85-2.51-.01-1.13-.74-2.1-1.82-2.44-.47-.15-.95-.18-1.43-.18-11.21,0-22.43,0-33.64,0-.46,0-.9.03-1.34.16-1.14.34-1.89,1.32-1.9,2.48,0,1.16.74,2.16,1.87,2.5.5.15,1.01.17,1.52.17,5.56,0,11.12,0,16.69,0ZM128.93,141.48c-.02-4.6-3.85-8.4-8.48-8.39-4.61,0-8.44,3.84-8.43,8.43,0,4.6,3.83,8.43,8.43,8.47,4.6.04,8.5-3.88,8.48-8.51ZM120.46,116.99c4.62,0,8.46-3.8,8.47-8.4.01-4.63-3.89-8.54-8.48-8.5-4.61.04-8.42,3.87-8.43,8.47,0,4.59,3.83,8.43,8.44,8.43ZM154.15,95.89c0-2.6-1.93-4.53-4.53-4.53-2.55,0-4.57,2-4.57,4.53,0,2.51,2.07,4.57,4.57,4.57,2.53,0,4.53-2.01,4.53-4.57Z"/>
    <path class="cls-2" d="M120.5,144.7c-1.8,0-3.17-1.32-3.2-3.1-.02-1.82,1.35-3.26,3.14-3.28,1.78-.02,3.2,1.41,3.2,3.22,0,1.79-1.35,3.14-3.14,3.15Z"/>
    <path class="cls-2" d="M123.64,108.52c.01,1.81-1.4,3.25-3.18,3.24-1.75,0-3.15-1.41-3.16-3.17-.01-1.84,1.34-3.21,3.18-3.2,1.8,0,3.15,1.34,3.16,3.13Z"/>
  </g>
</svg>