<?xml version="1.0" encoding="UTF-8"?>
<svg xmlns="http://www.w3.org/2000/svg" xmlns:xlink="http://www.w3.org/1999/xlink" viewBox="0 0 250 250">
  <defs>
    <style>
      .cls-1 {
        opacity: .02;
      }

      .cls-2 {
        fill: none;
      }

      .cls-2, .cls-3 {
        stroke-width: 0px;
      }

      .cls-4 {
        clip-path: url(#clippath);
      }

      .cls-3 {
        fill: #fff;
      }
    </style>
    <clipPath id="clippath">
      <rect class="cls-2" x="-1006.45" y="-1054.75" width="1874.3" height="879.25"/>
    </clipPath>
  </defs>
  <g id="Capa_10" data-name="Capa 10">
    <g class="cls-4">
      <g class="cls-1">
        <path class="cls-3" d="M22.38,233.98s-.02.08-.04.11c-.03.03-.06.04-.11.04s-.08-.02-.11-.04c-.03-.03-.04-.06-.04-.11s.02-.08.04-.11c.03-.03.06-.04.11-.04s.08.02.11.04c.03.03.04.06.04.11Z"/>
        <path class="cls-3" d="M22.85,226.27c0,.05-.02.1-.06.14-.04.04-.09.06-.14.06s-.1-.02-.14-.06-.06-.09-.06-.14.02-.1.06-.14.09-.06.14-.06.1.02.14.06c.04.04.06.09.06.14Z"/>
        <path class="cls-3" d="M81.5,233.98s0,.04-.02.05c-.01.01-.03.02-.05.02s-.04,0-.05-.02c-.01-.01-.02-.03-.02-.05s0-.04.02-.05c.01-.01.03-.02.05-.02s.04,0,.05.02c.01.01.02.03.02.05Z"/>
        <path class="cls-3" d="M52.24,226c.07,0,.14.03.19.08.05.05.08.12.08.19s-.03.14-.08.19c-.05.05-.12.08-.19.08s-.14-.03-.19-.08c-.05-.05-.08-.12-.08-.19s.03-.14.08-.19c.05-.05.12-.08.19-.08Z"/>
        <path class="cls-3" d="M24.02,216.24c.13,0,.25.05.33.14.08.08.14.2.14.33s-.05.25-.14.33c-.08.08-.2.14-.33.14s-.25-.05-.33-.14c-.08-.08-.14-.2-.14-.33s.05-.25.14-.33.2-.14.33-.14Z"/>
        <path class="cls-3" d="M111.17,233.98s-.02.08-.04.11c-.03.03-.06.04-.11.04s-.08-.02-.11-.04c-.03-.03-.04-.06-.04-.11s.02-.08.04-.11c.03-.03.06-.04.11-.04s.08.02.11.04c.03.03.04.06.04.11Z"/>
        <path class="cls-3" d="M81.84,225.93c.09,0,.18.04.24.1.06.06.1.15.1.24s-.04.18-.1.24c-.06.06-.15.1-.24.1s-.18-.04-.24-.1-.1-.15-.1-.24.04-.18.1-.24c.06-.06.15-.1.24-.1Z"/>
        <path class="cls-3" d="M53.61,216.17c.15,0,.28.06.38.16s.16.23.16.38-.06.28-.16.38c-.1.1-.23.16-.38.16s-.28-.06-.38-.16c-.1-.1-.16-.23-.16-.38s.06-.28.16-.38c.1-.1.23-.16.38-.16Z"/>
        <path class="cls-3" d="M26.32,204.64c.2,0,.38.08.52.21s.21.31.21.52-.08.38-.21.52c-.13.13-.31.21-.52.21s-.38-.08-.52-.21c-.13-.13-.21-.31-.21-.52s.08-.38.21-.52.31-.21.52-.21Z"/>
        <path class="cls-3" d="M-.03,191.41c.26,0,.49.1.65.27s.27.4.27.65-.1.49-.27.65-.4.27-.65.27-.49-.1-.65-.27-.27-.4-.27-.65.1-.49.27-.65.4-.27.65-.27Z"/>
        <path class="cls-3" d="M140.84,233.98c0,.06-.03.12-.07.16s-.1.07-.16.07-.12-.03-.16-.07-.07-.1-.07-.16.03-.12.07-.16.1-.07.16-.07.12.03.16.07.07.1.07.16Z"/>
        <path class="cls-3" d="M111.43,225.85c.11,0,.22.05.29.12s.12.18.12.29-.05.22-.12.29c-.08.08-.18.12-.29.12s-.22-.05-.29-.12c-.08-.08-.12-.18-.12-.29s.05-.22.12-.29.18-.12.29-.12Z"/>
        <path class="cls-3" d="M83.21,216.1c.17,0,.32.07.43.18s.18.26.18.43-.07.32-.18.43-.26.18-.43.18-.32-.07-.43-.18c-.11-.11-.18-.26-.18-.43s.07-.32.18-.43c.11-.11.26-.18.43-.18Z"/>
        <path class="cls-3" d="M55.92,204.57c.22,0,.42.09.56.23s.23.34.23.56-.09.42-.23.56c-.14.14-.34.23-.56.23s-.42-.09-.56-.23-.23-.34-.23-.56.09-.42.23-.56c.14-.14.34-.23.56-.23Z"/>
        <path class="cls-3" d="M29.57,191.34c.27,0,.52.11.7.29s.29.43.29.7-.11.52-.29.7-.43.29-.7.29-.52-.11-.7-.29-.29-.43-.29-.7.11-.52.29-.7.43-.29.7-.29Z"/>
        <path class="cls-3" d="M4.14,176.51c.33,0,.62.13.83.35.21.21.35.51.35.83s-.13.62-.35.83-.51.35-.83.35-.62-.13-.83-.35c-.21-.21-.35-.51-.35-.83s.13-.62.35-.83c.21-.21.51-.35.83-.35Z"/>
        <path class="cls-3" d="M170.51,233.98c0,.08-.03.16-.09.21-.05.05-.13.09-.21.09s-.16-.03-.21-.09c-.05-.05-.09-.13-.09-.21s.03-.16.09-.21c.05-.05.13-.09.21-.09s.16.03.21.09c.05.05.09.13.09.21Z"/>
        <path class="cls-3" d="M141.03,225.78c.13,0,.26.05.35.14.09.09.14.21.14.35s-.05.26-.14.35c-.09.09-.21.14-.35.14s-.26-.05-.35-.14c-.09-.09-.14-.21-.14-.35s.05-.26.14-.35c.09-.09.21-.14.35-.14Z"/>
        <path class="cls-3" d="M112.8,216.03c.19,0,.36.08.48.2.12.12.2.29.2.48s-.08.36-.2.48-.29.2-.48.2-.36-.08-.48-.2c-.12-.12-.2-.29-.2-.48s.08-.36.2-.48.29-.2.48-.2Z"/>
        <path class="cls-3" d="M85.51,204.5c.24,0,.46.1.61.25.16.16.25.37.25.61s-.1.46-.25.61c-.16.16-.37.25-.61.25s-.46-.1-.61-.25-.25-.37-.25-.61.1-.46.25-.61.37-.25.61-.25Z"/>
        <path class="cls-3" d="M59.16,191.28c.29,0,.55.12.75.31s.31.45.31.75-.12.55-.31.75c-.19.19-.45.31-.75.31s-.55-.12-.75-.31-.31-.45-.31-.75.12-.55.31-.75c.19-.19.45-.31.75-.31Z"/>
        <path class="cls-3" d="M33.73,176.44c.34,0,.65.14.88.36s.36.54.36.88-.14.65-.36.88c-.23.23-.54.36-.88.36s-.65-.14-.88-.36c-.22-.23-.36-.54-.36-.88s.14-.65.36-.88c.23-.23.54-.36.88-.36Z"/>
        <path class="cls-3" d="M9.22,160.08c.4,0,.75.16,1.01.42.26.26.42.62.42,1.01s-.16.75-.42,1.01c-.26.26-.62.42-1.01.42s-.75-.16-1.01-.42c-.26-.26-.42-.62-.42-1.01s.16-.75.42-1.01c.26-.26.62-.42,1.01-.42Z"/>
        <path class="cls-3" d="M200.18,233.98c0,.1-.04.2-.11.27-.07.07-.16.11-.27.11s-.2-.04-.27-.11c-.07-.07-.11-.16-.11-.27s.04-.2.11-.27.16-.11.27-.11.2.04.27.11.11.16.11.27Z"/>
        <path class="cls-3" d="M170.62,225.71c.16,0,.3.06.4.16s.16.24.16.4-.06.3-.16.4c-.1.1-.24.16-.4.16s-.3-.06-.4-.16-.16-.24-.16-.4.06-.3.16-.4c.1-.1.24-.16.4-.16Z"/>
        <path class="cls-3" d="M142.4,215.96c.21,0,.39.08.53.22.14.14.22.32.22.53s-.08.39-.22.53c-.14.14-.32.22-.53.22s-.39-.08-.53-.22-.22-.32-.22-.53.08-.39.22-.53c.14-.14.32-.22.53-.22Z"/>
        <path class="cls-3" d="M115.11,204.43c.26,0,.49.1.66.27s.27.4.27.66-.1.49-.27.66c-.17.17-.4.27-.66.27s-.49-.1-.66-.27c-.17-.17-.27-.4-.27-.66s.1-.49.27-.66c.17-.17.4-.27.66-.27Z"/>
        <path class="cls-3" d="M88.76,191.21c.31,0,.59.13.79.33s.33.48.33.79-.13.59-.33.79-.48.33-.79.33-.59-.13-.79-.33-.33-.48-.33-.79.13-.59.33-.79.48-.33.79-.33Z"/>
        <path class="cls-3" d="M63.33,176.38c.36,0,.69.15.92.38.24.24.38.56.38.92s-.15.69-.38.92c-.24.24-.56.38-.92.38s-.69-.15-.92-.38c-.24-.24-.38-.56-.38-.92s.15-.69.38-.92c.24-.24.56-.38.92-.38Z"/>
        <path class="cls-3" d="M38.81,160.02c.41,0,.79.17,1.06.44.27.27.44.64.44,1.06s-.17.79-.44,1.06c-.27.27-.64.44-1.06.44s-.79-.17-1.06-.44-.44-.64-.44-1.06.17-.79.44-1.06.64-.44,1.06-.44Z"/>
        <path class="cls-3" d="M15.2,142.2c.46,0,.88.19,1.19.49.3.3.49.72.49,1.19s-.19.88-.49,1.19-.72.49-1.19.49-.88-.19-1.19-.49c-.3-.3-.49-.72-.49-1.19s.19-.88.49-1.19.72-.49,1.19-.49Z"/>
        <path class="cls-3" d="M229.85,233.98c0,.12-.05.24-.13.32s-.19.13-.32.13-.24-.05-.32-.13-.13-.19-.13-.32.05-.24.13-.32.19-.13.32-.13.24.05.32.13.13.19.13.32Z"/>
        <path class="cls-3" d="M200.22,225.64c.18,0,.33.07.45.19s.19.27.19.45-.07.33-.19.45-.27.19-.45.19-.33-.07-.45-.19-.19-.27-.19-.45.07-.33.19-.45.27-.19.45-.19Z"/>
        <path class="cls-3" d="M171.99,215.89c.23,0,.43.09.58.24s.24.35.24.58-.09.43-.24.58-.35.24-.58.24-.43-.09-.58-.24-.24-.35-.24-.58.09-.43.24-.58.35-.24.58-.24Z"/>
        <path class="cls-3" d="M144.7,204.36c.28,0,.53.11.71.29s.29.43.29.71-.11.53-.29.71-.43.29-.71.29-.53-.11-.71-.29-.29-.43-.29-.71.11-.53.29-.71.43-.29.71-.29Z"/>
        <path class="cls-3" d="M118.35,191.15c.33,0,.62.13.84.35.21.21.35.51.35.84s-.13.62-.35.84c-.21.21-.51.35-.84.35s-.62-.13-.84-.35c-.21-.21-.35-.51-.35-.84s.13-.62.35-.84.51-.35.84-.35Z"/>
        <path class="cls-3" d="M92.92,176.32c.38,0,.72.15.97.4s.4.59.4.97-.15.72-.4.97c-.25.25-.59.4-.97.4s-.72-.15-.97-.4c-.25-.25-.4-.59-.4-.97s.15-.72.4-.97.59-.4.97-.4Z"/>
        <path class="cls-3" d="M68.41,159.95c.43,0,.82.17,1.1.46.28.28.46.67.46,1.1s-.17.82-.46,1.1-.67.46-1.1.46-.82-.17-1.1-.46-.46-.67-.46-1.1.17-.82.46-1.1c.28-.28.67-.46,1.1-.46Z"/>
        <path class="cls-3" d="M44.8,142.14c.48,0,.91.19,1.23.51.31.31.51.75.51,1.23s-.19.91-.51,1.23c-.31.31-.75.51-1.23.51s-.91-.19-1.23-.51c-.31-.31-.51-.75-.51-1.23s.19-.91.51-1.23c.31-.31.75-.51,1.23-.51Z"/>
        <path class="cls-3" d="M22.09,122.95c.53,0,1.01.22,1.36.56.35.35.56.83.56,1.36s-.22,1.01-.56,1.36c-.35.35-.83.56-1.36.56s-1.01-.22-1.36-.56c-.35-.35-.56-.83-.56-1.36s.22-1.01.56-1.36c.35-.35.83-.56,1.36-.56Z"/>
        <path class="cls-3" d="M.26,102.47c.58,0,1.11.24,1.49.62.38.38.62.91.62,1.49s-.24,1.11-.62,1.49c-.38.38-.91.62-1.49.62s-1.11-.24-1.49-.62-.62-.91-.62-1.49.24-1.11.62-1.49c.38-.38.91-.62,1.49-.62Z"/>
        <path class="cls-3" d="M229.81,225.56c.2,0,.37.08.5.21.13.13.21.3.21.5s-.08.37-.21.5-.3.21-.5.21-.37-.08-.5-.21-.21-.3-.21-.5.08-.37.21-.5c.13-.13.3-.21.5-.21Z"/>
        <path class="cls-3" d="M201.59,215.82c.25,0,.47.1.63.26s.26.38.26.63-.1.47-.26.63c-.16.16-.38.26-.63.26s-.47-.1-.63-.26c-.16-.16-.26-.38-.26-.63s.1-.47.26-.63c.16-.16.38-.26.63-.26Z"/>
        <path class="cls-3" d="M174.3,204.3c.3,0,.56.12.76.31s.31.46.31.76-.12.56-.31.76-.46.31-.76.31-.56-.12-.76-.31-.31-.46-.31-.76.12-.56.31-.76.46-.31.76-.31Z"/>
        <path class="cls-3" d="M147.95,191.08c.35,0,.66.14.89.37.23.23.37.54.37.89s-.14.66-.37.89c-.23.23-.54.37-.89.37s-.66-.14-.89-.37c-.23-.23-.37-.54-.37-.89s.14-.66.37-.89c.23-.23.54-.37.89-.37Z"/>
        <path class="cls-3" d="M122.52,176.25c.4,0,.75.16,1.01.42s.42.62.42,1.01-.16.75-.42,1.01-.62.42-1.01.42-.75-.16-1.01-.42-.42-.62-.42-1.01.16-.75.42-1.01.62-.42,1.01-.42Z"/>
        <path class="cls-3" d="M98,159.89c.45,0,.85.18,1.14.47.29.29.47.7.47,1.14s-.18.85-.47,1.14c-.29.29-.7.47-1.14.47s-.85-.18-1.14-.47c-.29-.29-.47-.7-.47-1.14s.18-.85.47-1.14c.29-.29.7-.47,1.14-.47Z"/>
        <path class="cls-3" d="M74.39,142.08c.5,0,.95.2,1.27.53s.53.77.53,1.27-.2.95-.53,1.27-.77.53-1.27.53-.95-.2-1.27-.53-.53-.77-.53-1.27.2-.95.53-1.27.77-.53,1.27-.53Z"/>
        <path class="cls-3" d="M51.68,122.89c.55,0,1.04.22,1.4.58.36.36.58.85.58,1.4s-.22,1.04-.58,1.4c-.36.36-.85.58-1.4.58s-1.04-.22-1.4-.58c-.36-.36-.58-.85-.58-1.4s.22-1.04.58-1.4.85-.58,1.4-.58Z"/>
        <path class="cls-3" d="M29.85,102.41c.6,0,1.14.24,1.53.63.39.39.63.93.63,1.53s-.24,1.14-.63,1.53c-.39.39-.93.63-1.53.63s-1.14-.24-1.53-.63c-.39-.39-.63-.93-.63-1.53s.24-1.14.63-1.53c.39-.39.93-.63,1.53-.63Z"/>
        <path class="cls-3" d="M8.91,80.72c.65,0,1.23.26,1.66.69.42.42.69,1.01.69,1.66s-.26,1.23-.69,1.66-1.01.69-1.66.69-1.23-.26-1.66-.69c-.42-.42-.69-1.01-.69-1.66s.26-1.23.69-1.66,1.01-.69,1.66-.69Z"/>
        <path class="cls-3" d="M231.18,215.75c.26,0,.5.11.68.28.17.17.28.41.28.68s-.11.5-.28.68c-.17.17-.41.28-.68.28s-.5-.11-.68-.28-.28-.41-.28-.68.11-.5.28-.68c.17-.17.41-.28.68-.28Z"/>
        <path class="cls-3" d="M203.89,204.23c.31,0,.6.13.8.33.21.21.33.49.33.8s-.13.6-.33.8c-.21.21-.49.33-.8.33s-.6-.13-.8-.33c-.21-.21-.33-.49-.33-.8s.13-.6.33-.8.49-.33.8-.33Z"/>
        <path class="cls-3" d="M177.54,191.02c.36,0,.69.15.93.39.24.24.39.57.39.93s-.15.69-.39.93c-.24.24-.57.39-.93.39s-.69-.15-.93-.39c-.24-.24-.39-.57-.39-.93s.15-.69.39-.93.57-.39.93-.39Z"/>
        <path class="cls-3" d="M152.11,176.19c.41,0,.79.17,1.06.44.27.27.44.64.44,1.06s-.17.79-.44,1.06-.64.44-1.06.44-.79-.17-1.06-.44-.44-.64-.44-1.06.17-.79.44-1.06c.27-.27.64-.44,1.06-.44Z"/>
        <path class="cls-3" d="M127.6,159.83c.46,0,.88.19,1.18.49s.49.72.49,1.18-.19.88-.49,1.19-.72.49-1.18.49-.88-.19-1.19-.49-.49-.72-.49-1.19.19-.88.49-1.18.72-.49,1.19-.49Z"/>
        <path class="cls-3" d="M103.99,142.02c.51,0,.98.21,1.31.54.34.34.54.8.54,1.31s-.21.98-.54,1.31-.8.54-1.31.54-.98-.21-1.31-.54-.54-.8-.54-1.31.21-.98.54-1.31c.34-.34.8-.54,1.31-.54Z"/>
        <path class="cls-3" d="M81.28,122.84c.56,0,1.07.23,1.44.6.37.37.6.88.6,1.44s-.23,1.07-.6,1.44c-.37.37-.88.6-1.44.6s-1.07-.23-1.44-.6-.6-.88-.6-1.44.23-1.07.6-1.44.88-.6,1.44-.6Z"/>
        <path class="cls-3" d="M59.45,102.36c.61,0,1.16.25,1.57.65s.65.95.65,1.57-.25,1.16-.65,1.57c-.4.4-.95.65-1.57.65s-1.16-.25-1.57-.65c-.4-.4-.65-.95-.65-1.57s.25-1.16.65-1.57.95-.65,1.57-.65Z"/>
        <path class="cls-3" d="M38.5,80.67c.66,0,1.26.27,1.69.7s.7,1.03.7,1.69-.27,1.26-.7,1.69c-.43.43-1.03.7-1.69.7s-1.26-.27-1.69-.7-.7-1.03-.7-1.69.27-1.26.7-1.69c.43-.43,1.03-.7,1.69-.7Z"/>
        <path class="cls-3" d="M18.42,57.84c.71,0,1.35.29,1.82.75.47.47.75,1.11.75,1.82s-.29,1.35-.75,1.82c-.47.47-1.11.75-1.82.75s-1.35-.29-1.82-.75c-.47-.47-.75-1.11-.75-1.82s.29-1.35.75-1.82c.47-.47,1.11-.75,1.82-.75Z"/>
        <path class="cls-3" d="M-.8,33.96c.76,0,1.45.31,1.95.81.5.5.81,1.19.81,1.95s-.31,1.45-.81,1.95c-.5.5-1.19.81-1.95.81s-1.45-.31-1.95-.81-.81-1.19-.81-1.95.31-1.45.81-1.95,1.19-.81,1.95-.81Z"/>
        <path class="cls-3" d="M233.49,204.16c.33,0,.63.13.85.35.22.22.35.52.35.85s-.13.63-.35.85-.52.35-.85.35-.63-.14-.85-.35c-.22-.22-.35-.52-.35-.85s.14-.63.35-.85.52-.35.85-.35Z"/>
        <path class="cls-3" d="M207.14,190.95c.38,0,.73.15.98.41s.41.6.41.98-.15.73-.41.98-.6.41-.98.41-.73-.15-.98-.41-.4-.6-.4-.98.15-.73.4-.98.6-.41.98-.41Z"/>
        <path class="cls-3" d="M181.71,176.13c.43,0,.82.17,1.1.46s.46.67.46,1.1-.17.82-.46,1.1c-.28.28-.67.46-1.1.46s-.82-.17-1.1-.46c-.28-.28-.46-.67-.46-1.1s.17-.82.46-1.1.67-.46,1.1-.46Z"/>
        <path class="cls-3" d="M157.19,159.77c.48,0,.91.19,1.23.51s.51.75.51,1.23-.19.91-.51,1.23-.75.51-1.23.51-.91-.19-1.23-.51-.51-.75-.51-1.23.19-.91.51-1.23.75-.51,1.23-.51Z"/>
        <path class="cls-3" d="M133.58,141.96c.53,0,1.01.21,1.35.56s.56.82.56,1.35-.21,1.01-.56,1.35-.82.56-1.35.56-1.01-.21-1.35-.56-.56-.82-.56-1.35.21-1.01.56-1.35.82-.56,1.35-.56Z"/>
        <path class="cls-3" d="M110.87,122.78c.58,0,1.1.23,1.48.61.38.38.61.9.61,1.48s-.23,1.1-.61,1.48c-.38.38-.9.61-1.48.61s-1.1-.23-1.48-.61-.61-.9-.61-1.48.23-1.1.61-1.48.9-.61,1.48-.61Z"/>
        <path class="cls-3" d="M89.04,102.3c.63,0,1.19.25,1.6.66.41.41.66.98.66,1.6s-.25,1.19-.66,1.6c-.41.41-.98.66-1.6.66s-1.19-.25-1.6-.66c-.41-.41-.66-.98-.66-1.6s.25-1.19.66-1.6c.41-.41.98-.66,1.6-.66Z"/>
        <path class="cls-3" d="M68.1,80.61c.68,0,1.29.27,1.73.72s.72,1.05.72,1.73-.27,1.29-.72,1.73c-.44.44-1.05.72-1.73.72s-1.29-.27-1.73-.72c-.44-.44-.72-1.05-.72-1.73s.27-1.29.72-1.73,1.05-.72,1.73-.72Z"/>
        <path class="cls-3" d="M48.02,57.79c.72,0,1.38.29,1.85.77.47.47.77,1.13.77,1.85s-.29,1.38-.77,1.85c-.47.47-1.13.77-1.85.77s-1.38-.29-1.85-.77c-.47-.47-.77-1.13-.77-1.85s.29-1.38.77-1.85c.47-.47,1.13-.77,1.85-.77Z"/>
        <path class="cls-3" d="M28.8,33.92c.77,0,1.47.31,1.98.82.51.51.82,1.21.82,1.98s-.31,1.47-.82,1.98c-.51.51-1.21.82-1.98.82s-1.47-.31-1.98-.82c-.51-.51-.82-1.21-.82-1.98s.31-1.47.82-1.98c.51-.51,1.21-.82,1.98-.82Z"/>
        <path class="cls-3" d="M10.42,9.07c.82,0,1.57.33,2.1.87s.87,1.28.87,2.1-.33,1.57-.87,2.1c-.54.54-1.28.87-2.1.87s-1.57-.33-2.1-.87c-.54-.54-.87-1.28-.87-2.1s.33-1.57.87-2.1c.54-.54,1.28-.87,2.1-.87Z"/>
        <path class="cls-3" d="M236.73,190.88c.4,0,.76.16,1.02.42s.42.62.42,1.02-.16.76-.42,1.02c-.26.26-.62.42-1.02.42s-.76-.16-1.02-.42c-.26-.26-.42-.62-.42-1.02s.16-.76.42-1.02.62-.42,1.02-.42Z"/>
        <path class="cls-3" d="M211.3,176.06c.45,0,.85.18,1.15.48.29.29.48.7.48,1.15s-.18.85-.48,1.15c-.29.29-.7.48-1.15.48s-.85-.18-1.15-.48c-.29-.29-.48-.7-.48-1.15s.18-.85.48-1.15c.29-.29.7-.48,1.15-.48Z"/>
        <path class="cls-3" d="M186.79,159.71c.5,0,.95.2,1.27.53.33.33.53.77.53,1.27s-.2.95-.53,1.27c-.33.33-.77.53-1.27.53s-.95-.2-1.27-.53c-.33-.33-.53-.77-.53-1.27s.2-.95.53-1.27c.33-.33.77-.53,1.27-.53Z"/>
        <path class="cls-3" d="M163.18,141.9c.54,0,1.04.22,1.39.58.36.36.58.85.58,1.39s-.22,1.04-.58,1.39c-.36.36-.85.58-1.39.58s-1.04-.22-1.39-.58c-.36-.36-.58-.85-.58-1.39s.22-1.04.58-1.39.85-.58,1.39-.58Z"/>
        <path class="cls-3" d="M140.47,122.72c.59,0,1.13.24,1.52.63s.63.93.63,1.52-.24,1.13-.63,1.52c-.39.39-.93.63-1.52.63s-1.13-.24-1.52-.63-.63-.93-.63-1.52.24-1.13.63-1.52c.39-.39.93-.63,1.52-.63Z"/>
        <path class="cls-3" d="M118.64,102.25c.64,0,1.22.26,1.64.68.42.42.68,1,.68,1.64s-.26,1.22-.68,1.64c-.42.42-1,.68-1.64.68s-1.22-.26-1.64-.68c-.42-.42-.68-1-.68-1.64s.26-1.22.68-1.64c.42-.42,1-.68,1.64-.68Z"/>
        <path class="cls-3" d="M97.69,80.56c.69,0,1.31.28,1.77.73.45.45.73,1.08.73,1.77s-.28,1.31-.73,1.77c-.45.45-1.08.73-1.77.73s-1.31-.28-1.77-.73c-.45-.45-.73-1.08-.73-1.77s.28-1.31.73-1.77c.45-.45,1.08-.73,1.77-.73Z"/>
        <path class="cls-3" d="M77.61,57.74c.74,0,1.41.3,1.89.78.48.48.78,1.15.78,1.89s-.3,1.41-.78,1.89c-.48.48-1.15.78-1.89.78s-1.41-.3-1.89-.78c-.48-.48-.78-1.15-.78-1.89s.3-1.41.78-1.89c.48-.48,1.15-.78,1.89-.78Z"/>
        <path class="cls-3" d="M58.39,33.87c.79,0,1.5.32,2.01.83s.83,1.23.83,2.01-.32,1.5-.83,2.01-1.23.83-2.01.83-1.5-.32-2.01-.83-.83-1.23-.83-2.01.32-1.5.83-2.01,1.23-.83,2.01-.83Z"/>
        <path class="cls-3" d="M40.02,9.03c.83,0,1.59.34,2.14.88.55.55.88,1.3.88,2.14s-.34,1.59-.88,2.14-1.3.88-2.14.88-1.59-.34-2.14-.88c-.55-.55-.88-1.3-.88-2.14s.34-1.59.88-2.14c.55-.55,1.3-.88,2.14-.88Z"/>
        <path class="cls-3" d="M240.9,176c.47,0,.89.19,1.19.49s.49.73.49,1.19-.19.89-.49,1.19-.73.49-1.19.49-.89-.19-1.19-.49-.49-.73-.49-1.19.19-.89.49-1.19.73-.49,1.19-.49Z"/>
        <path class="cls-3" d="M216.38,159.65c.51,0,.98.21,1.31.54.34.34.54.8.54,1.31s-.21.98-.54,1.31-.8.54-1.31.54-.98-.21-1.31-.54-.54-.8-.54-1.31.21-.98.54-1.31c.34-.34.8-.54,1.31-.54Z"/>
        <path class="cls-3" d="M192.77,141.84c.56,0,1.07.23,1.44.59s.59.88.59,1.44-.23,1.07-.59,1.44-.88.59-1.44.59-1.07-.23-1.44-.59-.59-.88-.59-1.44.23-1.07.59-1.44.88-.59,1.44-.59Z"/>
        <path class="cls-3" d="M170.06,122.67c.61,0,1.16.25,1.56.65s.65.95.65,1.56-.25,1.16-.65,1.56-.95.65-1.56.65-1.16-.25-1.56-.65c-.4-.4-.65-.95-.65-1.56s.25-1.16.65-1.56c.4-.4.95-.65,1.56-.65Z"/>
        <path class="cls-3" d="M148.23,102.2c.66,0,1.25.27,1.68.7.43.43.7,1.02.7,1.68s-.27,1.25-.7,1.68-1.02.7-1.68.7-1.25-.27-1.68-.7-.7-1.02-.7-1.68.27-1.25.7-1.68c.43-.43,1.02-.7,1.68-.7Z"/>
        <path class="cls-3" d="M127.29,80.51c.7,0,1.34.29,1.8.75s.75,1.1.75,1.8-.29,1.34-.75,1.8-1.1.75-1.8.75-1.34-.29-1.8-.75-.75-1.1-.75-1.8.29-1.34.75-1.8c.46-.46,1.1-.75,1.8-.75Z"/>
        <path class="cls-3" d="M107.21,57.69c.75,0,1.43.3,1.92.8.49.49.8,1.17.8,1.92s-.3,1.43-.8,1.92c-.49.49-1.17.8-1.92.8s-1.43-.3-1.92-.8c-.49-.49-.8-1.17-.8-1.92s.3-1.43.8-1.92,1.17-.8,1.92-.8Z"/>
        <path class="cls-3" d="M87.99,33.82c.8,0,1.52.32,2.05.85.52.52.85,1.25.85,2.05s-.32,1.52-.85,2.05c-.52.52-1.25.85-2.05.85s-1.52-.32-2.05-.85c-.52-.52-.85-1.25-.85-2.05s.32-1.52.85-2.05c.52-.52,1.25-.85,2.05-.85Z"/>
        <path class="cls-3" d="M69.61,8.98c.85,0,1.61.34,2.17.9.55.55.9,1.32.9,2.17s-.34,1.61-.9,2.17c-.55.55-1.32.9-2.17.9s-1.61-.34-2.17-.9c-.55-.55-.9-1.32-.9-2.17s.34-1.61.9-2.17,1.32-.9,2.17-.9Z"/>
        <path class="cls-3" d="M245.98,159.59c.53,0,1.01.21,1.36.56s.56.83.56,1.36-.21,1.01-.56,1.36c-.35.35-.83.56-1.36.56s-1.01-.21-1.36-.56c-.35-.35-.56-.83-.56-1.36s.21-1.01.56-1.36.83-.56,1.36-.56Z"/>
        <path class="cls-3" d="M222.37,141.79c.58,0,1.1.23,1.48.61.38.38.61.9.61,1.48s-.23,1.1-.61,1.48c-.38.38-.9.61-1.48.61s-1.1-.23-1.48-.61c-.38-.38-.61-.9-.61-1.48s.23-1.1.61-1.48c.38-.38.9-.61,1.48-.61Z"/>
        <path class="cls-3" d="M199.66,122.61c.62,0,1.19.25,1.6.66.41.41.66.97.66,1.6s-.25,1.19-.66,1.6-.97.66-1.6.66-1.19-.25-1.6-.66c-.41-.41-.66-.97-.66-1.6s.25-1.19.66-1.6c.41-.41.97-.66,1.6-.66Z"/>
        <path class="cls-3" d="M177.83,102.14c.67,0,1.28.27,1.72.71.44.44.71,1.05.71,1.72s-.27,1.28-.71,1.72c-.44.44-1.05.71-1.72.71s-1.28-.27-1.72-.71c-.44-.44-.71-1.05-.71-1.72s.27-1.28.71-1.72c.44-.44,1.05-.71,1.72-.71Z"/>
        <path class="cls-3" d="M156.88,80.46c.72,0,1.37.29,1.84.76.47.47.76,1.12.76,1.84s-.29,1.37-.76,1.84c-.47.47-1.12.76-1.84.76s-1.37-.29-1.84-.76c-.47-.47-.76-1.12-.76-1.84s.29-1.37.76-1.84c.47-.47,1.12-.76,1.84-.76Z"/>
        <path class="cls-3" d="M136.8,57.64c.76,0,1.46.31,1.96.81.5.5.81,1.19.81,1.96s-.31,1.46-.81,1.96c-.5.5-1.19.81-1.96.81s-1.46-.31-1.96-.81-.81-1.19-.81-1.96.31-1.46.81-1.96,1.19-.81,1.96-.81Z"/>
        <path class="cls-3" d="M117.58,33.78c.81,0,1.55.33,2.08.86s.86,1.27.86,2.08-.33,1.55-.86,2.08c-.53.53-1.27.86-2.08.86s-1.55-.33-2.08-.86-.86-1.27-.86-2.08.33-1.55.86-2.08c.53-.53,1.27-.86,2.08-.86Z"/>
        <path class="cls-3" d="M99.21,8.94c.86,0,1.64.35,2.2.91.56.56.91,1.34.91,2.2s-.35,1.64-.91,2.2c-.56.56-1.34.91-2.2.91s-1.64-.35-2.2-.91c-.56-.56-.91-1.34-.91-2.2s.35-1.64.91-2.2c.56-.56,1.34-.91,2.2-.91Z"/>
        <path class="cls-3" d="M254.11,143.88c0,1.19-.96,2.15-2.15,2.15s-2.15-.96-2.15-2.15.96-2.15,2.15-2.15,2.15.96,2.15,2.15Z"/>
        <path class="cls-3" d="M231.57,124.87c0,1.28-1.04,2.32-2.32,2.32s-2.32-1.04-2.32-2.32,1.04-2.32,2.32-2.32,2.32,1.04,2.32,2.32Z"/>
        <path class="cls-3" d="M209.91,104.57c0,1.37-1.11,2.48-2.48,2.48s-2.48-1.11-2.48-2.48,1.11-2.48,2.48-2.48,2.48,1.11,2.48,2.48Z"/>
        <path class="cls-3" d="M189.13,83.06c0,1.46-1.19,2.65-2.65,2.65s-2.65-1.19-2.65-2.65,1.19-2.65,2.65-2.65,2.65,1.19,2.65,2.65Z"/>
        <path class="cls-3" d="M169.21,60.41c0,1.56-1.26,2.82-2.82,2.82s-2.82-1.26-2.82-2.82,1.26-2.82,2.82-2.82,2.82,1.26,2.82,2.82Z"/>
        <path class="cls-3" d="M150.16,36.72c0,1.65-1.34,2.99-2.99,2.99s-2.99-1.34-2.99-2.99,1.34-2.99,2.99-2.99,2.99,1.34,2.99,2.99Z"/>
        <path class="cls-3" d="M131.96,12.05c0,1.74-1.41,3.15-3.15,3.15s-3.15-1.41-3.15-3.15,1.41-3.15,3.15-3.15,3.15,1.41,3.15,3.15Z"/>
        <path class="cls-3" d="M240.05,104.57c0,1.67-1.36,3.03-3.03,3.03s-3.03-1.36-3.03-3.03,1.36-3.03,3.03-3.03,3.03,1.36,3.03,3.03Z"/>
        <path class="cls-3" d="M219.24,83.06c0,1.75-1.42,3.17-3.17,3.17s-3.17-1.42-3.17-3.17,1.42-3.17,3.17-3.17,3.17,1.42,3.17,3.17Z"/>
        <path class="cls-3" d="M199.31,60.41c0,1.83-1.48,3.32-3.32,3.32s-3.32-1.48-3.32-3.32,1.48-3.32,3.32-3.32,3.32,1.48,3.32,3.32Z"/>
        <path class="cls-3" d="M180.23,36.72c0,1.91-1.55,3.46-3.46,3.46s-3.46-1.55-3.46-3.46,1.55-3.46,3.46-3.46,3.46,1.55,3.46,3.46Z"/>
        <path class="cls-3" d="M162,12.05c0,1.99-1.61,3.6-3.6,3.6s-3.6-1.61-3.6-3.6,1.61-3.6,3.6-3.6,3.6,1.61,3.6,3.6Z"/>
        <path class="cls-3" d="M249.36,83.06c0,2.04-1.65,3.69-3.69,3.69s-3.69-1.65-3.69-3.69,1.65-3.69,3.69-3.69,3.69,1.65,3.69,3.69Z"/>
        <path class="cls-3" d="M229.4,60.41c0,2.11-1.71,3.81-3.81,3.81s-3.81-1.71-3.81-3.81,1.71-3.81,3.81-3.81,3.81,1.71,3.81,3.81Z"/>
        <path class="cls-3" d="M210.3,36.72c0,2.17-1.76,3.93-3.93,3.93s-3.93-1.76-3.93-3.93,1.76-3.93,3.93-3.93,3.93,1.76,3.93,3.93Z"/>
        <circle class="cls-3" cx="187.99" cy="12.05" r="4.05"/>
        <path class="cls-3" d="M240.36,36.72c0,2.43-1.97,4.4-4.4,4.4s-4.4-1.97-4.4-4.4,1.97-4.4,4.4-4.4,4.4,1.97,4.4,4.4Z"/>
        <path class="cls-3" d="M222.09,12.05c0,2.49-2.02,4.5-4.5,4.5s-4.5-2.02-4.5-4.5,2.02-4.5,4.5-4.5,4.5,2.02,4.5,4.5Z"/>
        <circle class="cls-3" cx="247.18" cy="12.05" r="4.95"/>
      </g>
    </g>
  </g>
  <g id="Capa_13" data-name="Capa 13">
    <g>
      <path class="cls-3" d="M179.74,22.47c1.66.92,2.9,2.29,4.12,3.72,13.81,16.26,27.63,32.51,41.51,48.72,1.96,2.29,2.83,4.7,1.58,7.52-1.27,2.87-3.8,3.73-6.74,3.73-3.33,0-6.67.09-10-.03-1.87-.07-2.36.61-2.36,2.42.06,17.67.03,35.34.03,53.01,0,26.07,0,52.15,0,78.22,0,5.61-2.11,7.72-7.73,7.73-4.33,0-8.67-.04-13,.03-1.54.02-2.06-.45-1.57-1.99.52-1.6.51-3.28.51-4.95,0-30.61-.1-61.21.06-91.82.04-8.54-5.98-15.9-13.81-17.52-1.52-.31-3.05-.28-4.58-.29-6.47-.02-12.94,0-19.4-.01-2.65,0-2.73-.08-2.73-2.66,0-6.53-.08-13.07.04-19.6.04-2.08-.67-2.67-2.65-2.56-2.73.14-5.47.05-8.2.03-2.86-.02-5.26-.96-6.55-3.72-1.31-2.79-.39-5.17,1.47-7.36,14.01-16.44,28.02-32.88,42.03-49.32,1.13-1.33,2.31-2.59,3.96-3.28h4Z"/>
      <path class="cls-3" d="M22.47,173.35c8-.04,16-.08,24-.12,2,0,4,.03,6,0,1.18-.02,1.72.49,1.7,1.67-.02,1.27,0,2.53,0,3.8.04,3.84,2.28,6.25,5.76,6.24,3.46-.02,5.64-2.43,5.68-6.31.01-1.2.03-2.4,0-3.6-.03-1.25.5-1.8,1.79-1.8,7.94.03,15.87.03,23.81,0,1.31,0,1.78.6,1.76,1.83-.03,1.47-.04,2.94.02,4.4.13,3.21,2.52,5.48,5.69,5.48,3.18,0,5.57-2.26,5.71-5.47.06-1.46.05-2.93.02-4.4-.02-1.22.42-1.84,1.74-1.84,7.94.03,15.87.03,23.81,0,1.29,0,1.82.53,1.8,1.79-.02,1.47-.03,2.94.03,4.4.13,3.27,2.44,5.52,5.63,5.52,3.18,0,5.59-2.22,5.77-5.42.09-1.53.06-3.07.04-4.6-.02-1.17.5-1.68,1.69-1.68,9.47.02,18.94.03,28.41,0,1.89,0,1.72,1.24,1.72,2.45,0,13.94,0,27.87,0,41.81,0,1.13.03,2.27-.01,3.4-.13,3.8-2.63,6.34-6.44,6.55-.4.02-.8.01-1.2.01-45.81,0-91.62,0-137.44.02-3.47,0-6.11-1.13-7.5-4.49v-49.63Z"/>
      <path class="cls-3" d="M22.47,126.12c1.61-3.05,4.14-4.15,7.56-4.14,45.74.06,91.47.04,137.21.04,5.48,0,7.81,2.31,7.81,7.75,0,9.8-.05,19.6.04,29.4.02,2.06-.7,2.62-2.66,2.61-8.87-.08-17.73-.08-26.6,0-1.99.02-2.77-.6-2.63-2.64.15-2.12.08-4.27,0-6.4-.11-3.29-2.6-5.71-5.76-5.69-3.17.02-5.57,2.44-5.65,5.76-.05,2.27-.07,4.53,0,6.8.05,1.56-.64,2.17-2.14,2.13-1.53-.05-3.07,0-4.6,0-18.73,0-37.47,0-56.2,0-3.21,0-3.22-.02-3.22-3.23,0-1.73.02-3.47,0-5.2-.05-3.79-2.38-6.29-5.78-6.26-3.31.04-5.61,2.53-5.66,6.19-.03,2-.11,4.01.02,6,.13,1.95-.64,2.54-2.53,2.53-9.73-.07-19.47-.03-29.2-.03v-35.62Z"/>
      <path class="cls-3" d="M99.28,89.22c5.8,0,11.6-.01,17.4,0,5.07.01,7.53,2.44,7.54,7.45.01,4.07-.03,8.13.02,12.2.02,1.39-.41,2.12-1.92,2.09-2.93-.05-5.87-.04-8.8,0-1.4.02-1.88-.65-1.85-1.96.04-1.8-.03-3.6.01-5.4.03-1.23-.4-1.83-1.73-1.82-7.2.03-14.4.03-21.59,0-1.26,0-1.83.45-1.79,1.75.05,1.86-.02,3.73.01,5.6.02,1.25-.5,1.84-1.77,1.83-3-.02-6-.02-9,0-1.25,0-1.81-.52-1.8-1.8.03-4.53-.07-9.07.05-13.6.1-3.8,2.84-6.29,6.84-6.32,6.13-.05,12.26-.01,18.39-.01Z"/>
    </g>
  </g>
</svg>