<?xml version="1.0" encoding="UTF-8"?>
<svg id="Capa_13" data-name="Capa 13" xmlns="http://www.w3.org/2000/svg" xmlns:xlink="http://www.w3.org/1999/xlink" viewBox="0 0 250 250">
  <defs>
    <style>
      .cls-1 {
        fill: #eef0f6;
        filter: url(#outer-glow-1);
        stroke: #fff;
        stroke-miterlimit: 10;
        stroke-width: 7.79px;
      }

      .cls-2 {
        fill: #f49a1a;
        stroke-width: 0px;
      }
    </style>
    <filter id="outer-glow-1" filterUnits="userSpaceOnUse">
      <feOffset dx="0" dy="0"/>
      <feGaussianBlur result="blur" stdDeviation="6.09"/>
      <feFlood flood-color="#000" flood-opacity=".2"/>
      <feComposite in2="blur" operator="in"/>
      <feComposite in="SourceGraphic"/>
    </filter>
  </defs>
  <circle class="cls-1" cx="125" cy="125" r="90.13"/>
  <g>
    <path class="cls-2" d="M106.28,166.31c.34-1.33,1.09-2.48,1.68-3.7,1.95-4.03,3.98-8.02,5.94-12.04.3-.62.67-.88,1.39-.88,6.48.03,12.95.02,19.43,0,.65,0,1.05.18,1.35.79,2.46,5.03,4.95,10.04,7.43,15.06.12.24.28.47.24.76h-37.45Z"/>
    <path class="cls-2" d="M78.46,166.13c4.39-5.25,8.79-10.49,13.17-15.75.41-.49.84-.68,1.47-.68,4.72.02,9.45,0,14.17.01,1.11,0,1.14.06.66,1.04-2.39,4.83-4.78,9.66-7.16,14.5-.17.35-.33.71-.5,1.07-7.03,0-14.06,0-21.09-.01-.23,0-.56.2-.72-.17Z"/>
    <path class="cls-2" d="M149.72,166.31c-1.68-3.42-3.37-6.84-5.05-10.26-.9-1.82-1.77-3.65-2.69-5.46-.34-.67-.22-.9.55-.9,4.84.02,9.69.01,14.53,0,.49,0,.85.13,1.18.52,4.28,5.14,8.57,10.27,12.85,15.41.17.21.29.45.44.68h-21.81Z"/>
    <path class="cls-2" d="M143.94,89.57c-.68.19-1.34.08-1.99.09-1.73.02-3.45.02-5.18,0-.59,0-.85.2-.8.79.02.27,0,.54,0,.82,0,17.2,0,34.41,0,51.61q0,1.5-1.54,1.5c-6.33,0-12.66,0-18.99,0q-1.41,0-1.41-1.45c0-17.29,0-34.59,0-51.88q0-1.38-1.38-1.38c-2.17,0-4.35,0-6.5,0-.11-.41.14-.53.31-.67,5.93-5.09,11.87-10.16,17.78-15.27.59-.51.98-.45,1.54.03,5.9,5.08,11.81,10.14,17.72,15.21.18.15.38.29.43.61Z"/>
    <path class="cls-2" d="M108.7,128.4c0,4.94-.02,9.87.02,14.81,0,.9-.23,1.2-1.17,1.19-3.81-.05-7.63-.05-11.44,0-.9.01-1.19-.23-1.19-1.17.04-6.51,0-13.02.04-19.53,0-.94-.29-1.22-1.19-1.15-1.05.07-2.12.03-3.18.01-.29,0-.68.14-.84-.15-.17-.31.19-.54.38-.75,2.49-3.01,5-6,7.5-9,1.67-2,3.35-3.99,4.99-6,.41-.5.68-.55,1.12-.02,1.45,1.79,2.93,3.55,4.42,5.3.39.47.56.96.56,1.57-.02,4.97-.01,9.93-.01,14.9Z"/>
    <path class="cls-2" d="M141.3,128.32c0-4.87.01-9.75-.01-14.62,0-.74.18-1.33.67-1.9,1.46-1.7,2.89-3.42,4.31-5.16.42-.52.69-.5,1.12,0,4.17,5.03,8.37,10.05,12.55,15.08.16.2.48.4.33.69-.14.28-.49.15-.75.15-1.03.01-2.06,0-3.09,0q-1.36,0-1.36,1.4c0,6.36,0,12.72,0,19.07q0,1.33-1.34,1.34c-3.78,0-7.57-.02-11.35.02-.84,0-1.08-.26-1.08-1.09.03-5,.02-9.99.02-14.99Z"/>
  </g>
</svg>