<?xml version="1.0" encoding="UTF-8"?>
<svg id="Capa_13" data-name="Capa 13" xmlns="http://www.w3.org/2000/svg" xmlns:xlink="http://www.w3.org/1999/xlink" viewBox="0 0 250 250">
  <defs>
    <style>
      .cls-1 {
        fill: #eef0f6;
        filter: url(#outer-glow-1);
        stroke: #fff;
        stroke-miterlimit: 10;
        stroke-width: 7.79px;
      }

      .cls-2 {
        fill: #f49a1a;
        stroke-width: 0px;
      }
    </style>
    <filter id="outer-glow-1" filterUnits="userSpaceOnUse">
      <feOffset dx="0" dy="0"/>
      <feGaussianBlur result="blur" stdDeviation="6.09"/>
      <feFlood flood-color="#000" flood-opacity=".2"/>
      <feComposite in2="blur" operator="in"/>
      <feComposite in="SourceGraphic"/>
    </filter>
  </defs>
  <circle class="cls-1" cx="125" cy="125" r="90.13"/>
  <path class="cls-2" d="M119.79,176.24l-.32-.19c-.47-2.13-.94-4.27-1.42-6.4-.4-1.77-1.45-2.39-3.19-1.87-2.1.62-4.18,1.28-6.27,1.93l-.32-.19c-.48-2.26-.91-4.52-1.45-6.77-.32-1.34-1.4-1.92-2.75-1.52-2.18.64-4.35,1.35-6.52,2.03l-.32-.19c-.46-2.14-.9-4.28-1.39-6.41-.41-1.77-1.47-2.35-3.2-1.83-2.09.63-4.19,1.26-6.28,1.89l-.32-.19c-.33-2.36-.87-4.68-1.47-6.98-.29-1.12-1.41-1.63-2.55-1.34-.73.19-1.43.48-2.15.66-.42.11-.96.58-1.28.14-.25-.34.26-.78.47-1.14,14.84-25.44,29.7-50.87,44.55-76.31.14-.24.28-.49.44-.72.08-.12.22-.26.34-.27.24-.02.27.22.31.4.18.83.35,1.66.53,2.48.43,1.9,1.44,2.49,3.3,1.93,1.83-.56,3.66-1.11,5.47-1.71.68-.22.96-.05,1.1.64.37,1.84.79,3.68,1.19,5.51.43,1.97,1.43,2.58,3.34,2.01,1.83-.55,3.66-1.11,5.48-1.7.68-.22.96-.04,1.1.65.38,1.9.81,3.8,1.24,5.69.41,1.8,1.42,2.38,3.19,1.85,1.83-.55,3.66-1.09,5.48-1.7.76-.25,1.07-.06,1.22.72.34,1.75.73,3.5,1.12,5.24.51,2.28,1.44,2.81,3.64,2.12,1.67-.53,3.37-.99,5.02-1.57.85-.29,1.16-.07,1.32.78.37,1.94.79,3.87,1.25,5.79.35,1.45,1.42,2.04,2.85,1.66.63-.17,1.25-.42,1.89-.58.46-.12,1.04-.6,1.37-.18.28.35-.27.83-.49,1.22-14.81,25.39-29.63,50.77-44.45,76.15-.14.24-.28.49-.43.73-.11.17-.2.44-.48.36-.2-.06-.22-.29-.26-.47-.21-.98-.39-1.97-.64-2.94-.3-1.14-1.31-1.87-2.41-1.57-2.29.62-4.58,1.27-6.8,2.15ZM145.41,107.7c1.04-2.09.94-4.57-.64-6.93-.45-.67-.52-1.21-.08-1.87.3-.44.51-.93.46-1.5-.08-.9-.69-1.63-1.6-1.88-.91-.25-1.89.13-2.44,1.15-.44.81-.95,1.02-1.86.96-3.3-.22-6.23,1.84-7.26,4.98-.99,3.01.21,6.35,2.91,8.15.36.24.72.51,1.01.83,1.11,1.22.96,3.14-.31,4.19-1.24,1.04-3.1.86-4.1-.42-.79-1.01-.83-2.08-.31-3.26.59-1.34.18-2.52-.93-3.04-1.12-.52-2.22-.06-2.9,1.28-1.24,2.45-1.03,4.86.43,7.13.43.67.53,1.16.09,1.85-.46.73-.68,1.56-.22,2.41.82,1.53,2.76,1.55,3.8-.08.54-.85,1.1-1.03,2.05-.98,5.04.23,8.71-4.82,7.01-9.57-.58-1.62-1.64-2.85-3.1-3.77-1.37-.87-1.84-2.43-1.2-3.75.71-1.45,2.16-2.06,3.7-1.53,1.6.55,2.24,2.35,1.47,4.14-.58,1.33-.23,2.44.94,3.03,1.06.53,2.12.12,3.06-1.53ZM117.55,141.45c-4.46-2.61-8.93-5.21-13.39-7.82-1.08-.63-2.15-1.28-3.25-1.88-1.19-.65-2.4-.2-2.95,1.03-.46,1.03-.06,2.07,1.1,2.75,10.87,6.35,21.75,12.7,32.62,19.05.14.08.27.16.41.22,1.07.45,2.17.06,2.72-.97.59-1.11.23-2.16-1.04-2.9-5.41-3.17-10.82-6.32-16.23-9.48ZM112.74,149.54c-5.22-3.05-10.44-6.1-15.66-9.14-.32-.19-.64-.39-.98-.55-1.04-.51-2.1-.21-2.7.74-.62.99-.42,2.14.52,2.83.3.22.64.4.96.59,10.49,6.13,20.99,12.26,31.49,18.38.32.19.64.39.99.55,1.03.46,2.11.1,2.67-.87.65-1.12.31-2.24-.98-2.99-5.43-3.18-10.87-6.35-16.31-9.53ZM122.12,133.47h0c-2.76-1.61-5.51-3.23-8.28-4.83-1.22-.71-2.51-.42-3.11.64-.58,1.02-.18,2.26.96,2.97.4.25.81.48,1.21.72,4.89,2.86,9.79,5.72,14.68,8.57.3.17.59.36.9.51,1.08.54,2.32.23,2.89-.72.59-.99.27-2.28-.82-2.92-2.8-1.66-5.62-3.29-8.43-4.93Z"/>
</svg>