<?xml version="1.0" encoding="UTF-8"?>
<svg xmlns="http://www.w3.org/2000/svg" xmlns:xlink="http://www.w3.org/1999/xlink" viewBox="0 0 250 250">
  <defs>
    <style>
      .cls-1 {
        opacity: .02;
      }

      .cls-2 {
        fill: none;
      }

      .cls-2, .cls-3, .cls-4, .cls-5 {
        stroke-width: 0px;
      }

      .cls-6 {
        clip-path: url(#clippath);
      }

      .cls-3 {
        fill: #f49a1a;
      }

      .cls-4 {
        fill: #fff;
      }

      .cls-5 {
        fill: #eef0f6;
      }
    </style>
    <clipPath id="clippath">
      <rect class="cls-2" x="-2086.45" y="-1054.75" width="1874.3" height="879.25"/>
    </clipPath>
  </defs>
  <g id="Capa_10" data-name="Capa 10">
    <g class="cls-6">
      <g class="cls-1">
        <circle class="cls-4" cx="7.65" cy="233.98" r="4"/>
        <path class="cls-4" d="M40.49,233.98c0,1.79-1.45,3.25-3.25,3.25s-3.25-1.45-3.25-3.25,1.45-3.25,3.25-3.25,3.25,1.45,3.25,3.25Z"/>
        <circle class="cls-4" cx="8.07" cy="226.27" r="3.4"/>
        <circle class="cls-4" cx="66.84" cy="233.98" r="2.49"/>
        <path class="cls-4" d="M40.34,226.27c0,1.48-1.2,2.67-2.67,2.67s-2.67-1.2-2.67-2.67,1.2-2.67,2.67-2.67,2.67,1.2,2.67,2.67Z"/>
        <path class="cls-4" d="M12.29,216.7c0,1.58-1.28,2.86-2.86,2.86s-2.86-1.28-2.86-2.86,1.28-2.86,2.86-2.86,2.86,1.28,2.86,2.86Z"/>
        <path class="cls-4" d="M98.17,233.98c0,.96-.78,1.73-1.73,1.73s-1.73-.78-1.73-1.73.78-1.73,1.73-1.73,1.73.78,1.73,1.73Z"/>
        <path class="cls-4" d="M69.2,226.27c0,1.07-.87,1.95-1.95,1.95s-1.95-.87-1.95-1.95.87-1.95,1.95-1.95,1.95.87,1.95,1.95Z"/>
        <path class="cls-4" d="M41.19,216.7c0,1.19-.97,2.16-2.16,2.16s-2.16-.97-2.16-2.16.97-2.16,2.16-2.16,2.16.97,2.16,2.16Z"/>
        <circle class="cls-4" cx="11.74" cy="205.37" r="2.37"/>
        <circle class="cls-4" cx="126.03" cy="233.98" r=".98"/>
        <circle class="cls-4" cx="96.85" cy="226.27" r="1.22"/>
        <path class="cls-4" d="M70.09,216.7c0,.81-.65,1.46-1.46,1.46s-1.46-.65-1.46-1.46.65-1.46,1.46-1.46,1.46.65,1.46,1.46Z"/>
        <circle class="cls-4" cx="41.34" cy="205.37" r="1.71"/>
        <circle class="cls-4" cx="14.99" cy="192.33" r="1.95"/>
        <path class="cls-4" d="M155.63,232.25c.48,0,.91.19,1.22.51.31.31.51.75.51,1.22,0,.96-.78,1.73-1.73,1.73s-1.73-.78-1.73-1.73.78-1.73,1.73-1.73Z"/>
        <path class="cls-4" d="M126.45,224.34c.53,0,1.02.22,1.37.57s.57.83.57,1.37-.21,1-.55,1.35c-.35.36-.84.58-1.38.58s-1.02-.22-1.37-.57c-.35-.35-.57-.83-.57-1.37s.22-1.03.58-1.38c.35-.34.83-.55,1.35-.55Z"/>
        <path class="cls-4" d="M98.22,214.57c.59,0,1.12.24,1.51.62.39.39.62.92.62,1.51s-.23,1.11-.61,1.49c-.39.39-.93.64-1.52.64s-1.12-.24-1.51-.62-.62-.92-.62-1.51.24-1.13.64-1.52c.38-.38.91-.61,1.49-.61Z"/>
        <path class="cls-4" d="M70.93,203.04c.64,0,1.23.26,1.65.68.42.42.68,1,.68,1.65s-.25,1.21-.67,1.63c-.42.43-1.01.7-1.66.7s-1.23-.26-1.65-.68-.68-1-.68-1.65.27-1.24.7-1.66c.42-.41,1-.67,1.63-.67Z"/>
        <path class="cls-4" d="M44.58,189.81c.7,0,1.33.28,1.79.74.46.46.74,1.09.74,1.79s-.28,1.31-.72,1.77c-.46.47-1.1.76-1.8.76s-1.33-.28-1.79-.74c-.46-.46-.74-1.09-.74-1.79s.29-1.35.76-1.8c.46-.45,1.08-.72,1.77-.72Z"/>
        <path class="cls-4" d="M19.15,174.96c.75,0,1.43.31,1.93.8.49.49.8,1.18.8,1.93s-.3,1.42-.78,1.91c-.49.5-1.18.82-1.95.82s-1.43-.31-1.93-.8-.8-1.18-.8-1.93.31-1.45.82-1.95c.49-.48,1.17-.78,1.91-.78Z"/>
        <path class="cls-4" d="M185.22,231.49c.69,0,1.31.28,1.76.73.45.45.73,1.07.73,1.76,0,1.37-1.11,2.49-2.49,2.49s-2.49-1.11-2.49-2.49,1.11-2.49,2.49-2.49Z"/>
        <path class="cls-4" d="M156.04,223.63c.73,0,1.39.3,1.87.77.48.48.77,1.14.77,1.87s-.29,1.37-.76,1.85c-.48.49-1.15.79-1.89.79s-1.39-.3-1.87-.77-.77-1.14-.77-1.87.3-1.41.79-1.89c.48-.47,1.13-.76,1.85-.76Z"/>
        <path class="cls-4" d="M127.82,213.91c.77,0,1.47.31,1.98.82.51.51.82,1.21.82,1.98s-.3,1.45-.8,1.96c-.51.52-1.21.84-2,.84s-1.47-.31-1.98-.82-.82-1.21-.82-1.98.32-1.49.84-2c.5-.49,1.2-.8,1.96-.8Z"/>
        <path class="cls-4" d="M100.53,202.41c.81,0,1.55.33,2.09.86s.86,1.27.86,2.09-.32,1.53-.84,2.07c-.54.55-1.28.89-2.11.89s-1.55-.33-2.09-.86c-.53-.53-.86-1.27-.86-2.09s.34-1.57.89-2.11c.53-.52,1.26-.84,2.07-.84Z"/>
        <path class="cls-4" d="M74.18,189.23c.86,0,1.63.35,2.2.91.56.56.91,1.34.91,2.2s-.34,1.61-.89,2.17c-.56.57-1.35.93-2.22.93s-1.63-.35-2.2-.91c-.56-.56-.91-1.34-.91-2.2s.36-1.65.93-2.22c.56-.55,1.33-.89,2.17-.89Z"/>
        <path class="cls-4" d="M48.75,174.43c.9,0,1.72.36,2.31.95.59.59.95,1.4.95,2.31s-.36,1.69-.93,2.28c-.59.6-1.42.98-2.33.98s-1.72-.36-2.31-.95c-.59-.59-.95-1.4-.95-2.31s.37-1.74.98-2.33c.59-.58,1.39-.93,2.28-.93Z"/>
        <path class="cls-4" d="M24.23,158.09c.94,0,1.8.38,2.41,1,.62.62,1,1.47,1,2.41s-.37,1.77-.98,2.39c-.62.63-1.48,1.02-2.44,1.02s-1.8-.38-2.41-1c-.62-.62-1-1.47-1-2.41s.39-1.82,1.02-2.44c.62-.6,1.46-.98,2.39-.98Z"/>
        <path class="cls-4" d="M.62,140.31c.99,0,1.88.4,2.52,1.05.65.65,1.05,1.54,1.05,2.52s-.39,1.85-1.02,2.5c-.65.66-1.55,1.07-2.55,1.07s-1.88-.4-2.52-1.05c-.65-.65-1.05-1.54-1.05-2.52s.41-1.9,1.07-2.55c.64-.63,1.53-1.02,2.5-1.02Z"/>
        <path class="cls-4" d="M214.82,230.74c.9,0,1.71.36,2.29.95.59.59.95,1.4.95,2.29,0,1.79-1.45,3.25-3.25,3.25s-3.25-1.45-3.25-3.25,1.45-3.25,3.25-3.25Z"/>
        <path class="cls-4" d="M185.64,222.91c.93,0,1.77.38,2.37.98.61.61.98,1.45.98,2.37s-.37,1.74-.96,2.35c-.61.62-1.46,1.01-2.4,1.01s-1.77-.38-2.37-.98c-.61-.61-.98-1.45-.98-2.37s.39-1.79,1.01-2.4c.61-.59,1.43-.96,2.35-.96Z"/>
        <path class="cls-4" d="M157.41,213.24c.96,0,1.82.39,2.45,1.01.63.63,1.01,1.49,1.01,2.45s-.38,1.8-.99,2.43c-.63.64-1.5,1.04-2.47,1.04s-1.82-.39-2.45-1.01-1.01-1.49-1.01-2.45.4-1.85,1.04-2.47c.62-.61,1.48-.99,2.43-.99Z"/>
        <path class="cls-4" d="M130.12,201.79c.99,0,1.88.4,2.53,1.05.65.65,1.05,1.54,1.05,2.53s-.39,1.86-1.02,2.5c-.65.66-1.55,1.07-2.55,1.07s-1.88-.4-2.53-1.05-1.05-1.54-1.05-2.53.41-1.9,1.07-2.55c.64-.63,1.53-1.02,2.5-1.02Z"/>
        <path class="cls-4" d="M103.77,188.65c1.02,0,1.94.41,2.6,1.08.67.67,1.08,1.59,1.08,2.6s-.4,1.91-1.05,2.58c-.67.68-1.6,1.1-2.63,1.1s-1.94-.41-2.6-1.08-1.08-1.59-1.08-2.6.42-1.96,1.1-2.63c.66-.65,1.57-1.05,2.58-1.05Z"/>
        <path class="cls-4" d="M78.34,173.89c1.05,0,2,.42,2.68,1.11.69.69,1.11,1.63,1.11,2.68s-.41,1.97-1.08,2.66c-.69.7-1.65,1.14-2.71,1.14s-2-.42-2.68-1.11c-.69-.69-1.11-1.63-1.11-2.68s.44-2.02,1.14-2.71c.68-.67,1.62-1.08,2.66-1.08Z"/>
        <path class="cls-4" d="M53.83,157.61c1.08,0,2.05.44,2.76,1.14.71.71,1.14,1.68,1.14,2.76s-.43,2.03-1.12,2.73c-.71.72-1.7,1.17-2.79,1.17s-2.05-.44-2.76-1.14c-.71-.71-1.14-1.68-1.14-2.76s.45-2.08,1.17-2.79c.7-.69,1.67-1.12,2.73-1.12Z"/>
        <path class="cls-4" d="M30.22,139.86c1.11,0,2.11.45,2.84,1.18s1.18,1.73,1.18,2.84-.44,2.08-1.15,2.81c-.73.74-1.74,1.2-2.86,1.2s-2.11-.45-2.84-1.18c-.73-.73-1.18-1.73-1.18-2.84s.46-2.14,1.2-2.86c.72-.71,1.71-1.15,2.81-1.15Z"/>
        <path class="cls-4" d="M7.51,120.75c1.14,0,2.17.46,2.91,1.21.75.75,1.21,1.78,1.21,2.91s-.45,2.14-1.18,2.89c-.75.76-1.79,1.24-2.94,1.24s-2.17-.46-2.91-1.21c-.75-.75-1.21-1.78-1.21-2.91s.47-2.2,1.24-2.94c.74-.73,1.76-1.18,2.89-1.18Z"/>
        <path class="cls-4" d="M244.41,229.98c1.11,0,2.11.45,2.83,1.17.72.72,1.17,1.72,1.17,2.83,0,2.21-1.79,4-4,4s-4-1.79-4-4,1.79-4,4-4Z"/>
        <path class="cls-4" d="M215.23,222.2c1.12,0,2.14.46,2.88,1.19.74.74,1.19,1.75,1.19,2.88s-.44,2.11-1.16,2.85c-.74.75-1.77,1.22-2.9,1.22s-2.14-.46-2.88-1.19c-.74-.74-1.19-1.75-1.19-2.88s.47-2.17,1.22-2.9c.73-.72,1.74-1.16,2.85-1.16Z"/>
        <path class="cls-4" d="M187.01,212.57c1.14,0,2.17.46,2.92,1.21s1.21,1.78,1.21,2.92-.45,2.15-1.18,2.89c-.75.76-1.79,1.24-2.95,1.24s-2.17-.46-2.92-1.21-1.21-1.78-1.21-2.92.47-2.2,1.24-2.95c.75-.73,1.77-1.18,2.89-1.18Z"/>
        <path class="cls-4" d="M159.72,201.17c1.16,0,2.21.47,2.97,1.23.76.76,1.23,1.81,1.23,2.97s-.46,2.18-1.2,2.94c-.76.78-1.82,1.26-3,1.26s-2.21-.47-2.97-1.23c-.76-.76-1.23-1.81-1.23-2.97s.48-2.24,1.26-3c.76-.74,1.79-1.2,2.94-1.2Z"/>
        <path class="cls-4" d="M133.37,188.07c1.18,0,2.24.48,3.01,1.25.77.77,1.25,1.84,1.25,3.01s-.46,2.21-1.22,2.98c-.77.79-1.85,1.28-3.04,1.28s-2.24-.48-3.01-1.25c-.77-.77-1.25-1.84-1.25-3.01s.49-2.27,1.28-3.04c.77-.75,1.82-1.22,2.98-1.22Z"/>
        <path class="cls-4" d="M107.94,173.36c1.19,0,2.28.48,3.06,1.27s1.27,1.86,1.27,3.06-.47,2.25-1.24,3.03c-.79.8-1.88,1.3-3.09,1.3s-2.28-.48-3.06-1.27-1.27-1.86-1.27-3.06.5-2.3,1.3-3.09c.78-.76,1.85-1.24,3.03-1.24Z"/>
        <path class="cls-4" d="M83.42,157.12c1.21,0,2.31.49,3.1,1.29.79.79,1.29,1.89,1.29,3.1s-.48,2.28-1.26,3.07c-.8.81-1.91,1.32-3.14,1.32s-2.31-.49-3.1-1.29c-.79-.79-1.29-1.89-1.29-3.1s.5-2.34,1.32-3.14c.79-.78,1.88-1.26,3.07-1.26Z"/>
        <path class="cls-4" d="M59.81,139.42c1.23,0,2.34.5,3.15,1.3.81.81,1.3,1.92,1.3,3.15s-.49,2.32-1.27,3.12c-.81.82-1.94,1.34-3.18,1.34s-2.34-.5-3.15-1.31c-.81-.81-1.3-1.92-1.3-3.15s.51-2.37,1.34-3.18c.8-.79,1.9-1.27,3.12-1.27Z"/>
        <path class="cls-4" d="M37.1,120.35c1.25,0,2.38.51,3.2,1.32s1.32,1.95,1.32,3.2-.49,2.35-1.29,3.16c-.82.84-1.96,1.36-3.23,1.36s-2.38-.51-3.2-1.32c-.82-.82-1.32-1.95-1.32-3.2s.52-2.41,1.36-3.23c.82-.8,1.93-1.29,3.16-1.29Z"/>
        <path class="cls-4" d="M15.27,99.99c1.27,0,2.41.51,3.24,1.34.83.83,1.34,1.98,1.34,3.24s-.5,2.38-1.31,3.21c-.83.85-1.99,1.38-3.27,1.38s-2.41-.51-3.24-1.34c-.83-.83-1.34-1.98-1.34-3.24s.53-2.44,1.38-3.27c.83-.81,1.96-1.31,3.21-1.31Z"/>
        <path class="cls-4" d="M244.83,221.49c1.32,0,2.51.53,3.38,1.4.86.86,1.4,2.06,1.4,3.38s-.52,2.48-1.37,3.35c-.87.88-2.08,1.43-3.41,1.43s-2.51-.53-3.38-1.4c-.86-.86-1.4-2.06-1.4-3.38s.55-2.55,1.43-3.41c.86-.84,2.04-1.37,3.35-1.37Z"/>
        <path class="cls-4" d="M216.6,211.91c1.33,0,2.52.54,3.39,1.41s1.41,2.07,1.41,3.39-.52,2.49-1.37,3.36c-.87.89-2.08,1.44-3.43,1.44s-2.52-.54-3.39-1.41c-.87-.87-1.41-2.07-1.41-3.39s.55-2.56,1.44-3.43c.87-.85,2.05-1.37,3.36-1.37Z"/>
        <path class="cls-4" d="M189.31,200.55c1.33,0,2.54.54,3.41,1.41.87.87,1.41,2.08,1.41,3.41s-.53,2.5-1.38,3.37c-.87.89-2.09,1.45-3.44,1.45s-2.54-.54-3.41-1.41c-.87-.87-1.41-2.08-1.41-3.41s.55-2.57,1.45-3.44c.87-.85,2.06-1.38,3.37-1.38Z"/>
        <path class="cls-4" d="M162.96,187.49c1.34,0,2.55.54,3.42,1.42.88.88,1.42,2.09,1.42,3.42s-.53,2.51-1.38,3.39c-.88.9-2.1,1.45-3.46,1.45s-2.55-.54-3.42-1.42-1.42-2.09-1.42-3.42.56-2.58,1.45-3.46c.87-.86,2.07-1.38,3.39-1.38Z"/>
        <path class="cls-4" d="M137.53,172.83c1.34,0,2.56.54,3.44,1.42s1.42,2.09,1.42,3.44-.53,2.52-1.39,3.4c-.88.9-2.11,1.46-3.47,1.46s-2.56-.54-3.44-1.42c-.88-.88-1.42-2.09-1.42-3.44s.56-2.59,1.46-3.47c.88-.86,2.08-1.39,3.4-1.39Z"/>
        <path class="cls-4" d="M113.02,156.63c1.35,0,2.57.55,3.45,1.43.88.88,1.43,2.1,1.43,3.45s-.53,2.54-1.39,3.42c-.89.9-2.12,1.46-3.48,1.46s-2.57-.55-3.45-1.43c-.88-.88-1.43-2.1-1.43-3.45s.56-2.6,1.46-3.48c.88-.86,2.09-1.39,3.42-1.39Z"/>
        <path class="cls-4" d="M89.41,138.98c1.35,0,2.58.55,3.46,1.43.89.89,1.43,2.11,1.43,3.46s-.53,2.55-1.4,3.43c-.89.91-2.13,1.47-3.5,1.47s-2.58-.55-3.46-1.43-1.43-2.11-1.43-3.46.56-2.61,1.47-3.5c.88-.87,2.09-1.4,3.43-1.4Z"/>
        <path class="cls-4" d="M66.69,119.95c1.36,0,2.59.55,3.48,1.44s1.44,2.12,1.44,3.48-.54,2.56-1.41,3.44c-.89.91-2.14,1.48-3.51,1.48s-2.59-.55-3.48-1.44-1.44-2.12-1.44-3.48.56-2.62,1.48-3.51c.89-.87,2.1-1.41,3.44-1.41Z"/>
        <path class="cls-4" d="M44.87,99.63c1.36,0,2.6.55,3.49,1.45.89.89,1.45,2.13,1.45,3.49s-.54,2.57-1.41,3.46c-.9.91-2.15,1.48-3.53,1.48s-2.6-.55-3.49-1.45-1.45-2.13-1.45-3.49.57-2.63,1.48-3.53c.89-.87,2.11-1.41,3.46-1.41Z"/>
        <path class="cls-4" d="M23.92,78.1c1.37,0,2.61.56,3.51,1.45s1.45,2.14,1.45,3.51-.54,2.58-1.42,3.47c-.9.92-2.15,1.49-3.54,1.49s-2.61-.56-3.51-1.45c-.9-.9-1.45-2.14-1.45-3.51s.57-2.64,1.49-3.54c.89-.88,2.12-1.42,3.47-1.42Z"/>
        <path class="cls-4" d="M3.84,55.44c1.37,0,2.62.56,3.52,1.46.9.9,1.46,2.15,1.46,3.52s-.54,2.59-1.42,3.49c-.9.92-2.16,1.49-3.56,1.49s-2.62-.56-3.52-1.46-1.46-2.15-1.46-3.52.57-2.65,1.49-3.56c.9-.88,2.13-1.42,3.49-1.42Z"/>
        <path class="cls-4" d="M246.2,211.24c1.51,0,2.88.61,3.87,1.6s1.6,2.36,1.6,3.87-.6,2.84-1.56,3.83c-.99,1.01-2.37,1.64-3.9,1.64s-2.88-.61-3.87-1.6-1.6-2.36-1.6-3.87.63-2.91,1.64-3.9c.99-.97,2.34-1.56,3.83-1.56Z"/>
        <path class="cls-4" d="M218.91,199.92c1.5,0,2.86.61,3.85,1.59.98.98,1.59,2.34,1.59,3.85s-.59,2.83-1.56,3.81c-.99,1.01-2.36,1.63-3.89,1.63s-2.86-.61-3.85-1.59-1.59-2.34-1.59-3.85.63-2.9,1.63-3.89c.98-.96,2.33-1.56,3.81-1.56Z"/>
        <path class="cls-4" d="M192.56,186.92c1.5,0,2.85.61,3.83,1.59s1.59,2.33,1.59,3.83-.59,2.81-1.55,3.79c-.98,1-2.35,1.62-3.87,1.62s-2.85-.61-3.83-1.59-1.59-2.33-1.59-3.83.62-2.89,1.62-3.87c.98-.96,2.32-1.55,3.79-1.55Z"/>
        <path class="cls-4" d="M167.13,172.3c1.49,0,2.84.6,3.81,1.58.98.98,1.58,2.32,1.58,3.81s-.59,2.8-1.54,3.77c-.98,1-2.34,1.62-3.85,1.62s-2.84-.6-3.81-1.58c-.98-.98-1.58-2.32-1.58-3.81s.62-2.87,1.62-3.85c.97-.95,2.3-1.54,3.77-1.54Z"/>
        <path class="cls-4" d="M142.61,156.14c1.48,0,2.82.6,3.8,1.57.97.97,1.57,2.31,1.57,3.8s-.59,2.79-1.53,3.76c-.97.99-2.33,1.61-3.83,1.61s-2.82-.6-3.8-1.57-1.57-2.31-1.57-3.8.62-2.86,1.61-3.83c.97-.95,2.29-1.53,3.76-1.53Z"/>
        <path class="cls-4" d="M119,138.53c1.48,0,2.81.6,3.78,1.56s1.56,2.3,1.56,3.78-.58,2.78-1.53,3.74c-.97.99-2.32,1.6-3.82,1.6s-2.81-.6-3.78-1.56c-.97-.97-1.56-2.3-1.56-3.78s.61-2.85,1.6-3.82c.96-.94,2.28-1.53,3.74-1.53Z"/>
        <path class="cls-4" d="M96.29,119.55c1.47,0,2.8.6,3.76,1.56.96.96,1.56,2.29,1.56,3.76s-.58,2.76-1.52,3.72c-.97.98-2.31,1.6-3.8,1.6s-2.8-.6-3.76-1.56c-.96-.96-1.56-2.29-1.56-3.76s.61-2.83,1.6-3.8c.96-.94,2.27-1.52,3.72-1.52Z"/>
        <path class="cls-4" d="M74.46,99.28c1.46,0,2.78.59,3.74,1.55.96.96,1.55,2.28,1.55,3.74s-.58,2.75-1.51,3.71c-.96.98-2.3,1.59-3.78,1.59s-2.78-.59-3.74-1.55c-.96-.96-1.55-2.28-1.55-3.74s.61-2.82,1.59-3.78c.95-.94,2.26-1.51,3.71-1.51Z"/>
        <path class="cls-4" d="M53.52,77.79c1.45,0,2.77.59,3.73,1.54s1.54,2.27,1.54,3.73-.57,2.74-1.51,3.69c-.96.98-2.29,1.58-3.76,1.58s-2.77-.59-3.73-1.54c-.95-.95-1.54-2.27-1.54-3.73s.61-2.81,1.58-3.76c.95-.93,2.25-1.51,3.69-1.51Z"/>
        <path class="cls-4" d="M33.44,55.17c1.45,0,2.76.59,3.71,1.54.95.95,1.54,2.26,1.54,3.71s-.57,2.72-1.5,3.67c-.95.97-2.28,1.57-3.74,1.57s-2.76-.59-3.71-1.54c-.95-.95-1.54-2.26-1.54-3.71s.6-2.79,1.57-3.74c.95-.93,2.24-1.5,3.67-1.5Z"/>
        <path class="cls-4" d="M14.21,31.5c1.44,0,2.75.58,3.69,1.53s1.53,2.25,1.53,3.69-.57,2.71-1.49,3.65c-.95.97-2.27,1.57-3.73,1.57s-2.75-.58-3.69-1.53c-.94-.94-1.53-2.25-1.53-3.69s.6-2.78,1.57-3.73c.94-.92,2.23-1.49,3.65-1.49Z"/>
        <path class="cls-4" d="M-4.16,6.85c1.43,0,2.73.58,3.67,1.52s1.52,2.24,1.52,3.67-.57,2.7-1.48,3.64c-.94.96-2.26,1.56-3.71,1.56s-2.73-.58-3.67-1.52-1.52-2.24-1.52-3.67.6-2.77,1.56-3.71c.94-.92,2.22-1.48,3.64-1.48Z"/>
        <path class="cls-4" d="M248.5,199.3c1.67,0,3.19.68,4.29,1.78,1.1,1.1,1.78,2.61,1.78,4.29s-.66,3.15-1.73,4.24c-1.1,1.12-2.63,1.82-4.33,1.82s-3.19-.68-4.29-1.78-1.78-2.61-1.78-4.29.7-3.23,1.82-4.33c1.09-1.07,2.59-1.73,4.24-1.73Z"/>
        <path class="cls-4" d="M222.15,186.34c1.66,0,3.15.67,4.24,1.76s1.76,2.58,1.76,4.24-.65,3.11-1.71,4.2c-1.09,1.11-2.6,1.8-4.28,1.8s-3.15-.67-4.24-1.76c-1.08-1.08-1.76-2.58-1.76-4.24s.69-3.19,1.8-4.28c1.08-1.06,2.56-1.71,4.2-1.71Z"/>
        <path class="cls-4" d="M196.72,171.76c1.64,0,3.12.66,4.19,1.74s1.74,2.55,1.74,4.19-.65,3.08-1.69,4.15c-1.08,1.1-2.57,1.78-4.23,1.78s-3.12-.66-4.19-1.74c-1.07-1.07-1.74-2.55-1.74-4.19s.68-3.16,1.78-4.23c1.07-1.05,2.53-1.69,4.15-1.69Z"/>
        <path class="cls-4" d="M172.21,155.65c1.62,0,3.08.66,4.14,1.71,1.06,1.06,1.72,2.52,1.72,4.14s-.64,3.04-1.67,4.1c-1.06,1.08-2.54,1.76-4.18,1.76s-3.08-.66-4.14-1.72-1.71-2.52-1.71-4.14.67-3.12,1.76-4.18c1.06-1.04,2.5-1.67,4.1-1.67Z"/>
        <path class="cls-4" d="M148.6,138.09c1.6,0,3.04.65,4.09,1.69,1.05,1.05,1.69,2.49,1.69,4.09s-.63,3.01-1.65,4.05c-1.05,1.07-2.51,1.74-4.13,1.74s-3.04-.65-4.09-1.69c-1.05-1.05-1.69-2.49-1.69-4.09s.66-3.08,1.74-4.13c1.04-1.02,2.47-1.65,4.05-1.65Z"/>
        <path class="cls-4" d="M125.88,119.15c1.58,0,3.01.64,4.04,1.67,1.03,1.03,1.67,2.46,1.67,4.04s-.62,2.97-1.63,4c-1.04,1.06-2.48,1.71-4.08,1.71s-3.01-.64-4.04-1.67c-1.03-1.03-1.67-2.46-1.67-4.04s.66-3.04,1.71-4.08c1.03-1.01,2.44-1.63,4-1.63Z"/>
        <path class="cls-4" d="M104.06,98.92c1.56,0,2.97.63,3.99,1.65s1.65,2.43,1.65,3.99-.62,2.93-1.61,3.95c-1.02,1.05-2.45,1.69-4.03,1.69s-2.97-.63-3.99-1.65c-1.02-1.02-1.65-2.43-1.65-3.99s.65-3.01,1.69-4.03c1.02-1,2.41-1.61,3.95-1.61Z"/>
        <path class="cls-4" d="M83.11,77.48c1.54,0,2.93.62,3.94,1.63,1.01,1.01,1.63,2.4,1.63,3.94s-.61,2.9-1.59,3.9c-1.01,1.03-2.42,1.67-3.98,1.67s-2.93-.62-3.94-1.63c-1.01-1.01-1.63-2.4-1.63-3.94s.64-2.97,1.67-3.98c1.01-.99,2.38-1.59,3.9-1.59Z"/>
        <path class="cls-4" d="M63.03,54.91c1.52,0,2.9.62,3.89,1.61,1,1,1.61,2.37,1.61,3.9s-.6,2.86-1.57,3.86c-1,1.02-2.39,1.65-3.93,1.65s-2.9-.62-3.9-1.61c-1-1-1.61-2.37-1.61-3.89s.63-2.93,1.65-3.93c.99-.97,2.35-1.57,3.86-1.57Z"/>
        <path class="cls-4" d="M43.81,31.28c1.5,0,2.86.61,3.85,1.59.98.98,1.59,2.34,1.59,3.85s-.59,2.83-1.55,3.81c-.99,1.01-2.36,1.63-3.88,1.63s-2.86-.61-3.85-1.59-1.59-2.34-1.59-3.85.62-2.9,1.63-3.88c.98-.96,2.32-1.55,3.81-1.55Z"/>
        <path class="cls-4" d="M25.44,6.68c1.48,0,2.83.6,3.8,1.57.97.97,1.57,2.31,1.57,3.8s-.59,2.79-1.53,3.76c-.97.99-2.33,1.61-3.83,1.61s-2.83-.6-3.8-1.57c-.97-.97-1.57-2.31-1.57-3.8s.62-2.86,1.61-3.83c.97-.95,2.3-1.53,3.76-1.53Z"/>
        <path class="cls-4" d="M251.75,185.76c1.81,0,3.46.74,4.65,1.92,1.19,1.19,1.92,2.83,1.92,4.65s-.72,3.41-1.88,4.6c-1.19,1.22-2.85,1.97-4.69,1.97s-3.46-.74-4.65-1.92c-1.19-1.19-1.92-2.83-1.92-4.65s.75-3.5,1.97-4.69c1.19-1.16,2.81-1.88,4.6-1.88Z"/>
        <path class="cls-4" d="M226.32,171.23c1.78,0,3.4.72,4.57,1.89,1.17,1.17,1.89,2.78,1.89,4.57s-.7,3.36-1.85,4.52c-1.17,1.2-2.81,1.94-4.61,1.94s-3.4-.72-4.57-1.89c-1.17-1.17-1.89-2.78-1.89-4.57s.74-3.44,1.94-4.61c1.16-1.14,2.76-1.85,4.52-1.85Z"/>
        <path class="cls-4" d="M201.8,155.16c1.75,0,3.34.71,4.49,1.86s1.86,2.73,1.86,4.49-.69,3.3-1.81,4.44c-1.15,1.17-2.76,1.9-4.53,1.9s-3.34-.71-4.49-1.86c-1.15-1.15-1.86-2.73-1.86-4.49s.73-3.38,1.9-4.53c1.14-1.12,2.71-1.81,4.44-1.81Z"/>
        <path class="cls-4" d="M178.19,137.65c1.72,0,3.28.7,4.41,1.82,1.13,1.13,1.82,2.68,1.82,4.4s-.68,3.24-1.78,4.36c-1.13,1.15-2.71,1.87-4.45,1.87s-3.28-.7-4.4-1.82c-1.13-1.13-1.82-2.68-1.82-4.41s.72-3.32,1.87-4.45c1.12-1.1,2.66-1.78,4.36-1.78Z"/>
        <path class="cls-4" d="M155.48,118.75c1.69,0,3.22.68,4.32,1.79s1.79,2.64,1.79,4.32-.67,3.18-1.75,4.28c-1.11,1.13-2.66,1.83-4.37,1.83s-3.22-.68-4.32-1.79c-1.11-1.11-1.79-2.64-1.79-4.32s.7-3.26,1.83-4.37c1.1-1.08,2.61-1.75,4.28-1.75Z"/>
        <path class="cls-4" d="M133.65,98.57c1.66,0,3.16.67,4.24,1.76,1.09,1.09,1.76,2.59,1.76,4.24s-.65,3.12-1.72,4.2c-1.09,1.11-2.61,1.8-4.29,1.8s-3.16-.67-4.24-1.76c-1.09-1.09-1.76-2.59-1.76-4.24s.69-3.2,1.8-4.29c1.08-1.06,2.57-1.72,4.2-1.72Z"/>
        <path class="cls-4" d="M112.71,77.17c1.63,0,3.1.66,4.16,1.72,1.07,1.07,1.72,2.54,1.72,4.16s-.64,3.06-1.68,4.12c-1.07,1.09-2.56,1.77-4.2,1.77s-3.1-.66-4.16-1.72-1.72-2.54-1.72-4.16.68-3.14,1.77-4.2c1.06-1.04,2.52-1.68,4.12-1.68Z"/>
        <path class="cls-4" d="M92.63,54.64c1.59,0,3.04.65,4.08,1.69,1.04,1.04,1.69,2.49,1.69,4.08s-.63,3-1.65,4.04c-1.05,1.07-2.51,1.73-4.12,1.73s-3.04-.65-4.08-1.69c-1.04-1.04-1.69-2.49-1.69-4.08s.66-3.07,1.73-4.12c1.04-1.02,2.47-1.65,4.04-1.65Z"/>
        <path class="cls-4" d="M73.4,31.06c1.56,0,2.98.63,4,1.66,1.02,1.02,1.66,2.44,1.66,4s-.62,2.94-1.62,3.96c-1.03,1.05-2.46,1.7-4.04,1.7s-2.98-.63-4-1.66c-1.02-1.02-1.66-2.44-1.66-4s.65-3.01,1.7-4.04c1.02-1,2.42-1.62,3.96-1.62Z"/>
        <path class="cls-4" d="M55.03,6.5c1.53,0,2.92.62,3.92,1.62,1,1,1.62,2.39,1.62,3.92s-.6,2.88-1.59,3.88c-1.01,1.03-2.41,1.66-3.96,1.66s-2.92-.62-3.92-1.62c-1-1-1.62-2.39-1.62-3.92s.64-2.95,1.66-3.96c1-.98,2.37-1.59,3.88-1.59Z"/>
        <path class="cls-4" d="M255.91,170.7c1.93,0,3.68.78,4.94,2.05,1.27,1.27,2.05,3.01,2.05,4.94s-.76,3.63-2,4.89c-1.27,1.29-3.04,2.1-4.99,2.1s-3.68-.78-4.94-2.05c-1.27-1.27-2.05-3.01-2.05-4.94s.8-3.72,2.1-4.99c1.26-1.24,2.99-2,4.89-2Z"/>
        <path class="cls-4" d="M231.4,154.68c1.89,0,3.59.76,4.83,2,1.24,1.24,2,2.94,2,4.83s-.74,3.55-1.95,4.78c-1.24,1.26-2.97,2.05-4.88,2.05s-3.59-.76-4.83-2-2-2.94-2-4.83.78-3.64,2.05-4.88c1.23-1.21,2.92-1.95,4.78-1.95Z"/>
        <path class="cls-4" d="M207.79,137.2c1.84,0,3.51.75,4.72,1.95,1.21,1.21,1.95,2.88,1.95,4.72s-.73,3.47-1.91,4.67c-1.21,1.24-2.9,2-4.77,2s-3.51-.75-4.72-1.95c-1.21-1.21-1.95-2.88-1.95-4.72s.77-3.55,2-4.77c1.2-1.18,2.85-1.91,4.67-1.91Z"/>
        <path class="cls-4" d="M185.07,118.36c1.8,0,3.43.73,4.61,1.91s1.91,2.81,1.91,4.61-.71,3.38-1.86,4.56c-1.18,1.21-2.83,1.95-4.65,1.95s-3.43-.73-4.61-1.91c-1.18-1.18-1.91-2.81-1.91-4.61s.75-3.47,1.95-4.65c1.17-1.15,2.78-1.86,4.56-1.86Z"/>
        <path class="cls-4" d="M163.25,98.22c1.75,0,3.34.71,4.49,1.86,1.15,1.15,1.86,2.74,1.86,4.49s-.69,3.3-1.82,4.45c-1.15,1.18-2.76,1.91-4.54,1.91s-3.34-.71-4.49-1.86c-1.15-1.15-1.86-2.74-1.86-4.49s.73-3.39,1.91-4.54c1.15-1.12,2.72-1.82,4.45-1.82Z"/>
        <path class="cls-4" d="M142.3,76.86c1.71,0,3.26.69,4.38,1.81,1.12,1.12,1.81,2.67,1.81,4.38s-.68,3.22-1.77,4.34c-1.12,1.15-2.69,1.86-4.43,1.86s-3.26-.69-4.38-1.81c-1.12-1.12-1.81-2.67-1.81-4.38s.71-3.3,1.86-4.43c1.12-1.1,2.65-1.77,4.34-1.77Z"/>
        <path class="cls-4" d="M122.22,54.38c1.67,0,3.18.68,4.27,1.77,1.09,1.09,1.77,2.6,1.77,4.27s-.66,3.14-1.73,4.23c-1.1,1.12-2.62,1.81-4.31,1.81s-3.18-.68-4.27-1.77c-1.09-1.09-1.77-2.6-1.77-4.27s.69-3.22,1.81-4.31c1.09-1.07,2.58-1.73,4.23-1.73Z"/>
        <path class="cls-4" d="M103,30.84c1.62,0,3.09.66,4.16,1.72,1.06,1.06,1.72,2.53,1.72,4.16s-.64,3.05-1.68,4.11c-1.07,1.09-2.55,1.76-4.2,1.76s-3.09-.66-4.16-1.72c-1.06-1.06-1.72-2.53-1.72-4.16s.68-3.13,1.76-4.2c1.06-1.04,2.51-1.68,4.11-1.68Z"/>
        <path class="cls-4" d="M84.63,6.33c1.58,0,3.01.64,4.04,1.68s1.68,2.46,1.68,4.04-.62,2.97-1.63,4c-1.04,1.06-2.48,1.72-4.08,1.72s-3.01-.64-4.04-1.68c-1.04-1.04-1.68-2.46-1.68-4.04s.66-3.05,1.72-4.08c1.03-1.01,2.44-1.63,4-1.63Z"/>
        <path class="cls-4" d="M237.38,136.76c1.97,0,3.74.8,5.03,2.08,1.29,1.29,2.08,3.07,2.08,5.03s-.78,3.7-2.03,4.98c-1.29,1.32-3.09,2.14-5.08,2.14s-3.74-.8-5.03-2.08c-1.29-1.29-2.08-3.07-2.08-5.03s.82-3.79,2.14-5.08c1.28-1.26,3.04-2.03,4.98-2.03Z"/>
        <path class="cls-4" d="M214.67,117.96c1.91,0,3.64.77,4.89,2.02,1.25,1.25,2.02,2.98,2.02,4.89s-.75,3.59-1.98,4.84c-1.25,1.28-3,2.07-4.94,2.07s-3.64-.77-4.89-2.02c-1.25-1.25-2.02-2.98-2.02-4.89s.79-3.68,2.07-4.94c1.25-1.22,2.95-1.98,4.84-1.98Z"/>
        <path class="cls-4" d="M192.84,97.86c1.85,0,3.53.75,4.74,1.97,1.21,1.21,1.97,2.89,1.97,4.74s-.73,3.49-1.92,4.7c-1.22,1.24-2.91,2.01-4.79,2.01s-3.53-.75-4.74-1.97-1.97-2.89-1.97-4.74.77-3.57,2.01-4.79c1.21-1.19,2.87-1.92,4.7-1.92Z"/>
        <path class="cls-4" d="M171.9,76.55c1.8,0,3.42.73,4.6,1.91s1.91,2.8,1.91,4.6-.71,3.38-1.86,4.55c-1.18,1.2-2.83,1.95-4.65,1.95s-3.42-.73-4.6-1.91c-1.18-1.18-1.91-2.8-1.91-4.6s.75-3.47,1.95-4.65c1.17-1.15,2.78-1.86,4.55-1.86Z"/>
        <path class="cls-4" d="M151.82,54.11c1.74,0,3.32.71,4.46,1.85,1.14,1.14,1.85,2.72,1.85,4.46s-.69,3.27-1.8,4.41c-1.14,1.17-2.74,1.89-4.5,1.89s-3.32-.71-4.46-1.85-1.85-2.72-1.85-4.46.72-3.36,1.89-4.5c1.14-1.11,2.69-1.8,4.41-1.8Z"/>
        <path class="cls-4" d="M132.59,30.62c1.68,0,3.21.68,4.31,1.79,1.1,1.1,1.79,2.63,1.79,4.31s-.66,3.17-1.74,4.27c-1.11,1.13-2.65,1.83-4.36,1.83s-3.21-.68-4.31-1.79c-1.1-1.1-1.79-2.63-1.79-4.31s.7-3.25,1.83-4.36c1.1-1.08,2.61-1.74,4.27-1.74Z"/>
        <path class="cls-4" d="M114.22,6.15c1.63,0,3.1.66,4.17,1.73,1.07,1.07,1.73,2.54,1.73,4.17s-.64,3.06-1.68,4.13c-1.07,1.09-2.56,1.77-4.21,1.77s-3.1-.66-4.17-1.73-1.73-2.54-1.73-4.17.68-3.14,1.77-4.21c1.06-1.04,2.52-1.68,4.13-1.68Z"/>
        <path class="cls-4" d="M244.26,117.56c2.02,0,3.85.82,5.17,2.14,1.32,1.32,2.14,3.15,2.14,5.17s-.8,3.8-2.09,5.12c-1.33,1.35-3.18,2.19-5.22,2.19s-3.85-.82-5.17-2.14c-1.32-1.32-2.14-3.15-2.14-5.17s.84-3.89,2.19-5.22c1.32-1.29,3.13-2.09,5.12-2.09Z"/>
        <path class="cls-4" d="M222.44,97.51c1.95,0,3.72.79,4.99,2.07,1.28,1.28,2.07,3.04,2.07,4.99s-.77,3.67-2.02,4.94c-1.28,1.31-3.07,2.12-5.04,2.12s-3.72-.79-4.99-2.07c-1.28-1.28-2.07-3.04-2.07-4.99s.81-3.76,2.12-5.04c1.27-1.25,3.02-2.02,4.94-2.02Z"/>
        <path class="cls-4" d="M201.49,76.24c1.88,0,3.59.76,4.82,2,1.23,1.23,2,2.94,2,4.82s-.74,3.54-1.95,4.77c-1.24,1.26-2.96,2.04-4.87,2.04s-3.59-.76-4.82-2c-1.23-1.23-2-2.94-2-4.82s.78-3.63,2.04-4.87c1.23-1.2,2.91-1.95,4.77-1.95Z"/>
        <path class="cls-4" d="M181.41,53.85c1.81,0,3.45.73,4.64,1.92s1.92,2.83,1.92,4.64-.72,3.41-1.88,4.6c-1.19,1.22-2.85,1.97-4.69,1.97s-3.45-.73-4.64-1.92c-1.19-1.19-1.92-2.83-1.92-4.64s.75-3.5,1.97-4.69c1.18-1.16,2.81-1.88,4.6-1.88Z"/>
        <path class="cls-4" d="M162.19,30.4c1.74,0,3.32.71,4.47,1.85,1.14,1.14,1.85,2.72,1.85,4.47s-.69,3.28-1.81,4.42c-1.15,1.17-2.74,1.9-4.51,1.9s-3.32-.71-4.47-1.85c-1.14-1.14-1.85-2.72-1.85-4.47s.73-3.37,1.9-4.51c1.14-1.12,2.7-1.81,4.42-1.81Z"/>
        <path class="cls-4" d="M143.82,5.98c1.68,0,3.19.68,4.29,1.78,1.1,1.1,1.78,2.62,1.78,4.29s-.66,3.15-1.74,4.25c-1.1,1.12-2.64,1.82-4.33,1.82s-3.19-.68-4.29-1.78c-1.1-1.1-1.78-2.62-1.78-4.29s.7-3.23,1.82-4.33c1.09-1.07,2.59-1.74,4.25-1.74Z"/>
        <path class="cls-4" d="M252.03,97.15c2.05,0,3.9.83,5.24,2.17,1.34,1.34,2.17,3.2,2.17,5.24s-.81,3.85-2.12,5.19c-1.35,1.37-3.22,2.23-5.3,2.23s-3.9-.83-5.24-2.17c-1.34-1.34-2.17-3.2-2.17-5.24s.85-3.95,2.23-5.3c1.34-1.31,3.17-2.12,5.19-2.12Z"/>
        <path class="cls-4" d="M231.09,75.93c1.97,0,3.75.8,5.04,2.09,1.29,1.29,2.09,3.07,2.09,5.04s-.78,3.7-2.04,4.99c-1.29,1.32-3.09,2.14-5.09,2.14s-3.75-.8-5.04-2.09c-1.29-1.29-2.09-3.07-2.09-5.04s.82-3.79,2.14-5.09c1.29-1.26,3.05-2.04,4.99-2.04Z"/>
        <path class="cls-4" d="M211.01,53.58c1.89,0,3.59.76,4.83,2,1.24,1.24,2,2.94,2,4.83s-.74,3.55-1.95,4.78c-1.24,1.26-2.97,2.05-4.88,2.05s-3.59-.76-4.83-2-2-2.94-2-4.83.78-3.64,2.05-4.88c1.23-1.21,2.92-1.95,4.78-1.95Z"/>
        <path class="cls-4" d="M191.78,30.18c1.81,0,3.44.73,4.62,1.91,1.18,1.18,1.91,2.82,1.91,4.62s-.71,3.4-1.87,4.58c-1.19,1.21-2.84,1.96-4.67,1.96s-3.44-.73-4.62-1.91-1.91-2.82-1.91-4.62.75-3.48,1.96-4.67c1.18-1.16,2.79-1.87,4.58-1.87Z"/>
        <path class="cls-4" d="M173.41,5.8c1.72,0,3.29.7,4.42,1.83,1.13,1.13,1.83,2.69,1.83,4.42s-.68,3.24-1.78,4.37c-1.13,1.16-2.71,1.87-4.46,1.87s-3.29-.7-4.42-1.83c-1.13-1.13-1.83-2.69-1.83-4.42s.72-3.33,1.87-4.46c1.13-1.1,2.67-1.78,4.37-1.78Z"/>
        <path class="cls-4" d="M247.7,60.41c0,1.93-.77,3.69-2.03,4.97-1.29,1.31-3.08,2.13-5.07,2.13s-3.73-.79-5.02-2.08c-1.28-1.28-2.08-3.06-2.08-5.02s.82-3.78,2.13-5.07c1.28-1.25,3.03-2.03,4.97-2.03s3.73.79,5.02,2.08c1.28,1.28,2.08,3.06,2.08,5.02Z"/>
        <path class="cls-4" d="M228.14,36.72c0,1.84-.74,3.51-1.93,4.73-1.23,1.25-2.94,2.03-4.83,2.03s-3.56-.76-4.78-1.98c-1.22-1.22-1.98-2.91-1.98-4.78s.78-3.6,2.03-4.83c1.22-1.19,2.89-1.93,4.73-1.93s3.56.76,4.78,1.98,1.98,2.91,1.98,4.78Z"/>
        <path class="cls-4" d="M209.43,12.05c0,1.75-.7,3.34-1.83,4.49-1.17,1.19-2.79,1.93-4.58,1.93s-3.38-.72-4.54-1.88c-1.16-1.16-1.88-2.77-1.88-4.54s.74-3.42,1.93-4.58c1.16-1.14,2.74-1.83,4.49-1.83s3.38.72,4.54,1.88c1.16,1.16,1.88,2.77,1.88,4.54Z"/>
      </g>
    </g>
  </g>
  <g id="Capa_13" data-name="Capa 13">
    <g>
      <rect class="cls-5" x="36.2" y="36.2" width="177.6" height="177.6" rx="11.9" ry="11.9"/>
      <rect class="cls-3" x="53.47" y="53.47" width="160.33" height="160.33" rx="12.56" ry="12.56"/>
      <g>
        <path class="cls-4" d="M195.68,135.34c-1.52,1.83-3.02,3.67-4.56,5.48-1.77,2.08-3,2.18-5.12.42-10.85-9.03-21.69-18.08-32.53-27.12-6.29-5.24-12.59-10.47-18.86-15.74-.71-.6-1.18-.53-1.86.03-16.99,14.19-34,28.37-51.01,42.55-.43.36-.87.73-1.34,1.03-1.21.75-2.51.62-3.5-.5-1.58-1.78-3.12-3.6-4.59-5.47-1.14-1.45-.89-2.86.62-4.12,5.17-4.32,10.34-8.63,15.52-12.94,12.89-10.74,25.78-21.48,38.68-32.21,4.22-3.51,9.07-3.44,13.29.12,5.49,4.62,11.01,9.22,16.52,13.82.3.25.63.47.96.71.36-.46.21-.92.22-1.34.01-3.99,0-7.99.01-11.98,0-2.82.87-3.66,3.7-3.66,4.32,0,8.63,0,12.95,0,2.48,0,3.31.85,3.32,3.36,0,9.68.01,19.36-.02,29.04,0,1.01.26,1.7,1.08,2.36,5.06,4.14,10.07,8.33,15.08,12.52.52.44.97.96,1.46,1.44v2.18Z"/>
        <path class="cls-4" d="M178.08,160.03c0,5.85,0,11.7,0,17.55,0,3.42-2.07,5.51-5.49,5.52-9.2.01-18.39,0-27.59,0-1.59,0-1.64-.04-1.64-1.62,0-8.75,0-17.51,0-26.26,0-1.65,0-1.65-1.68-1.65-5.41,0-10.81.03-16.22-.02-1.14-.01-1.44.38-1.43,1.46.03,8.75.02,17.51.02,26.26,0,1.83,0,1.83-1.79,1.83-9.04,0-18.07,0-27.11,0-3.84,0-5.83-1.97-5.83-5.79,0-11.7.01-23.4-.02-35.09,0-1.12.34-1.86,1.21-2.57,14.09-11.57,28.16-23.16,42.2-34.79.8-.66,1.25-.62,2.03.02,14.05,11.62,28.12,23.21,42.2,34.79.81.67,1.2,1.36,1.19,2.45-.05,5.97-.03,11.94-.03,17.91Z"/>
      </g>
    </g>
  </g>
</svg>