<?xml version="1.0" encoding="UTF-8"?>
<svg xmlns="http://www.w3.org/2000/svg" xmlns:xlink="http://www.w3.org/1999/xlink" viewBox="0 0 250 250">
  <defs>
    <style>
      .cls-1 {
        opacity: .02;
      }

      .cls-2 {
        fill: none;
      }

      .cls-2, .cls-3, .cls-4 {
        stroke-width: 0px;
      }

      .cls-5 {
        clip-path: url(#clippath);
      }

      .cls-3 {
        fill: #f49a1a;
      }

      .cls-4 {
        fill: #fff;
      }
    </style>
    <clipPath id="clippath">
      <rect class="cls-2" x="-736.45" y="-1054.75" width="1874.3" height="879.25"/>
    </clipPath>
  </defs>
  <g id="Capa_10" data-name="Capa 10">
    <g class="cls-5">
      <g class="cls-1">
        <path class="cls-4" d="M27.38,233.98c0,.41-.17.79-.44,1.06s-.65.44-1.06.44-.79-.17-1.06-.44-.44-.65-.44-1.06.17-.79.44-1.06c.27-.27.65-.44,1.06-.44s.79.17,1.06.44c.27.27.44.65.44,1.06Z"/>
        <path class="cls-4" d="M56.82,233.98c0,.37-.15.71-.4.95-.24.24-.58.4-.95.4s-.71-.15-.95-.4c-.24-.24-.4-.58-.4-.95s.15-.71.4-.95c.24-.24.58-.4.95-.4s.71.15.95.4c.24.24.4.58.4.95Z"/>
        <path class="cls-4" d="M26.29,224.64c.45,0,.86.18,1.15.48.3.3.48.7.48,1.15s-.18.86-.48,1.15c-.3.3-.7.48-1.15.48s-.86-.18-1.15-.48c-.3-.3-.48-.7-.48-1.15s.18-.86.48-1.15c.3-.3.7-.48,1.15-.48Z"/>
        <path class="cls-4" d="M86.27,233.98c0,.33-.13.63-.35.85-.22.22-.52.35-.85.35s-.63-.13-.85-.35c-.22-.22-.35-.52-.35-.85s.13-.63.35-.85c.22-.22.52-.35.85-.35s.63.13.85.35.35.52.35.85Z"/>
        <path class="cls-4" d="M55.89,224.8c.41,0,.78.16,1.04.43s.43.63.43,1.04-.16.78-.43,1.04c-.27.27-.63.43-1.04.43s-.78-.16-1.04-.43c-.27-.27-.43-.63-.43-1.04s.16-.78.43-1.04.63-.43,1.04-.43Z"/>
        <path class="cls-4" d="M27.66,214.96c.48,0,.92.2,1.23.51s.51.75.51,1.23-.2.92-.51,1.23c-.32.32-.75.51-1.23.51s-.92-.2-1.23-.51c-.32-.32-.51-.75-.51-1.23s.2-.92.51-1.23.75-.51,1.23-.51Z"/>
        <path class="cls-4" d="M.37,203.35c.56,0,1.06.23,1.43.59s.59.87.59,1.43-.23,1.06-.59,1.43-.87.59-1.43.59-1.06-.23-1.43-.59-.59-.87-.59-1.43.23-1.06.59-1.43.87-.59,1.43-.59Z"/>
        <path class="cls-4" d="M115.71,233.98c0,.29-.12.55-.31.74-.19.19-.45.31-.74.31s-.55-.12-.74-.31c-.19-.19-.31-.45-.31-.74s.12-.55.31-.74c.19-.19.45-.31.74-.31s.55.12.74.31c.19.19.31.45.31.74Z"/>
        <path class="cls-4" d="M85.48,224.96c.36,0,.69.15.93.38.24.24.38.57.38.93s-.15.69-.38.93c-.24.24-.57.38-.93.38s-.69-.15-.93-.38-.38-.57-.38-.93.15-.69.38-.93.57-.38.93-.38Z"/>
        <path class="cls-4" d="M57.26,215.13c.44,0,.83.18,1.12.46.29.29.46.68.46,1.12s-.18.83-.46,1.12-.68.46-1.12.46-.83-.18-1.12-.46-.46-.68-.46-1.12.18-.83.46-1.12c.29-.29.68-.46,1.12-.46Z"/>
        <path class="cls-4" d="M29.97,203.52c.51,0,.97.21,1.3.54.33.33.54.79.54,1.3s-.21.97-.54,1.3-.79.54-1.3.54-.97-.21-1.3-.54c-.33-.33-.54-.79-.54-1.3s.21-.97.54-1.3c.33-.33.79-.54,1.3-.54Z"/>
        <path class="cls-4" d="M3.62,190.23c.58,0,1.11.24,1.49.62.38.38.62.91.62,1.49s-.24,1.11-.62,1.49-.91.62-1.49.62-1.11-.24-1.49-.62-.62-.91-.62-1.49.24-1.11.62-1.49c.38-.38.91-.62,1.49-.62Z"/>
        <path class="cls-4" d="M145.16,233.98c0,.25-.1.47-.26.64-.16.16-.39.26-.64.26s-.47-.1-.64-.26c-.16-.16-.26-.39-.26-.64s.1-.47.26-.64.39-.26.64-.26.47.1.64.26.26.39.26.64Z"/>
        <path class="cls-4" d="M115.08,225.12c.32,0,.61.13.82.34.21.21.34.5.34.82s-.13.61-.34.82c-.21.21-.5.34-.82.34s-.61-.13-.82-.34c-.21-.21-.34-.5-.34-.82s.13-.61.34-.82c.21-.21.5-.34.82-.34Z"/>
        <path class="cls-4" d="M86.85,215.3c.39,0,.74.16,1,.41.25.25.41.61.41,1s-.16.74-.41,1-.61.41-1,.41-.74-.16-1-.41c-.25-.25-.41-.61-.41-1s.16-.74.41-1,.61-.41,1-.41Z"/>
        <path class="cls-4" d="M59.56,203.7c.46,0,.87.19,1.18.49s.49.72.49,1.18-.19.87-.49,1.18-.72.49-1.18.49-.87-.19-1.18-.49-.49-.72-.49-1.18.19-.87.49-1.18.72-.49,1.18-.49Z"/>
        <path class="cls-4" d="M33.21,190.42c.53,0,1.01.21,1.36.56.35.35.56.83.56,1.36s-.21,1.01-.56,1.36c-.35.35-.83.56-1.36.56s-1.01-.21-1.36-.56c-.35-.35-.56-.83-.56-1.36s.21-1.01.56-1.36c.35-.35.83-.56,1.36-.56Z"/>
        <path class="cls-4" d="M7.78,175.52c.6,0,1.14.24,1.54.64.39.39.64.94.64,1.54s-.24,1.14-.64,1.54-.94.64-1.54.64-1.14-.24-1.54-.64c-.39-.39-.64-.94-.64-1.54s.24-1.14.64-1.54c.39-.39.94-.64,1.54-.64Z"/>
        <path class="cls-4" d="M174.6,233.98c0,.21-.08.39-.22.53-.14.14-.32.22-.53.22s-.39-.08-.53-.22-.22-.32-.22-.53.08-.39.22-.53c.14-.14.32-.22.53-.22s.39.08.53.22c.14.14.22.32.22.53Z"/>
        <path class="cls-4" d="M144.67,225.27c.27,0,.52.11.7.29s.29.43.29.7-.11.52-.29.7c-.18.18-.43.29-.7.29s-.52-.11-.7-.29c-.18-.18-.29-.43-.29-.7s.11-.52.29-.7c.18-.18.43-.29.7-.29Z"/>
        <path class="cls-4" d="M116.45,215.46c.34,0,.65.14.88.36.22.22.36.53.36.88s-.14.65-.36.88c-.22.22-.53.36-.88.36s-.65-.14-.88-.36-.36-.53-.36-.88.14-.65.36-.88c.22-.22.53-.36.88-.36Z"/>
        <path class="cls-4" d="M89.16,203.88c.41,0,.78.17,1.05.43s.43.64.43,1.05-.17.78-.43,1.05c-.27.27-.64.43-1.05.43s-.78-.17-1.05-.43c-.27-.27-.43-.64-.43-1.05s.17-.78.43-1.05c.27-.27.64-.43,1.05-.43Z"/>
        <path class="cls-4" d="M62.81,190.6c.48,0,.91.19,1.22.51s.51.75.51,1.22-.19.91-.51,1.22c-.31.31-.75.51-1.22.51s-.91-.19-1.22-.51c-.31-.31-.51-.75-.51-1.22s.19-.91.51-1.22c.31-.31.75-.51,1.22-.51Z"/>
        <path class="cls-4" d="M37.38,175.71c.55,0,1.04.22,1.4.58.36.36.58.85.58,1.4s-.22,1.04-.58,1.4-.85.58-1.4.58-1.04-.22-1.4-.58-.58-.85-.58-1.4.22-1.04.58-1.4c.36-.36.85-.58,1.4-.58Z"/>
        <path class="cls-4" d="M12.86,159.29c.61,0,1.17.25,1.57.65s.65.96.65,1.57-.25,1.17-.65,1.57c-.4.4-.96.65-1.57.65s-1.17-.25-1.57-.65c-.4-.4-.65-.96-.65-1.57s.25-1.17.65-1.57c.4-.4.96-.65,1.57-.65Z"/>
        <path class="cls-4" d="M204.05,233.98c0,.17-.07.32-.18.42-.11.11-.26.18-.42.18s-.32-.07-.42-.18-.18-.26-.18-.42.07-.32.18-.42c.11-.11.26-.18.42-.18s.32.07.42.18c.11.11.18.26.18.42Z"/>
        <path class="cls-4" d="M174.27,225.43c.23,0,.44.09.59.24.15.15.24.36.24.59s-.09.44-.24.59c-.15.15-.36.24-.59.24s-.44-.09-.59-.24c-.15-.15-.24-.36-.24-.59s.09-.44.24-.59.36-.24.59-.24Z"/>
        <path class="cls-4" d="M146.04,215.63c.3,0,.56.12.76.31.19.19.31.46.31.76s-.12.56-.31.76c-.19.19-.46.31-.76.31s-.56-.12-.76-.31-.31-.46-.31-.76.12-.56.31-.76c.19-.19.46-.31.76-.31Z"/>
        <path class="cls-4" d="M118.75,204.06c.36,0,.69.15.92.38.24.24.38.56.38.92s-.15.69-.38.92c-.24.24-.56.38-.92.38s-.69-.15-.92-.38c-.24-.24-.38-.56-.38-.92s.15-.69.38-.92c.24-.24.56-.38.92-.38Z"/>
        <path class="cls-4" d="M92.4,190.79c.43,0,.81.17,1.09.45.28.28.45.66.45,1.09s-.17.81-.45,1.09c-.28.28-.66.45-1.09.45s-.81-.17-1.09-.45c-.28-.28-.45-.66-.45-1.09s.17-.81.45-1.09.66-.45,1.09-.45Z"/>
        <path class="cls-4" d="M66.97,175.91c.49,0,.94.2,1.26.52.32.32.52.77.52,1.26s-.2.94-.52,1.26c-.32.32-.77.52-1.26.52s-.94-.2-1.26-.52-.52-.77-.52-1.26.2-.94.52-1.26.77-.52,1.26-.52Z"/>
        <path class="cls-4" d="M42.46,159.5c.56,0,1.06.23,1.42.59s.59.87.59,1.42-.23,1.06-.59,1.42c-.36.36-.87.59-1.42.59s-1.06-.23-1.42-.59c-.36-.36-.59-.87-.59-1.42s.23-1.06.59-1.42c.36-.36.87-.59,1.42-.59Z"/>
        <path class="cls-4" d="M18.85,141.63c.62,0,1.18.25,1.59.66.41.41.66.97.66,1.59s-.25,1.18-.66,1.59-.97.66-1.59.66-1.18-.25-1.59-.66c-.41-.41-.66-.97-.66-1.59s.25-1.18.66-1.59.97-.66,1.59-.66Z"/>
        <path class="cls-4" d="M233.49,233.98c0,.12-.05.24-.13.32s-.19.13-.32.13-.24-.05-.32-.13-.13-.19-.13-.32.05-.24.13-.32.19-.13.32-.13.24.05.32.13.13.19.13.32Z"/>
        <path class="cls-4" d="M203.86,225.59c.19,0,.36.08.48.2.12.12.2.29.2.48s-.08.36-.2.48-.29.2-.48.2-.36-.08-.48-.2-.2-.29-.2-.48.08-.36.2-.48c.12-.12.29-.2.48-.2Z"/>
        <path class="cls-4" d="M175.64,215.8c.25,0,.47.1.64.26.16.16.26.39.26.64s-.1.47-.26.64-.39.26-.64.26-.47-.1-.64-.26c-.16-.16-.26-.39-.26-.64s.1-.47.26-.64.39-.26.64-.26Z"/>
        <path class="cls-4" d="M148.35,204.24c.31,0,.59.13.8.33.2.2.33.49.33.8s-.13.59-.33.8c-.2.2-.49.33-.8.33s-.59-.13-.8-.33c-.2-.2-.33-.49-.33-.8s.13-.59.33-.8.49-.33.8-.33Z"/>
        <path class="cls-4" d="M122,190.98c.37,0,.71.15.96.4s.4.58.4.96-.15.71-.4.96-.58.4-.96.4-.71-.15-.96-.4c-.25-.25-.4-.58-.4-.96s.15-.71.4-.96c.25-.25.58-.4.96-.4Z"/>
        <path class="cls-4" d="M96.57,176.11c.44,0,.83.18,1.12.46.29.29.46.68.46,1.12s-.18.83-.46,1.12c-.29.29-.68.46-1.12.46s-.83-.18-1.12-.46-.46-.68-.46-1.12.18-.83.46-1.12.68-.46,1.12-.46Z"/>
        <path class="cls-4" d="M72.05,159.7c.5,0,.95.2,1.28.53.33.33.53.78.53,1.28s-.2.95-.53,1.28c-.33.33-.78.53-1.28.53s-.95-.2-1.28-.53c-.33-.33-.53-.78-.53-1.28s.2-.95.53-1.28c.33-.33.78-.53,1.28-.53Z"/>
        <path class="cls-4" d="M48.44,141.84c.56,0,1.07.23,1.44.6.37.37.6.88.6,1.44s-.23,1.07-.6,1.44-.88.6-1.44.6-1.07-.23-1.44-.6c-.37-.37-.6-.88-.6-1.44s.23-1.07.6-1.44.88-.6,1.44-.6Z"/>
        <path class="cls-4" d="M25.73,122.61c.62,0,1.19.25,1.6.66s.66.97.66,1.6-.25,1.19-.66,1.6c-.41.41-.97.66-1.6.66s-1.19-.25-1.6-.66-.66-.97-.66-1.6.25-1.19.66-1.6c.41-.41.97-.66,1.6-.66Z"/>
        <path class="cls-4" d="M3.9,102.09c.69,0,1.31.28,1.76.73s.73,1.07.73,1.76-.28,1.31-.73,1.76-1.07.73-1.76.73-1.31-.28-1.76-.73c-.45-.45-.73-1.07-.73-1.76s.28-1.31.73-1.76,1.07-.73,1.76-.73Z"/>
        <path class="cls-4" d="M233.46,225.75c.14,0,.27.06.37.15.09.09.15.22.15.37s-.06.27-.15.37-.22.15-.37.15-.27-.06-.37-.15c-.09-.09-.15-.22-.15-.37s.06-.27.15-.37c.09-.09.22-.15.37-.15Z"/>
        <path class="cls-4" d="M205.23,215.97c.2,0,.39.08.52.21.13.13.21.32.21.52s-.08.39-.21.52c-.13.13-.32.21-.52.21s-.39-.08-.52-.21c-.13-.13-.21-.32-.21-.52s.08-.39.21-.52.32-.21.52-.21Z"/>
        <path class="cls-4" d="M177.94,204.42c.26,0,.5.11.67.28.17.17.28.41.28.67s-.11.5-.28.67c-.17.17-.41.28-.67.28s-.5-.11-.67-.28c-.17-.17-.28-.41-.28-.67s.11-.5.28-.67c.17-.17.41-.28.67-.28Z"/>
        <path class="cls-4" d="M151.59,191.17c.32,0,.61.13.83.34.21.21.34.5.34.83s-.13.61-.34.83c-.21.21-.5.34-.83.34s-.61-.13-.83-.34c-.21-.21-.34-.5-.34-.83s.13-.61.34-.83c.21-.21.5-.34.83-.34Z"/>
        <path class="cls-4" d="M126.16,176.3c.38,0,.73.15.98.41.25.25.41.6.41.98s-.15.73-.41.98c-.25.25-.6.41-.98.41s-.73-.15-.98-.41c-.25-.25-.41-.6-.41-.98s.15-.73.41-.98c.25-.25.6-.41.98-.41Z"/>
        <path class="cls-4" d="M101.65,159.91c.44,0,.84.18,1.13.47.29.29.47.69.47,1.13s-.18.84-.47,1.13-.69.47-1.13.47-.84-.18-1.13-.47c-.29-.29-.47-.69-.47-1.13s.18-.84.47-1.13c.29-.29.69-.47,1.13-.47Z"/>
        <path class="cls-4" d="M78.04,142.06c.5,0,.96.2,1.29.53s.53.78.53,1.29-.2.96-.53,1.29c-.33.33-.78.53-1.29.53s-.96-.2-1.29-.53-.53-.78-.53-1.29.2-.96.53-1.29c.33-.33.78-.53,1.29-.53Z"/>
        <path class="cls-4" d="M55.33,122.84c.56,0,1.07.23,1.44.6.37.37.6.88.6,1.44s-.23,1.07-.6,1.44c-.37.37-.88.6-1.44.6s-1.07-.23-1.44-.6-.6-.88-.6-1.44.23-1.07.6-1.44.88-.6,1.44-.6Z"/>
        <path class="cls-4" d="M33.5,102.32c.62,0,1.18.25,1.59.66s.66.97.66,1.59-.25,1.18-.66,1.59-.97.66-1.59.66-1.18-.25-1.59-.66c-.41-.41-.66-.97-.66-1.59s.25-1.18.66-1.59c.41-.41.97-.66,1.59-.66Z"/>
        <path class="cls-4" d="M12.55,80.59c.68,0,1.3.28,1.75.72.45.45.72,1.06.72,1.75s-.28,1.3-.72,1.75c-.45.45-1.06.72-1.75.72s-1.3-.28-1.75-.72-.72-1.06-.72-1.75.28-1.3.72-1.75c.45-.45,1.06-.72,1.75-.72Z"/>
        <path class="cls-4" d="M234.83,216.14c.16,0,.3.06.4.17.1.1.17.24.17.4s-.06.3-.17.4c-.1.1-.24.17-.4.17s-.3-.06-.4-.17c-.1-.1-.17-.24-.17-.4s.06-.3.17-.4c.1-.1.24-.17.4-.17Z"/>
        <path class="cls-4" d="M207.54,204.59c.21,0,.41.09.55.23.14.14.23.33.23.55s-.09.41-.23.55c-.14.14-.33.23-.55.23s-.41-.09-.55-.23c-.14-.14-.23-.33-.23-.55s.09-.41.23-.55c.14-.14.33-.23.55-.23Z"/>
        <path class="cls-4" d="M181.19,191.35c.27,0,.52.11.69.29.18.18.29.42.29.69s-.11.52-.29.69c-.18.18-.42.29-.69.29s-.52-.11-.69-.29-.29-.42-.29-.69.11-.52.29-.69c.18-.18.42-.29.69-.29Z"/>
        <path class="cls-4" d="M155.76,176.5c.33,0,.62.13.84.35s.35.51.35.84-.13.62-.35.84c-.21.21-.51.35-.84.35s-.62-.13-.84-.35c-.21-.21-.35-.51-.35-.84s.13-.62.35-.84c.21-.21.51-.35.84-.35Z"/>
        <path class="cls-4" d="M131.24,160.11c.39,0,.73.16.99.41.25.25.41.6.41.99s-.16.73-.41.99c-.25.25-.6.41-.99.41s-.73-.16-.99-.41c-.25-.25-.41-.6-.41-.99s.16-.73.41-.99c.25-.25.6-.41.99-.41Z"/>
        <path class="cls-4" d="M107.63,142.27c.44,0,.84.18,1.13.47.29.29.47.69.47,1.13s-.18.84-.47,1.13c-.29.29-.69.47-1.13.47s-.84-.18-1.13-.47c-.29-.29-.47-.69-.47-1.13s.18-.84.47-1.13c.29-.29.69-.47,1.13-.47Z"/>
        <path class="cls-4" d="M84.92,123.06c.5,0,.95.2,1.28.53s.53.78.53,1.28-.2.95-.53,1.28-.78.53-1.28.53-.95-.2-1.28-.53-.53-.78-.53-1.28.2-.95.53-1.28.78-.53,1.28-.53Z"/>
        <path class="cls-4" d="M63.09,102.55c.56,0,1.06.23,1.43.59s.59.87.59,1.43-.23,1.06-.59,1.43-.87.59-1.43.59-1.06-.23-1.43-.59-.59-.87-.59-1.43.23-1.06.59-1.43.87-.59,1.43-.59Z"/>
        <path class="cls-4" d="M42.15,80.83c.61,0,1.17.25,1.57.65.4.4.65.96.65,1.57s-.25,1.17-.65,1.57c-.4.4-.96.65-1.57.65s-1.17-.25-1.57-.65-.65-.96-.65-1.57.25-1.17.65-1.57.96-.65,1.57-.65Z"/>
        <path class="cls-4" d="M22.07,57.98c.67,0,1.28.27,1.72.71.44.44.71,1.05.71,1.72s-.27,1.28-.71,1.72c-.44.44-1.05.71-1.72.71s-1.28-.27-1.72-.71c-.44-.44-.71-1.05-.71-1.72s.27-1.28.71-1.72c.44-.44,1.05-.71,1.72-.71Z"/>
        <path class="cls-4" d="M2.85,34.08c.73,0,1.39.3,1.87.77.48.48.77,1.14.77,1.87s-.3,1.39-.77,1.87c-.48.48-1.14.77-1.87.77s-1.39-.3-1.87-.77c-.48-.48-.77-1.14-.77-1.87s.3-1.39.77-1.87c.48-.48,1.14-.77,1.87-.77Z"/>
        <path class="cls-4" d="M237.73,205.37c0,.16-.07.31-.17.42-.11.11-.26.17-.42.17s-.31-.07-.42-.17c-.11-.11-.17-.26-.17-.42s.07-.31.17-.42.26-.17.42-.17.31.07.42.17c.11.11.17.26.17.42Z"/>
        <path class="cls-4" d="M211.57,192.33c0,.22-.09.42-.23.56-.14.14-.34.23-.56.23s-.42-.09-.56-.23c-.14-.14-.23-.34-.23-.56s.09-.42.23-.56c.14-.14.34-.23.56-.23s.42.09.56.23.23.34.23.56Z"/>
        <path class="cls-4" d="M186.34,177.69c0,.27-.11.52-.29.7-.18.18-.43.29-.7.29s-.52-.11-.7-.29-.29-.43-.29-.7.11-.52.29-.7c.18-.18.43-.29.7-.29s.52.11.7.29c.18.18.29.43.29.7Z"/>
        <path class="cls-4" d="M162.03,161.51c0,.33-.13.63-.35.84-.22.22-.51.35-.84.35s-.63-.13-.84-.35c-.22-.21-.35-.51-.35-.84s.13-.63.35-.84c.21-.21.51-.35.84-.35s.63.13.84.35c.21.22.35.51.35.84Z"/>
        <path class="cls-4" d="M138.61,143.88c0,.38-.16.73-.41.98-.25.25-.6.41-.98.41s-.73-.16-.98-.41c-.25-.25-.41-.6-.41-.98s.16-.73.41-.98c.25-.25.6-.41.98-.41s.73.16.98.41c.25.25.41.6.41.98Z"/>
        <path class="cls-4" d="M116.1,124.87c0,.44-.18.83-.46,1.12s-.68.46-1.12.46-.83-.18-1.12-.46c-.29-.29-.46-.68-.46-1.12s.18-.83.46-1.12c.29-.29.68-.46,1.12-.46s.83.18,1.12.46.46.68.46,1.12Z"/>
        <path class="cls-4" d="M94.47,104.57c0,.49-.2.94-.52,1.26s-.77.52-1.26.52-.94-.2-1.26-.52-.52-.77-.52-1.26.2-.94.52-1.26.77-.52,1.26-.52.94.2,1.26.52.52.77.52,1.26Z"/>
        <path class="cls-4" d="M73.72,83.06c0,.55-.22,1.04-.58,1.4s-.85.58-1.4.58-1.04-.22-1.4-.58c-.36-.36-.58-.85-.58-1.4s.22-1.04.58-1.4c.36-.36.85-.58,1.4-.58s1.04.22,1.4.58.58.85.58,1.4Z"/>
        <path class="cls-4" d="M53.84,60.41c0,.6-.24,1.15-.64,1.54-.39.39-.94.64-1.54.64s-1.15-.24-1.54-.64-.64-.94-.64-1.54.24-1.15.64-1.54.94-.64,1.54-.64,1.15.24,1.54.64c.39.39.64.94.64,1.54Z"/>
        <path class="cls-4" d="M34.82,36.72c0,.66-.27,1.25-.7,1.68-.43.43-1.02.7-1.68.7s-1.25-.27-1.68-.7c-.43-.43-.7-1.02-.7-1.68s.27-1.25.7-1.68c.43-.43,1.02-.7,1.68-.7s1.25.27,1.68.7c.43.43.7,1.02.7,1.68Z"/>
        <path class="cls-4" d="M16.64,12.05c0,.71-.29,1.35-.75,1.82-.47.47-1.11.75-1.82.75s-1.35-.29-1.82-.75c-.47-.47-.75-1.11-.75-1.82s.29-1.35.75-1.82c.47-.47,1.11-.75,1.82-.75s1.35.29,1.82.75c.47.47.75,1.11.75,1.82Z"/>
        <path class="cls-4" d="M240.38,191.48c.24,0,.45.1.61.25.16.16.25.37.25.61s-.1.45-.25.61c-.16.16-.37.25-.61.25s-.45-.1-.61-.25c-.16-.16-.25-.37-.25-.61s.1-.45.25-.61.37-.25.61-.25Z"/>
        <path class="cls-4" d="M214.95,176.63c.29,0,.55.12.74.31.19.19.31.45.31.75s-.12.55-.31.74c-.19.19-.45.31-.74.31s-.55-.12-.75-.31c-.19-.19-.31-.45-.31-.74s.12-.55.31-.75c.19-.19.45-.31.75-.31Z"/>
        <path class="cls-4" d="M190.43,160.26c.34,0,.66.14.88.37s.37.54.37.88-.14.66-.37.88c-.23.23-.54.37-.88.37s-.66-.14-.88-.37-.37-.54-.37-.88.14-.66.37-.88c.23-.23.54-.37.88-.37Z"/>
        <path class="cls-4" d="M166.82,142.43c.4,0,.76.16,1.02.42.26.26.42.62.42,1.02s-.16.76-.42,1.02-.62.42-1.02.42-.76-.16-1.02-.42-.42-.62-.42-1.02.16-.76.42-1.02c.26-.26.62-.42,1.02-.42Z"/>
        <path class="cls-4" d="M144.11,123.23c.45,0,.86.18,1.16.48s.48.71.48,1.16-.18.86-.48,1.16-.71.48-1.16.48-.86-.18-1.16-.48c-.3-.3-.48-.71-.48-1.16s.18-.86.48-1.16c.3-.3.71-.48,1.16-.48Z"/>
        <path class="cls-4" d="M122.28,102.73c.51,0,.97.21,1.3.54.33.33.54.79.54,1.3s-.21.97-.54,1.3c-.33.33-.79.54-1.3.54s-.97-.21-1.3-.54c-.33-.33-.54-.79-.54-1.3s.21-.97.54-1.3c.33-.33.79-.54,1.3-.54Z"/>
        <path class="cls-4" d="M101.34,81.03c.56,0,1.07.23,1.44.6.37.37.6.88.6,1.44s-.23,1.07-.6,1.44c-.37.37-.88.6-1.44.6s-1.07-.23-1.44-.6-.6-.88-.6-1.44.23-1.07.6-1.44c.37-.37.88-.6,1.44-.6Z"/>
        <path class="cls-4" d="M81.26,58.19c.62,0,1.17.25,1.58.65s.65.96.65,1.58-.25,1.17-.65,1.58-.96.65-1.58.65-1.17-.25-1.58-.65c-.4-.4-.65-.96-.65-1.58s.25-1.17.65-1.58c.4-.4.96-.65,1.58-.65Z"/>
        <path class="cls-4" d="M62.04,34.29c.67,0,1.28.27,1.71.71.44.44.71,1.04.71,1.71s-.27,1.28-.71,1.71c-.44.44-1.04.71-1.71.71s-1.28-.27-1.71-.71c-.44-.44-.71-1.04-.71-1.71s.27-1.28.71-1.71c.44-.44,1.04-.71,1.71-.71Z"/>
        <path class="cls-4" d="M43.66,9.43c.72,0,1.38.29,1.85.77s.77,1.13.77,1.85-.29,1.38-.77,1.85-1.13.77-1.85.77-1.38-.29-1.85-.77c-.47-.47-.77-1.13-.77-1.85s.29-1.38.77-1.85c.47-.47,1.13-.77,1.85-.77Z"/>
        <path class="cls-4" d="M244.54,176.57c.31,0,.59.12.79.33s.33.48.33.79-.12.59-.33.79-.48.33-.79.33-.59-.13-.79-.33-.33-.48-.33-.79.12-.59.33-.79.48-.33.79-.33Z"/>
        <path class="cls-4" d="M220.03,160.2c.36,0,.69.15.93.38.24.24.38.56.38.93s-.15.69-.38.93c-.24.24-.56.38-.93.38s-.69-.15-.93-.38c-.24-.24-.38-.56-.38-.93s.15-.69.38-.93.56-.38.93-.38Z"/>
        <path class="cls-4" d="M196.42,142.37c.42,0,.79.17,1.06.44.27.27.44.65.44,1.06s-.17.79-.44,1.06c-.27.27-.65.44-1.06.44s-.79-.17-1.06-.44c-.27-.27-.44-.65-.44-1.06s.17-.79.44-1.06c.27-.27.65-.44,1.06-.44Z"/>
        <path class="cls-4" d="M173.71,123.17c.47,0,.89.19,1.2.5s.5.73.5,1.2-.19.89-.5,1.2c-.31.31-.73.5-1.2.5s-.89-.19-1.2-.5c-.31-.31-.5-.73-.5-1.2s.19-.89.5-1.2c.31-.31.73-.5,1.2-.5Z"/>
        <path class="cls-4" d="M151.88,102.68c.52,0,.99.21,1.34.55.34.34.55.81.55,1.34s-.21.99-.55,1.34c-.34.34-.81.55-1.34.55s-.99-.21-1.34-.55-.55-.81-.55-1.34.21-.99.55-1.34c.34-.34.81-.55,1.34-.55Z"/>
        <path class="cls-4" d="M130.93,80.98c.58,0,1.1.23,1.47.61.38.38.61.9.61,1.47s-.23,1.1-.61,1.47-.9.61-1.47.61-1.1-.23-1.47-.61c-.38-.38-.61-.9-.61-1.47s.23-1.1.61-1.47c.38-.38.9-.61,1.47-.61Z"/>
        <path class="cls-4" d="M110.85,58.14c.63,0,1.2.25,1.61.67.41.41.67.98.67,1.61s-.25,1.2-.67,1.61c-.41.41-.98.67-1.61.67s-1.2-.25-1.61-.67c-.41-.41-.67-.98-.67-1.61s.25-1.2.67-1.61c.41-.41.98-.67,1.61-.67Z"/>
        <path class="cls-4" d="M91.63,34.25c.68,0,1.3.28,1.75.72.45.45.72,1.06.72,1.75s-.28,1.3-.72,1.75c-.45.45-1.06.72-1.75.72s-1.3-.28-1.75-.72c-.45-.45-.72-1.06-.72-1.75s.28-1.3.72-1.75c.45-.45,1.06-.72,1.75-.72Z"/>
        <path class="cls-4" d="M73.26,9.38c.74,0,1.4.3,1.88.78.48.48.78,1.15.78,1.88s-.3,1.4-.78,1.88-1.15.78-1.88.78-1.4-.3-1.88-.78c-.48-.48-.78-1.15-.78-1.88s.3-1.4.78-1.88c.48-.48,1.15-.78,1.88-.78Z"/>
        <path class="cls-4" d="M249.62,160.14c.38,0,.72.15.97.4.25.25.4.59.4.97s-.15.72-.4.97c-.25.25-.59.4-.97.4s-.72-.15-.97-.4c-.25-.25-.4-.59-.4-.97s.15-.72.4-.97c.25-.25.59-.4.97-.4Z"/>
        <path class="cls-4" d="M226.01,142.31c.43,0,.82.17,1.1.46.28.28.46.67.46,1.1s-.17.82-.46,1.1c-.28.28-.67.46-1.1.46s-.82-.17-1.1-.46-.46-.67-.46-1.1.17-.82.46-1.1.67-.46,1.1-.46Z"/>
        <path class="cls-4" d="M203.3,123.12c.48,0,.92.2,1.24.51.32.32.51.76.51,1.24s-.2.92-.51,1.24c-.32.32-.76.51-1.24.51s-.92-.2-1.24-.51c-.32-.32-.51-.76-.51-1.24s.2-.92.51-1.24c.32-.32.76-.51,1.24-.51Z"/>
        <path class="cls-4" d="M181.47,102.63c.54,0,1.02.22,1.37.57.35.35.57.84.57,1.37s-.22,1.02-.57,1.37c-.35.35-.84.57-1.37.57s-1.02-.22-1.37-.57-.57-.84-.57-1.37.22-1.02.57-1.37.84-.57,1.37-.57Z"/>
        <path class="cls-4" d="M160.53,80.92c.59,0,1.12.24,1.51.63s.63.92.63,1.51-.24,1.12-.63,1.51c-.39.39-.92.63-1.51.63s-1.12-.24-1.51-.63c-.39-.39-.63-.92-.63-1.51s.24-1.12.63-1.51c.39-.39.92-.63,1.51-.63Z"/>
        <path class="cls-4" d="M140.45,58.09c.64,0,1.22.26,1.64.68.42.42.68,1,.68,1.64s-.26,1.22-.68,1.64c-.42.42-1,.68-1.64.68s-1.22-.26-1.64-.68c-.42-.42-.68-1-.68-1.64s.26-1.22.68-1.64c.42-.42,1-.68,1.64-.68Z"/>
        <path class="cls-4" d="M121.23,34.2c.7,0,1.32.28,1.78.74s.74,1.08.74,1.78-.28,1.32-.74,1.78-1.08.74-1.78.74-1.32-.28-1.78-.74-.74-1.08-.74-1.78.28-1.32.74-1.78,1.08-.74,1.78-.74Z"/>
        <path class="cls-4" d="M102.85,9.34c.75,0,1.42.3,1.92.79.49.49.79,1.17.79,1.92s-.3,1.42-.79,1.92c-.49.49-1.17.79-1.92.79s-1.42-.3-1.92-.79-.79-1.17-.79-1.92.3-1.42.79-1.92c.49-.49,1.17-.79,1.92-.79Z"/>
        <path class="cls-4" d="M232.9,123.06c.5,0,.95.2,1.28.53s.53.78.53,1.28-.2.95-.53,1.28-.78.53-1.28.53-.95-.2-1.28-.53-.53-.78-.53-1.28.2-.95.53-1.28.78-.53,1.28-.53Z"/>
        <path class="cls-4" d="M211.07,102.57c.55,0,1.05.22,1.41.59s.59.86.59,1.41-.22,1.05-.59,1.41-.86.59-1.41.59-1.05-.22-1.41-.59c-.36-.36-.59-.86-.59-1.41s.22-1.05.59-1.41c.36-.36.86-.59,1.41-.59Z"/>
        <path class="cls-4" d="M190.12,80.87c.6,0,1.15.24,1.55.64s.64.94.64,1.55-.24,1.15-.64,1.55-.94.64-1.55.64-1.15-.24-1.55-.64-.64-.94-.64-1.55.24-1.15.64-1.55.94-.64,1.55-.64Z"/>
        <path class="cls-4" d="M170.04,58.04c.66,0,1.25.27,1.68.7.43.43.7,1.02.7,1.68s-.27,1.25-.7,1.68-1.02.7-1.68.7-1.25-.27-1.68-.7-.7-1.02-.7-1.68.27-1.25.7-1.68c.43-.43,1.02-.7,1.68-.7Z"/>
        <path class="cls-4" d="M150.82,34.15c.71,0,1.35.29,1.81.75s.75,1.11.75,1.81-.29,1.35-.75,1.81-1.11.75-1.81.75-1.35-.29-1.81-.75-.75-1.11-.75-1.81.29-1.35.75-1.81,1.11-.75,1.81-.75Z"/>
        <path class="cls-4" d="M132.45,9.29c.76,0,1.45.31,1.95.81s.81,1.19.81,1.95-.31,1.45-.81,1.95c-.5.5-1.19.81-1.95.81s-1.45-.31-1.95-.81c-.5-.5-.81-1.19-.81-1.95s.31-1.45.81-1.95,1.19-.81,1.95-.81Z"/>
        <path class="cls-4" d="M240.66,102.52c.57,0,1.08.23,1.45.6s.6.88.6,1.45-.23,1.08-.6,1.45c-.37.37-.88.6-1.45.6s-1.08-.23-1.45-.6-.6-.88-.6-1.45.23-1.08.6-1.45c.37-.37.88-.6,1.45-.6Z"/>
        <path class="cls-4" d="M219.72,80.82c.62,0,1.18.25,1.58.66.41.41.66.96.66,1.58s-.25,1.18-.66,1.58-.96.66-1.58.66-1.18-.25-1.58-.66-.66-.96-.66-1.58.25-1.18.66-1.58c.41-.41.96-.66,1.58-.66Z"/>
        <path class="cls-4" d="M199.64,57.99c.67,0,1.28.27,1.71.71.44.44.71,1.05.71,1.71s-.27,1.28-.71,1.71c-.44.44-1.04.71-1.71.71s-1.28-.27-1.71-.71c-.44-.44-.71-1.05-.71-1.71s.27-1.28.71-1.71c.44-.44,1.04-.71,1.71-.71Z"/>
        <path class="cls-4" d="M180.42,34.11c.72,0,1.37.29,1.85.76.47.47.76,1.13.76,1.85s-.29,1.37-.76,1.85c-.47.47-1.13.76-1.85.76s-1.37-.29-1.85-.76c-.47-.47-.76-1.13-.76-1.85s.29-1.37.76-1.85c.47-.47,1.13-.76,1.85-.76Z"/>
        <path class="cls-4" d="M162.04,9.25c.77,0,1.47.31,1.98.82.51.51.82,1.21.82,1.98s-.31,1.47-.82,1.98c-.51.51-1.21.82-1.98.82s-1.47-.31-1.98-.82c-.51-.51-.82-1.21-.82-1.98s.31-1.47.82-1.98c.51-.51,1.21-.82,1.98-.82Z"/>
        <path class="cls-4" d="M249.31,80.77c.63,0,1.2.26,1.62.67.41.41.67.99.67,1.62s-.26,1.2-.67,1.62c-.41.41-.99.67-1.62.67s-1.2-.26-1.62-.67-.67-.99-.67-1.62.26-1.2.67-1.62.99-.67,1.62-.67Z"/>
        <path class="cls-4" d="M229.23,57.94c.68,0,1.3.28,1.75.72s.72,1.07.72,1.75-.28,1.3-.72,1.75-1.07.72-1.75.72-1.3-.28-1.75-.72-.72-1.07-.72-1.75.28-1.3.72-1.75,1.07-.72,1.75-.72Z"/>
        <path class="cls-4" d="M210.01,34.06c.73,0,1.4.3,1.88.78.48.48.78,1.15.78,1.88s-.3,1.4-.78,1.88c-.48.48-1.15.78-1.88.78s-1.4-.3-1.88-.78c-.48-.48-.78-1.15-.78-1.88s.3-1.4.78-1.88c.48-.48,1.15-.78,1.88-.78Z"/>
        <path class="cls-4" d="M191.64,9.2c.78,0,1.5.32,2.01.83s.83,1.22.83,2.01-.32,1.5-.83,2.01c-.51.51-1.22.83-2.01.83s-1.5-.32-2.01-.83c-.51-.51-.83-1.22-.83-2.01s.32-1.5.83-2.01c.51-.51,1.22-.83,2.01-.83Z"/>
        <path class="cls-4" d="M239.61,34.01c.75,0,1.42.3,1.91.79.49.49.79,1.17.79,1.91s-.3,1.42-.79,1.91c-.49.49-1.17.79-1.91.79s-1.42-.3-1.91-.79c-.49-.49-.79-1.17-.79-1.91s.3-1.42.79-1.91,1.17-.79,1.91-.79Z"/>
        <path class="cls-4" d="M221.23,9.16c.8,0,1.52.32,2.04.85s.85,1.24.85,2.04-.32,1.52-.85,2.04-1.24.85-2.04.85-1.52-.32-2.04-.85c-.52-.52-.85-1.24-.85-2.04s.32-1.52.85-2.04c.52-.52,1.24-.85,2.04-.85Z"/>
        <path class="cls-4" d="M250.83,9.11c.81,0,1.54.33,2.07.86.53.53.86,1.26.86,2.07s-.33,1.54-.86,2.07-1.26.86-2.07.86-1.54-.33-2.07-.86-.86-1.26-.86-2.07.33-1.54.86-2.07c.53-.53,1.26-.86,2.07-.86Z"/>
      </g>
    </g>
  </g>
  <g id="Capa_13" data-name="Capa 13">
    <g>
      <path class="cls-3" d="M47.69,181.15c0-7.54.04-15.08-.03-22.62-.01-1.68.47-2.44,2.24-2.28,5.35.48,10.13-1.14,15-3.34,11.76-5.33,22.93-3.05,33.24,4.05,4.37,3.01,8.34,6.61,12.49,9.94,7.18,5.76,15.33,8.65,24.57,8.48,4.01-.07,8.02-.08,12.03.01,5.25.12,8.8,3.55,8.7,8.25-.07,3.77-2.87,7.03-6.61,7.62-1.12.18-2.26.25-3.39.25-13.88.02-27.76,0-41.64.01-2.97,0-4.03.69-4.03,2.59,0,1.88,1.18,2.68,4.02,2.68,14.24,0,28.48,0,42.72,0,8.05,0,13.18-4.47,14.25-12.41.15-1.14.47-1.93,1.74-2.37,9.97-3.38,19.9-6.85,29.86-10.27,2.95-1.01,5.61-.4,7.69,1.92,1.98,2.2,2.3,4.83,1.18,7.54-.93,2.27-2.86,3.41-5.1,4.18-10.35,3.54-20.7,7.12-31.04,10.68-12.78,4.41-25.57,8.76-38.31,13.27-4.01,1.42-8.1,2.11-12.28,2.31-12.37.59-24.75.6-37.13.13-1.14-.04-2.28-.1-3.41-.02-4.6.31-8.88-.73-13.01-2.74-3.64-1.77-7.49-2.87-11.59-2.7-1.66.07-2.17-.58-2.16-2.2.06-7.66.03-15.32.03-22.98Z"/>
      <path class="cls-3" d="M118.26,95.94c3.02,0,5.47.03,7.92-.01,1.06-.02,1.61.32,1.85,1.44.73,3.28,2.82,5.55,6.03,6.22,5.51,1.15,9.37,4.11,12.28,8.91,2.3,3.79,5.76,4.65,10.01,3.36q4.04-1.23,6.03,2.5c5.74,10.79,9.29,22.16,8.94,34.5-.15,5.2-1.23,10.2-4.11,14.67-1.59,2.47-3.66,4.39-6.16,5.9-.99.6-1.63.56-2.39-.44-2.79-3.69-6.6-5.39-11.19-5.38-4.01,0-8.02-.05-12.02.01-8.38.13-15.67-2.63-22.15-7.89-4.87-3.95-9.49-8.25-14.87-11.55-5.88-3.61-12.29-5.55-19.2-5.72-1.45-.04-2.1-.36-1.76-1.97,3.08-14.35,8.91-27.25,19.77-37.47,3.68-3.46,7.91-6.01,12.98-6.87,2.85-.48,5.73-.09,8.03-.2ZM112.09,147.02c.04,4.06,2.86,7.83,7.34,9.46,1.44.52,1.95,1.25,1.95,2.72,0,2.05,1.05,3.18,2.63,3.13,1.53-.05,2.67-1.21,2.56-3.07-.1-1.74.68-2.39,2.16-2.91,4.03-1.42,8-5.89,6.93-11.99-.66-3.77-2.89-6.03-6.31-7.36-2.86-1.11-5.95-1.34-8.81-2.39-3.37-1.24-4.34-5-1.95-7.68,1.99-2.22,4.58-2.77,7.37-2.01,2.56.7,4.24,2.28,4.55,5.12.2,1.88,1.36,2.75,3.02,2.56,1.61-.19,2.41-1.34,2.25-3.26-.38-4.38-2.79-7.35-6.72-8.97-1.72-.71-2.63-1.41-2.5-3.42.1-1.59-1.33-2.79-2.73-2.75-1.39.05-2.52,1.13-2.42,2.78.12,1.93-.76,2.66-2.44,3.31-4.81,1.87-7.18,5.9-6.86,11.19.26,4.3,3.02,7.27,8.08,8.63,2.36.64,4.79,1.08,7.1,1.86,3.18,1.06,4.2,4.51,2.31,7.28-1.42,2.08-4.53,3.14-7.37,2.52-2.71-.58-4.47-2.47-4.91-5.24-.29-1.83-1.38-2.79-2.98-2.63-1.47.15-2.27,1.26-2.25,3.11Z"/>
      <path class="cls-3" d="M133.91,89.46c.66-4.09-.71-7.53-3.36-10.58-.78-.9-1.43-1.92-2.12-2.89-1.37-1.91-1.38-2.92,0-4.88,1.16-1.64,2.35-3.27,3.55-4.89,1.27-1.7,1.99-3.77,1.94-5.89s-.03-4.19,0-6.29c.03-2.27.61-3.04,2.8-3.79,1.96-.66,3.92-1.35,5.9-1.95s3.62-1.73,4.79-3.36c1.35-1.86,2.72-3.7,4.05-5.57.92-1.28,2.55-1.78,4.04-1.27,2.03.7,4.09,1.33,6.13,2.02,2.08.69,4.32.66,6.39-.05,2.01-.7,4.06-1.28,6.08-1.97,1.67-.58,2.92-.07,3.91,1.29,1.29,1.77,2.61,3.52,3.87,5.31,1.2,1.7,2.93,2.97,4.91,3.59,2.01.63,3.99,1.35,6.01,1.97,1.6.49,2.72,1.94,2.72,3.62-.02,11.31-.59,8.65,5.64,17.33,1.03,1.43.96,3.37-.1,4.78-1.25,1.66-2.43,3.37-3.67,5.04-1.24,1.67-1.87,3.7-1.88,5.78,0,2.2-.03,4.4,0,6.6.02,1.52-.95,2.85-2.4,3.31-2.05.66-4.08,1.37-6.14,1.99s-3.91,2.01-5.19,3.8c-1.16,1.63-2.33,3.25-3.53,4.85-1.43,1.92-2.31,2.21-4.64,1.48-1.92-.6-3.82-1.24-5.73-1.88-2.02-.67-4.21-.66-6.24,0-2.05.66-4.09,1.31-6.13,2-1.51.52-3.16,0-4.09-1.3-1.28-1.77-2.59-3.51-3.85-5.29s-2.92-2.96-4.91-3.59c-1.77-.56-3.52-1.15-5.29-1.73-3.09-1.01-3.49-1.54-3.49-4.73,0-.96,0-1.91,0-2.87ZM177.31,59.96c-.04-.17-.08-.47-.17-.75-.33-.99-1.01-1.62-2.04-1.8-1.28-.22-2.18.46-2.89,1.42-2.59,3.51-5.16,7.03-7.73,10.55-3.78,5.15-7.55,10.31-11.33,15.46-.92,1.25-1.45,2.51-.32,3.9,1.29,1.59,3.09,1.36,4.6-.7,6.33-8.61,12.64-17.24,18.95-25.87.46-.63.91-1.27.94-2.22ZM148.43,64.3c-.26,4.83,3.46,8.59,8.24,8.25,3.62-.26,6.68-3.28,7.01-6.89.45-4.95-3.47-8.91-8.42-8.46-3.63.33-6.63,3.45-6.83,7.09ZM181.05,82.32c.05-4.32-3.23-7.71-7.48-7.74-4.35-.03-7.82,3.34-7.85,7.61-.03,4.61,3.92,8.23,8.69,7.61,3.68-.47,6.59-3.78,6.64-7.49Z"/>
      <path class="cls-3" d="M111.99,77.79c-2.03,0-4.07-.04-6.1.01-1.11.03-1.74-.42-2.21-1.42-3.13-6.71-6.29-13.42-9.48-20.1-.51-1.07-.37-1.82.45-2.7,3.62-3.89,7.79-5.41,12.91-3.2.88.38,1.8.66,2.67,1.05,4.43,1.99,9.02,3.16,13.91,2.63,1.63-.18,2.2.5,2.03,2.03-.01.12,0,.24,0,.36-.13,8.72.94,5.66-4.14,12.73-1.62,2.25-2.84,4.55-2.39,7.44.16,1.04-.61,1.16-1.37,1.17-2.09.02-4.18,0-6.28,0h0Z"/>
      <path class="cls-3" d="M113.62,90.66c-3.1,0-6.21.01-9.31,0-.77,0-1.56-.04-2.31-.2-1.92-.39-3.24-2.02-3.14-3.78.1-1.88,1.6-3.46,3.6-3.59,1.72-.11,3.46-.05,5.19-.05,4.53,0,9.07-.01,13.6,0,2.6,0,5.62,4.22,4.83,6.69-.32,1.02-1.15.86-1.9.93-.12.01-.24,0-.36,0-3.4,0-6.8,0-10.2,0Z"/>
      <path class="cls-3" d="M171.72,172.95c1.81-2.92,3.02-5.92,3.86-9.08.04-.16.17-.32.29-.44,3.34-3.54,10.33-1.94,11.77,2.67.28.9.33,1.65-.75,2.02-4.79,1.64-9.58,3.28-14.37,4.9-.14.05-.33-.03-.8-.07Z"/>
      <path class="cls-3" d="M155.96,67.14c-1.23-.04-2.34-1.14-2.22-2.34.13-1.36.89-2.2,2.33-2.24,1.32-.04,2.43,1.14,2.33,2.42-.09,1.23-1.19,2.2-2.43,2.16Z"/>
      <path class="cls-3" d="M175.76,82.31c-.15,1.39-.97,2.23-2.32,2.23-1.38,0-2.18-.87-2.25-2.27-.06-1.33,1.08-2.48,2.36-2.35,1.38.14,2.09,1.01,2.21,2.4Z"/>
    </g>
  </g>
</svg>